<svg width="387" height="444" viewBox="0 0 387 444" fill="none" xmlns="http://www.w3.org/2000/svg">
<g filter="url(#filter0_d_48_135)">
<path d="M193.644 149.36L241.061 275.758L241.05 275.763L241.039 275.767L241.027 275.771L241.016 275.775L241.004 275.78L240.992 275.784L240.98 275.789L240.968 275.793L240.956 275.798L240.944 275.803L240.931 275.807L240.918 275.812L240.906 275.817L240.893 275.822L240.88 275.826L240.867 275.831L240.854 275.836L240.84 275.841L240.827 275.846L240.813 275.851L240.799 275.857L240.785 275.862L240.771 275.867L240.757 275.872L240.743 275.878L240.729 275.883L240.714 275.889L240.7 275.894L240.685 275.9L240.67 275.905L240.655 275.911L240.64 275.916L240.625 275.922L240.609 275.928L240.594 275.934L240.578 275.94L240.562 275.946L240.546 275.951L240.53 275.957L240.514 275.964L240.498 275.97L240.482 275.976L240.465 275.982L240.449 275.988L240.432 275.994L240.415 276.001L240.398 276.007L240.381 276.014L240.364 276.02L240.346 276.027L240.329 276.033L240.311 276.04L240.294 276.046L240.276 276.053L240.258 276.06L240.24 276.067L240.221 276.073L240.203 276.08L240.185 276.087L240.166 276.094L240.147 276.101L240.129 276.108L240.11 276.115L240.091 276.122L240.071 276.13L240.052 276.137L240.033 276.144L240.013 276.152L239.993 276.159L239.974 276.166L239.954 276.174L239.934 276.181L239.914 276.189L239.893 276.196L239.873 276.204L239.852 276.212L239.832 276.22L239.811 276.227L239.79 276.235L239.769 276.243L239.748 276.251L239.727 276.259L239.706 276.267L239.684 276.275L239.663 276.283L239.641 276.291L239.619 276.299L239.597 276.308L239.575 276.316L239.553 276.324L239.531 276.333L239.508 276.341L239.486 276.349L239.463 276.358L239.44 276.366L239.418 276.375L239.395 276.384L239.371 276.392L239.348 276.401L239.325 276.41L239.302 276.419L239.278 276.427L239.254 276.436L239.23 276.445L239.207 276.454L239.183 276.463L239.158 276.472L239.134 276.481L239.11 276.49L239.085 276.5L239.061 276.509L239.036 276.518L239.011 276.527L238.986 276.537L238.961 276.546L238.936 276.556L238.911 276.565L238.885 276.575L238.86 276.584L238.834 276.594L238.808 276.604L238.782 276.613L238.757 276.623L238.73 276.633L238.704 276.643L238.678 276.652L238.651 276.662L238.625 276.672L238.598 276.682L238.572 276.692L238.545 276.702L238.518 276.713L238.491 276.723L238.463 276.733L238.436 276.743L238.409 276.753L238.381 276.764L238.353 276.774L238.326 276.785L238.298 276.795L238.27 276.806L238.242 276.816L238.213 276.827L238.185 276.837L238.157 276.848L238.128 276.859L238.099 276.869L238.071 276.88L238.042 276.891L238.013 276.902L237.984 276.913L237.954 276.924L237.925 276.935L237.896 276.946L237.866 276.957L237.836 276.968L237.807 276.979L237.777 276.99L237.747 277.002L237.717 277.013L237.687 277.024L237.656 277.036L237.626 277.047L237.595 277.059L237.565 277.07L237.534 277.082L237.503 277.093L237.472 277.105L237.441 277.116L237.41 277.128L237.379 277.14L237.347 277.152L237.316 277.163L237.284 277.175L237.253 277.187L237.221 277.199L237.189 277.211L237.157 277.223L237.125 277.235L237.092 277.247L237.06 277.259L237.028 277.272L236.995 277.284L236.962 277.296L236.93 277.308L236.897 277.321L236.864 277.333L236.831 277.345L236.797 277.358L236.764 277.37L236.731 277.383L236.697 277.395L236.664 277.408L236.63 277.421L236.596 277.433L236.562 277.446L236.528 277.459L236.494 277.472L236.46 277.485L236.425 277.497L236.391 277.51L236.356 277.523L236.322 277.536L236.287 277.549L236.252 277.562L236.217 277.576L236.182 277.589L236.147 277.602L236.112 277.615L236.076 277.628L236.041 277.642L236.005 277.655L235.97 277.668L235.934 277.682L235.898 277.695L235.862 277.709L235.826 277.722L235.79 277.736L235.753 277.75L235.717 277.763L235.681 277.777L235.644 277.791L235.607 277.804L235.57 277.818L235.534 277.832L235.497 277.846L235.459 277.86L235.422 277.874L235.385 277.888L235.348 277.902L235.31 277.916L235.272 277.93L235.235 277.944L235.197 277.958L235.159 277.972L235.121 277.987L235.083 278.001L235.045 278.015L235.006 278.03L234.968 278.044L234.93 278.059L234.891 278.073L234.852 278.088L234.814 278.102L234.775 278.117L234.736 278.131L234.697 278.146L234.657 278.161L234.618 278.175L234.579 278.19L234.539 278.205L234.5 278.22L234.46 278.235L234.42 278.25L234.38 278.265L234.34 278.28L234.3 278.295L234.26 278.31L234.22 278.325L234.18 278.34L234.139 278.355L234.099 278.37L234.058 278.385L234.017 278.401L233.977 278.416L233.936 278.431L233.895 278.447L233.853 278.462L233.812 278.478L233.771 278.493L233.73 278.509L233.688 278.524L233.647 278.54L233.605 278.556L233.563 278.571L233.521 278.587L233.479 278.603L233.437 278.618L233.395 278.634L233.353 278.65L233.31 278.666L233.268 278.682L233.225 278.698L233.183 278.714L233.14 278.73L233.097 278.746L233.054 278.762L233.011 278.778L232.968 278.794L232.925 278.81L232.882 278.827L232.839 278.843L232.795 278.859L232.752 278.876L232.708 278.892L232.664 278.908L232.62 278.925L232.576 278.941L232.532 278.958L232.488 278.974L232.444 278.991L232.4 279.008L232.356 279.024L232.311 279.041L232.267 279.058L232.222 279.074L232.177 279.091L232.132 279.108L232.087 279.125L232.042 279.142L231.997 279.159L231.952 279.175L231.907 279.192L231.862 279.209L231.816 279.227L231.771 279.244L231.725 279.261L231.679 279.278L231.633 279.295L231.588 279.312L231.542 279.33L231.495 279.347L231.449 279.364L231.403 279.381L231.357 279.399L231.31 279.416L231.264 279.434L231.217 279.451L231.17 279.469L231.124 279.486L231.077 279.504L231.03 279.521L230.983 279.539L230.936 279.557L230.889 279.575L230.841 279.592L230.794 279.61L230.746 279.628L230.699 279.646L230.651 279.664L230.603 279.681L230.556 279.699L230.508 279.717L230.46 279.735L230.412 279.753L230.363 279.771L230.315 279.79L230.267 279.808L230.218 279.826L230.17 279.844L230.121 279.862L230.073 279.881L230.024 279.899L229.975 279.917L229.926 279.935L229.877 279.954L229.828 279.972L229.779 279.991L229.73 280.009L229.68 280.028L229.631 280.046L229.581 280.065L229.532 280.083L229.482 280.102L229.432 280.121L229.383 280.139L229.333 280.158L229.283 280.177L229.232 280.196L229.182 280.215L229.132 280.233L229.082 280.252L229.031 280.271L228.981 280.29L228.93 280.309L228.88 280.328L228.829 280.347L228.778 280.366L228.727 280.385L228.676 280.404L228.625 280.424L228.574 280.443L228.523 280.462L228.471 280.481L228.42 280.501L228.368 280.52L228.317 280.539L228.265 280.559L228.213 280.578L228.162 280.597L228.11 280.617L228.058 280.636L228.006 280.656L227.954 280.675L227.901 280.695L227.849 280.715L227.797 280.734L227.744 280.754L227.692 280.774L227.639 280.793L227.587 280.813L227.534 280.833L227.481 280.853L227.428 280.873L227.375 280.892L227.322 280.912L227.269 280.932L227.216 280.952L227.162 280.972L227.109 280.992L227.056 281.012L227.002 281.032L226.948 281.053L226.895 281.073L226.841 281.093L226.787 281.113L226.733 281.133L226.679 281.154L226.625 281.174L226.571 281.194L226.517 281.214L226.463 281.235L226.408 281.255L226.354 281.276L226.299 281.296L226.245 281.317L226.19 281.337L226.135 281.358L226.08 281.378C223.774 282.243 222.605 282.183 221.911 281.853C221.563 281.688 221.291 281.435 221.034 281.109C220.85 280.874 220.692 280.629 220.518 280.358C220.438 280.234 220.355 280.104 220.264 279.968C219.703 279.127 218.971 278.232 217.485 277.926C216.05 277.631 213.99 277.903 210.806 279.098C207.624 280.292 205.946 281.421 205.101 282.577C204.231 283.769 204.302 284.918 204.368 285.899L204.369 285.908C204.436 286.894 204.489 287.692 203.905 288.541C203.299 289.423 201.948 290.431 198.928 291.564L198.857 291.591L198.786 291.617L198.715 291.644L198.645 291.67L198.574 291.697L198.504 291.723L198.434 291.749L198.365 291.775L198.295 291.801L198.226 291.827L198.157 291.853L198.088 291.879L198.02 291.905L197.951 291.93L197.883 291.956L197.815 291.981L197.748 292.007L197.68 292.032L197.613 292.057L197.546 292.082L197.479 292.107L197.413 292.132L197.347 292.157L197.28 292.182L197.214 292.207L197.149 292.231L197.083 292.256L197.018 292.28L196.953 292.305L196.888 292.329L196.824 292.353L196.759 292.378L196.695 292.402L196.631 292.426L196.567 292.45L196.504 292.473L196.44 292.497L196.377 292.521L196.314 292.544L196.252 292.568L196.189 292.591L196.127 292.615L196.065 292.638L196.003 292.661L195.941 292.684L195.88 292.707L195.819 292.73L195.758 292.753L195.697 292.776L195.636 292.799L195.576 292.821L195.516 292.844L195.456 292.867L195.396 292.889L195.337 292.911L195.277 292.934L195.218 292.956L195.159 292.978L195.1 293L195.042 293.022L194.984 293.044L194.925 293.065L194.868 293.087L194.81 293.109L194.752 293.13L194.695 293.152L194.638 293.173L194.581 293.195L194.524 293.216L194.468 293.237L194.412 293.258L194.355 293.279L194.3 293.3L194.244 293.321L194.188 293.342L194.133 293.363L194.078 293.383L194.023 293.404L193.968 293.424L193.914 293.445L193.86 293.465L193.806 293.486L193.752 293.506L193.698 293.526L193.645 293.546L193.591 293.566L193.538 293.586L193.485 293.606L193.432 293.626L193.38 293.645L193.328 293.665L193.275 293.684L193.224 293.704L193.172 293.723L193.12 293.743L193.069 293.762L193.018 293.781L192.967 293.8L192.916 293.819L192.865 293.838L192.815 293.857L192.765 293.876L192.715 293.895L192.665 293.913L192.615 293.932L192.566 293.951L192.517 293.969L192.468 293.988L192.419 294.006L192.37 294.024L192.321 294.042L192.273 294.06L192.225 294.078L192.177 294.096L192.129 294.114L192.082 294.132L192.034 294.15L191.987 294.168L191.94 294.185L191.893 294.203L191.847 294.22L191.8 294.238L191.754 294.255L191.708 294.272L191.662 294.29L191.616 294.307L191.571 294.324L191.525 294.341L191.48 294.358L191.435 294.375L191.391 294.392L191.346 294.408L191.301 294.425L191.257 294.442L191.213 294.458L191.169 294.475L191.125 294.491L191.082 294.507L191.039 294.524L190.995 294.54L190.952 294.556L190.91 294.572L190.867 294.588L190.824 294.604L190.782 294.62L190.74 294.636L190.698 294.651L190.656 294.667L190.615 294.683L190.573 294.698L190.532 294.714L190.491 294.729L190.45 294.744L190.409 294.76L190.369 294.775L190.328 294.79L190.288 294.805L190.248 294.82L190.208 294.835L190.169 294.85L190.129 294.865L190.09 294.88L190.051 294.894L190.012 294.909L189.973 294.923L189.934 294.938L189.896 294.952L189.857 294.967L189.819 294.981L189.781 294.995L189.743 295.009L189.706 295.024L189.668 295.038L189.631 295.052L189.594 295.066L189.557 295.079L189.52 295.093L189.483 295.107L189.447 295.121L189.41 295.134L189.374 295.148L189.338 295.161L189.302 295.175L189.267 295.188L189.231 295.202L189.196 295.215L189.161 295.228L189.126 295.241L189.091 295.254L189.056 295.267L189.022 295.28L188.987 295.293L188.953 295.306L188.919 295.319L188.885 295.331L188.851 295.344L188.818 295.357L188.784 295.369L188.751 295.382L188.718 295.394L188.685 295.406L188.652 295.419L188.62 295.431L188.587 295.443L188.555 295.455L188.523 295.467L188.491 295.479L188.459 295.491L188.427 295.503L188.396 295.515L188.364 295.527L188.333 295.538L188.302 295.55L188.271 295.562L188.24 295.573L188.21 295.585L188.179 295.596L188.149 295.607L188.119 295.619L188.089 295.63L188.059 295.641L188.029 295.652L188 295.663L187.971 295.674L187.941 295.685L187.912 295.696L187.883 295.707L187.854 295.718L187.826 295.729L187.797 295.739L187.769 295.75L187.741 295.761L187.713 295.771L187.685 295.782L187.657 295.792L187.629 295.802L187.602 295.813L187.575 295.823L187.547 295.833L187.52 295.843L187.494 295.853L187.467 295.863L187.44 295.873L187.414 295.883L187.387 295.893L187.361 295.903L187.335 295.913L187.309 295.923L187.284 295.932L187.258 295.942L187.233 295.951L187.207 295.961L187.182 295.97L187.157 295.98L187.132 295.989L187.107 295.998L187.083 296.008L187.058 296.017L187.034 296.026L187.01 296.035L186.986 296.044L186.962 296.053L186.938 296.062L186.914 296.071L186.891 296.08L186.867 296.088L186.844 296.097L186.821 296.106L186.798 296.114L186.775 296.123L186.753 296.131L186.73 296.14L186.708 296.148L186.685 296.157L186.663 296.165L186.641 296.173L186.619 296.181L186.597 296.19L186.576 296.198L186.554 296.206L186.533 296.214L186.512 296.222L186.49 296.23L186.47 296.238L186.449 296.245L186.428 296.253L186.407 296.261L186.387 296.269L186.367 296.276L186.346 296.284L186.326 296.291L186.306 296.299L186.286 296.306L186.267 296.314L186.247 296.321L186.228 296.328L186.208 296.336L186.189 296.343L186.17 296.35L186.151 296.357L186.132 296.364L186.114 296.371L186.095 296.378L186.077 296.385L186.058 296.392L186.04 296.399L186.022 296.405L186.004 296.412L185.986 296.419L185.969 296.425L185.951 296.432L185.934 296.439L185.916 296.445L185.899 296.452L185.882 296.458L185.865 296.464L185.848 296.471L185.831 296.477L185.815 296.483L185.798 296.489L185.782 296.496L185.765 296.502L185.749 296.508L185.733 296.514L185.717 296.52L185.701 296.526L185.686 296.532L185.67 296.537L185.655 296.543L185.639 296.549L185.624 296.555L185.609 296.56L185.594 296.566L185.579 296.572L185.564 296.577L185.55 296.583L185.535 296.588L185.521 296.594L185.506 296.599L185.492 296.604L185.478 296.61L185.464 296.615L185.45 296.62L185.436 296.625L185.423 296.63L185.409 296.635L185.396 296.64L185.382 296.645L185.369 296.65L185.356 296.655L185.343 296.66L185.33 296.665L185.317 296.67L185.304 296.675L185.292 296.679L185.279 296.684L185.267 296.689L185.255 296.693L185.242 296.698L185.23 296.702L185.218 296.707L185.207 296.711L185.195 296.716L185.183 296.72L185.172 296.724L185.16 296.729L185.149 296.733L185.138 296.737L185.127 296.741L185.115 296.746L185.105 296.75L185.094 296.754L185.083 296.758L185.072 296.762L185.062 296.766L185.051 296.77L185.041 296.773L185.031 296.777L185.021 296.781L185.011 296.785L185.001 296.789L184.991 296.792L184.981 296.796L184.971 296.8L184.962 296.803L184.952 296.807L184.943 296.81L184.934 296.814L184.925 296.817L184.916 296.821L184.907 296.824L184.898 296.827L184.889 296.831L184.884 296.832L137.467 170.434L137.475 170.431L137.488 170.426L137.501 170.421L137.514 170.416L137.527 170.411L137.54 170.406L137.553 170.401L137.567 170.396L137.581 170.391L137.595 170.386L137.609 170.381L137.623 170.375L137.637 170.37L137.652 170.364L137.666 170.359L137.681 170.353L137.696 170.348L137.711 170.342L137.726 170.336L137.742 170.331L137.757 170.325L137.773 170.319L137.789 170.313L137.805 170.307L137.821 170.301L137.838 170.295L137.854 170.288L137.871 170.282L137.887 170.276L137.904 170.27L137.921 170.263L137.939 170.257L137.956 170.25L137.973 170.244L137.991 170.237L138.009 170.23L138.027 170.224L138.045 170.217L138.063 170.21L138.081 170.203L138.1 170.196L138.119 170.189L138.137 170.182L138.156 170.175L138.176 170.168L138.195 170.161L138.214 170.153L138.234 170.146L138.253 170.139L138.273 170.131L138.293 170.124L138.313 170.116L138.333 170.109L138.354 170.101L138.374 170.093L138.395 170.086L138.416 170.078L138.437 170.07L138.458 170.062L138.479 170.054L138.5 170.046L138.522 170.038L138.543 170.03L138.565 170.022L138.587 170.014L138.609 170.005L138.631 169.997L138.653 169.989L138.676 169.98L138.698 169.972L138.721 169.963L138.744 169.955L138.767 169.946L138.79 169.937L138.813 169.929L138.836 169.92L138.86 169.911L138.884 169.902L138.907 169.893L138.931 169.884L138.955 169.875L138.979 169.866L139.004 169.857L139.028 169.848L139.053 169.839L139.077 169.83L139.102 169.82L139.127 169.811L139.152 169.802L139.177 169.792L139.202 169.783L139.228 169.773L139.253 169.763L139.279 169.754L139.305 169.744L139.331 169.734L139.357 169.725L139.383 169.715L139.409 169.705L139.436 169.695L139.462 169.685L139.489 169.675L139.516 169.665L139.543 169.655L139.57 169.645L139.597 169.635L139.624 169.624L139.652 169.614L139.679 169.604L139.707 169.593L139.735 169.583L139.763 169.572L139.791 169.562L139.819 169.551L139.847 169.541L139.876 169.53L139.904 169.519L139.933 169.509L139.962 169.498L139.99 169.487L140.019 169.476L140.048 169.465L140.078 169.454L140.107 169.443L140.136 169.432L140.166 169.421L140.196 169.41L140.225 169.399L140.255 169.388L140.285 169.376L140.316 169.365L140.346 169.354L140.376 169.342L140.407 169.331L140.437 169.319L140.468 169.308L140.499 169.296L140.53 169.285L140.561 169.273L140.592 169.261L140.623 169.25L140.654 169.238L140.686 169.226L140.718 169.214L140.749 169.202L140.781 169.19L140.813 169.178L140.845 169.166L140.877 169.154L140.909 169.142L140.942 169.13L140.974 169.118L141.007 169.106L141.039 169.094L141.072 169.081L141.105 169.069L141.138 169.057L141.171 169.044L141.204 169.032L141.238 169.019L141.271 169.007L141.305 168.994L141.338 168.981L141.372 168.969L141.406 168.956L141.44 168.943L141.474 168.931L141.508 168.918L141.542 168.905L141.576 168.892L141.611 168.879L141.645 168.866L141.68 168.853L141.715 168.84L141.749 168.827L141.784 168.814L141.819 168.801L141.854 168.788L141.89 168.775L141.925 168.761L141.96 168.748L141.996 168.735L142.032 168.721L142.067 168.708L142.103 168.694L142.139 168.681L142.175 168.668L142.211 168.654L142.247 168.64L142.284 168.627L142.32 168.613L142.356 168.599L142.393 168.586L142.43 168.572L142.466 168.558L142.503 168.544L142.54 168.531L142.577 168.517L142.614 168.503L142.651 168.489L142.689 168.475L142.726 168.461L142.764 168.447L142.801 168.433L142.839 168.418L142.877 168.404L142.914 168.39L142.952 168.376L142.99 168.362L143.028 168.347L143.067 168.333L143.105 168.319L143.143 168.304L143.182 168.29L143.22 168.275L143.259 168.261L143.298 168.246L143.336 168.232L143.375 168.217L143.414 168.203L143.453 168.188L143.492 168.173L143.532 168.159L143.571 168.144L143.61 168.129L143.65 168.114L143.689 168.099L143.729 168.085L143.769 168.07L143.808 168.055L143.848 168.04L143.888 168.025L143.928 168.01L143.968 167.995L144.008 167.98L144.049 167.965L144.089 167.95L144.129 167.934L144.17 167.919L144.21 167.904L144.251 167.889L144.292 167.873L144.333 167.858L144.374 167.843L144.415 167.827L144.456 167.812L144.497 167.797L144.538 167.781L144.579 167.766L144.62 167.75L144.662 167.735L144.703 167.719L144.745 167.703L144.786 167.688L144.828 167.672L144.87 167.657L144.912 167.641L144.954 167.625L144.996 167.609L145.038 167.594L145.08 167.578L145.122 167.562L145.164 167.546L145.207 167.53L145.249 167.514L145.292 167.498L145.334 167.482L145.377 167.466L145.419 167.45L145.462 167.434L145.505 167.418L145.548 167.402L145.591 167.386L145.634 167.37L145.677 167.354L145.72 167.338L145.763 167.321L145.807 167.305L145.85 167.289L145.893 167.273L145.937 167.256L145.98 167.24L146.024 167.224L146.068 167.207L146.111 167.191L146.155 167.174L146.199 167.158L146.243 167.142L146.287 167.125L146.331 167.109L146.375 167.092L146.419 167.075L146.463 167.059L146.508 167.042L146.552 167.026L146.596 167.009L146.641 166.992L146.685 166.976L146.73 166.959L146.774 166.942L146.819 166.925L146.864 166.909L146.909 166.892L146.953 166.875L146.998 166.858L147.043 166.841L147.088 166.824L147.133 166.807L147.179 166.791L147.224 166.774L147.269 166.757L147.314 166.74L147.36 166.723L147.405 166.706L147.45 166.689L147.496 166.671L147.541 166.654L147.587 166.637L147.633 166.62L147.678 166.603L147.724 166.586L147.77 166.569L147.816 166.551L147.862 166.534L147.908 166.517L147.954 166.5L148 166.482L148.046 166.465L148.092 166.448L148.138 166.431L148.184 166.413L148.231 166.396L148.277 166.378L148.323 166.361L148.37 166.344L148.416 166.326L148.463 166.309L148.509 166.291L148.556 166.274L148.603 166.256L148.649 166.239L148.696 166.221L148.743 166.204L148.79 166.186L148.837 166.169L148.883 166.151L148.93 166.133L148.977 166.116L149.024 166.098L149.072 166.08L149.119 166.063L149.166 166.045L149.213 166.027L149.26 166.01L149.307 165.992L149.355 165.974L149.402 165.956L149.45 165.939L149.497 165.921L149.544 165.903L149.592 165.885L149.639 165.867L149.687 165.849L149.735 165.832L149.782 165.814L149.83 165.796L149.878 165.778L149.925 165.76L149.973 165.742L150.021 165.724L150.069 165.706L150.117 165.688L150.165 165.67L150.213 165.652L150.261 165.634L150.309 165.616L150.357 165.598L150.405 165.58L150.453 165.562L150.501 165.544L150.549 165.526L150.597 165.508L150.646 165.49L150.694 165.472L150.742 165.454L150.791 165.436L150.839 165.417L150.887 165.399L150.936 165.381L150.984 165.363L151.033 165.345L151.081 165.327L151.13 165.308L151.178 165.29L151.227 165.272L151.275 165.254L151.324 165.235L151.373 165.217L151.421 165.199L151.47 165.181L151.519 165.162L151.567 165.144L151.616 165.126L151.665 165.108L151.714 165.089L151.763 165.071L151.811 165.053L151.86 165.034L151.909 165.016L151.958 164.998L152.007 164.979L152.056 164.961L152.105 164.942L152.154 164.924L152.203 164.906L152.252 164.887L152.301 164.869L152.35 164.851L152.399 164.832L152.448 164.814L152.497 164.795L152.547 164.777L152.596 164.758L152.645 164.74L152.694 164.721L152.743 164.703L152.792 164.685L152.842 164.666L152.891 164.648L152.94 164.629L152.989 164.611L153.039 164.592L153.088 164.574L153.137 164.555L153.187 164.537L153.236 164.518L153.285 164.5L153.335 164.481L153.384 164.463C155.429 163.695 156.559 163.79 157.313 164.157C157.979 164.482 158.424 165.037 158.969 165.716C159.081 165.855 159.196 165.999 159.319 166.148C160.016 166.992 160.88 167.874 162.383 168.209C163.86 168.539 165.87 168.323 168.834 167.211C171.792 166.102 173.376 164.971 174.166 163.774C174.973 162.551 174.891 161.346 174.772 160.307C174.763 160.223 174.753 160.14 174.743 160.059C174.63 159.099 174.54 158.331 174.902 157.577C175.285 156.776 176.247 155.886 178.664 154.979L178.721 154.958L178.779 154.936L178.836 154.915L178.893 154.893L178.951 154.872L179.008 154.85L179.065 154.829L179.122 154.808L179.178 154.786L179.235 154.765L179.292 154.744L179.348 154.723L179.405 154.701L179.461 154.68L179.517 154.659L179.573 154.638L179.629 154.617L179.685 154.596L179.741 154.575L179.797 154.554L179.852 154.534L179.908 154.513L179.963 154.492L180.018 154.471L180.074 154.45L180.129 154.43L180.184 154.409L180.239 154.389L180.294 154.368L180.348 154.347L180.403 154.327L180.457 154.306L180.512 154.286L180.566 154.266L180.62 154.245L180.675 154.225L180.729 154.205L180.783 154.185L180.836 154.164L180.89 154.144L180.944 154.124L180.997 154.104L181.051 154.084L181.104 154.064L181.157 154.044L181.211 154.024L181.264 154.004L181.317 153.984L181.369 153.964L181.422 153.945L181.475 153.925L181.527 153.905L181.58 153.885L181.632 153.866L181.684 153.846L181.737 153.827L181.789 153.807L181.841 153.788L181.892 153.768L181.944 153.749L181.996 153.729L182.047 153.71L182.099 153.691L182.15 153.671L182.201 153.652L182.253 153.633L182.304 153.614L182.355 153.595L182.405 153.576L182.456 153.557L182.507 153.538L182.557 153.519L182.608 153.5L182.658 153.481L182.708 153.462L182.759 153.443L182.809 153.424L182.859 153.406L182.908 153.387L182.958 153.368L183.008 153.35L183.057 153.331L183.107 153.313L183.156 153.294L183.205 153.276L183.254 153.257L183.304 153.239L183.352 153.22L183.401 153.202L183.45 153.184L183.499 153.166L183.547 153.147L183.596 153.129L183.644 153.111L183.692 153.093L183.74 153.075L183.788 153.057L183.836 153.039L183.884 153.021L183.932 153.003L183.979 152.985L184.027 152.968L184.074 152.95L184.121 152.932L184.169 152.914L184.216 152.897L184.263 152.879L184.309 152.861L184.356 152.844L184.403 152.826L184.449 152.809L184.496 152.792L184.542 152.774L184.589 152.757L184.635 152.739L184.681 152.722L184.727 152.705L184.773 152.688L184.818 152.671L184.864 152.653L184.909 152.636L184.955 152.619L185 152.602L185.045 152.585L185.09 152.568L185.135 152.552L185.18 152.535L185.225 152.518L185.27 152.501L185.314 152.484L185.359 152.468L185.403 152.451L185.448 152.434L185.492 152.418L185.536 152.401L185.58 152.385L185.624 152.368L185.667 152.352L185.711 152.336L185.755 152.319L185.798 152.303L185.841 152.287L185.885 152.271L185.928 152.254L185.971 152.238L186.014 152.222L186.056 152.206L186.099 152.19L186.142 152.174L186.184 152.158L186.227 152.142L186.269 152.126L186.311 152.111L186.353 152.095L186.395 152.079L186.437 152.063L186.479 152.048L186.52 152.032L186.562 152.017L186.603 152.001L186.645 151.985L186.686 151.97L186.727 151.955L186.768 151.939L186.809 151.924L186.85 151.909L186.89 151.893L186.931 151.878L186.971 151.863L187.012 151.848L187.052 151.833L187.092 151.818L187.132 151.803L187.172 151.788L187.212 151.773L187.251 151.758L187.291 151.743L187.331 151.728L187.37 151.713L187.409 151.699L187.448 151.684L187.487 151.669L187.526 151.655L187.565 151.64L187.604 151.626L187.643 151.611L187.681 151.597L187.72 151.582L187.758 151.568L187.796 151.553L187.834 151.539L187.872 151.525L187.91 151.511L187.948 151.497L187.986 151.482L188.023 151.468L188.06 151.454L188.098 151.44L188.135 151.426L188.172 151.412L188.209 151.399L188.246 151.385L188.283 151.371L188.32 151.357L188.356 151.343L188.393 151.33L188.429 151.316L188.465 151.303L188.501 151.289L188.537 151.275L188.573 151.262L188.609 151.249L188.645 151.235L188.68 151.222L188.716 151.208L188.751 151.195L188.786 151.182L188.822 151.169L188.857 151.156L188.892 151.143L188.926 151.13L188.961 151.116L188.996 151.104L189.03 151.091L189.064 151.078L189.099 151.065L189.133 151.052L189.167 151.039L189.201 151.027L189.235 151.014L189.268 151.001L189.302 150.989L189.335 150.976L189.369 150.964L189.402 150.951L189.435 150.939L189.468 150.926L189.501 150.914L189.534 150.902L189.567 150.889L189.599 150.877L189.632 150.865L189.664 150.853L189.696 150.841L189.729 150.829L189.761 150.817L189.793 150.805L189.824 150.793L189.856 150.781L189.888 150.769L189.919 150.757L189.951 150.745L189.982 150.734L190.013 150.722L190.044 150.71L190.075 150.699L190.106 150.687L190.136 150.676L190.167 150.664L190.197 150.653L190.228 150.641L190.258 150.63L190.288 150.619L190.318 150.607L190.348 150.596L190.378 150.585L190.407 150.574L190.437 150.563L190.466 150.552L190.496 150.541L190.525 150.53L190.554 150.519L190.583 150.508L190.612 150.497L190.641 150.486L190.669 150.476L190.698 150.465L190.726 150.454L190.755 150.444L190.783 150.433L190.811 150.423L190.839 150.412L190.867 150.402L190.895 150.391L190.922 150.381L190.95 150.37L190.977 150.36L191.004 150.35L191.032 150.34L191.059 150.33L191.086 150.32L191.112 150.309L191.139 150.299L191.166 150.289L191.192 150.28L191.219 150.27L191.245 150.26L191.271 150.25L191.297 150.24L191.323 150.23L191.349 150.221L191.374 150.211L191.4 150.202L191.425 150.192L191.451 150.183L191.476 150.173L191.501 150.164L191.526 150.154L191.551 150.145L191.576 150.136L191.6 150.126L191.625 150.117L191.649 150.108L191.673 150.099L191.698 150.09L191.722 150.081L191.746 150.072L191.769 150.063L191.793 150.054L191.817 150.045L191.84 150.036L191.864 150.028L191.887 150.019L191.91 150.01L191.933 150.002L191.956 149.993L191.979 149.985L192.001 149.976L192.024 149.968L192.046 149.959L192.068 149.951L192.091 149.942L192.113 149.934L192.135 149.926L192.156 149.918L192.178 149.91L192.2 149.902L192.221 149.893L192.243 149.885L192.264 149.877L192.285 149.87L192.306 149.862L192.327 149.854L192.348 149.846L192.368 149.838L192.389 149.831L192.409 149.823L192.43 149.815L192.45 149.808L192.47 149.8L192.49 149.793L192.51 149.785L192.529 149.778L192.549 149.771L192.568 149.763L192.588 149.756L192.607 149.749L192.626 149.742L192.645 149.734L192.664 149.727L192.683 149.72L192.701 149.713L192.72 149.706L192.738 149.7L192.757 149.693L192.775 149.686L192.793 149.679L192.811 149.672L192.829 149.666L192.846 149.659L192.864 149.652L192.881 149.646L192.899 149.639L192.916 149.633L192.933 149.627L192.95 149.62L192.967 149.614L192.983 149.608L193 149.601L193.016 149.595L193.033 149.589L193.049 149.583L193.065 149.577L193.081 149.571L193.097 149.565L193.113 149.559L193.129 149.553L193.144 149.547L193.159 149.542L193.175 149.536L193.19 149.53L193.205 149.524L193.22 149.519L193.235 149.513L193.249 149.508L193.264 149.502L193.278 149.497L193.293 149.492L193.307 149.486L193.321 149.481L193.335 149.476L193.349 149.471L193.362 149.465L193.376 149.46L193.389 149.455L193.403 149.45L193.416 149.445L193.429 149.44L193.442 149.436L193.455 149.431L193.468 149.426L193.48 149.421L193.493 149.417L193.505 149.412L193.517 149.407L193.529 149.403L193.541 149.398L193.553 149.394L193.565 149.389L193.577 149.385L193.588 149.381L193.599 149.376L193.611 149.372L193.622 149.368L193.633 149.364L193.644 149.36L193.644 149.36Z" fill="#C1F4A2" stroke="#2B5D17"/>
<line x1="229.587" y1="243.749" x2="172.474" y2="265.174" stroke="#2B5D17" stroke-dasharray="2 2"/>
<line x1="224.262" y1="249.485" x2="229.531" y2="263.529" stroke="white" stroke-width="2"/>
<line x1="220.751" y1="250.802" x2="226.02" y2="264.846" stroke="white" stroke-width="0.5"/>
<line x1="218.177" y1="251.768" x2="223.445" y2="265.812" stroke="white"/>
<line x1="215.274" y1="252.857" x2="220.543" y2="266.901" stroke="white" stroke-width="0.8"/>
<line x1="212.559" y1="253.875" x2="217.827" y2="267.919" stroke="white"/>
<line x1="209.75" y1="254.929" x2="215.019" y2="268.973" stroke="white"/>
<line x1="206.941" y1="255.983" x2="212.21" y2="270.027" stroke="white"/>
<line x1="203.898" y1="257.124" x2="209.167" y2="271.168" stroke="white" stroke-width="0.5"/>
<line x1="201.323" y1="258.09" x2="206.592" y2="272.134" stroke="white"/>
<line x1="198.515" y1="259.144" x2="203.783" y2="273.188" stroke="white"/>
<line x1="196.221" y1="260.004" x2="201.489" y2="274.048" stroke="white" stroke-width="0.1"/>
<line x1="193.365" y1="261.075" x2="198.633" y2="275.12" stroke="white" stroke-width="2"/>
<line x1="189.901" y1="262.375" x2="195.169" y2="276.419" stroke="white" stroke-width="0.6"/>
<line x1="187.279" y1="263.358" x2="192.548" y2="277.403" stroke="white"/>
<line x1="184.423" y1="264.43" x2="189.692" y2="278.474" stroke="white" stroke-width="0.9"/>
<line x1="181.661" y1="265.466" x2="186.93" y2="279.51" stroke="white"/>
<path d="M193.035 181.843L192.679 181.977L191.977 180.104L185.76 182.436L185.602 182.015L191.819 179.683L191.116 177.81L191.472 177.677L193.035 181.843ZM193.136 183.195C193.099 183.095 193.098 182.999 193.135 182.907C193.178 182.813 193.256 182.745 193.368 182.702C193.474 182.663 193.574 182.664 193.669 182.707C193.763 182.75 193.829 182.821 193.866 182.921C193.904 183.021 193.901 183.118 193.858 183.213C193.815 183.307 193.741 183.374 193.635 183.414C193.522 183.456 193.419 183.456 193.325 183.413C193.236 183.368 193.174 183.295 193.136 183.195ZM192.081 183.826L186.997 185.733L186.838 185.312L191.923 183.405L192.081 183.826ZM190.024 186.06C190.555 185.861 191.055 185.791 191.526 185.849C191.999 185.914 192.407 186.092 192.751 186.383C193.104 186.678 193.371 187.066 193.551 187.546C193.79 188.183 193.826 188.764 193.66 189.289C193.496 189.82 193.165 190.237 192.665 190.538L192.5 190.098C192.907 189.853 193.17 189.512 193.291 189.075C193.414 188.644 193.382 188.179 193.195 187.68C193.055 187.305 192.843 186.997 192.559 186.754C192.282 186.509 191.937 186.357 191.524 186.299C191.119 186.244 190.673 186.308 190.186 186.491C189.693 186.676 189.312 186.922 189.042 187.23C188.776 187.543 188.615 187.885 188.562 188.254C188.508 188.623 188.551 188.995 188.692 189.369C188.879 189.869 189.161 190.24 189.537 190.483C189.915 190.733 190.338 190.816 190.805 190.734L190.971 191.174C190.403 191.273 189.879 191.177 189.4 190.887C188.921 190.597 188.563 190.137 188.326 189.506C188.146 189.026 188.092 188.558 188.164 188.104C188.238 187.656 188.431 187.252 188.745 186.893C189.067 186.537 189.494 186.259 190.024 186.06ZM190.748 195.733L192.247 192.64L189.915 193.514L189.757 193.093L196.686 190.494L196.844 190.915L192.696 192.471L195.818 193.789L196.039 194.379L192.587 192.864L190.966 196.314L190.748 195.733ZM195.892 200.677C195.667 200.761 195.496 200.818 195.379 200.848L193.732 196.457C193.281 196.64 192.935 196.884 192.693 197.188C192.451 197.493 192.309 197.827 192.268 198.191C192.227 198.556 192.274 198.919 192.41 199.281C192.597 199.78 192.876 200.153 193.246 200.399C193.622 200.642 194.038 200.728 194.496 200.656L194.661 201.096C194.105 201.19 193.588 201.093 193.109 200.802C192.636 200.51 192.281 200.048 192.045 199.418C191.867 198.944 191.814 198.479 191.885 198.025C191.957 197.571 192.15 197.164 192.463 196.804C192.783 196.442 193.208 196.162 193.739 195.963C194.27 195.764 194.77 195.693 195.241 195.752C195.713 195.816 196.123 195.997 196.47 196.295C196.822 196.59 197.089 196.977 197.269 197.458C197.452 197.945 197.504 198.406 197.425 198.841C197.355 199.281 197.18 199.66 196.901 199.978C196.628 200.294 196.291 200.527 195.892 200.677ZM195.575 200.315C196.031 200.165 196.381 199.941 196.626 199.643C196.872 199.351 197.013 199.024 197.048 198.662C197.089 198.298 197.043 197.938 196.91 197.582C196.776 197.226 196.574 196.925 196.303 196.677C196.041 196.434 195.718 196.274 195.333 196.198C194.951 196.128 194.533 196.17 194.078 196.327L195.575 200.315ZM198.44 201.889L195.079 203.15C194.704 203.29 194.471 203.456 194.379 203.647C194.293 203.836 194.316 204.106 194.447 204.455L194.661 205.026L194.287 205.167L194.048 204.53C193.882 204.087 193.862 203.72 193.988 203.431C194.123 203.145 194.434 202.911 194.921 202.729L198.282 201.468L197.994 200.7L198.359 200.563L198.647 201.331L199.939 200.846L200.097 201.267L198.805 201.752L199.371 203.259L199.006 203.396L198.44 201.889Z" fill="#102C07"/>
<line x1="170.766" y1="176.633" x2="197.109" y2="246.855" stroke="#2B5D17"/>
<path d="M158.828 178.975C158.828 178.975 159.183 209.815 162.868 198.286C166.554 186.757 183.059 209.403 176.388 212.974C169.717 216.544 169.544 233.164 176.039 233.397C182.535 233.631 184.819 248.26 184.819 248.26" stroke="#708E5E"/>
<path d="M189.415 156.084C189.459 156.327 189.418 156.561 189.293 156.783C189.168 157.009 188.982 157.169 188.735 157.261C188.533 157.337 188.333 157.357 188.135 157.32C187.943 157.285 187.764 157.19 187.599 157.034C187.439 156.88 187.308 156.669 187.207 156.399L186.737 155.146L190.681 153.667L191.142 154.897C191.29 155.29 191.309 155.621 191.2 155.888C191.096 156.158 190.9 156.347 190.611 156.455C190.36 156.549 190.131 156.558 189.923 156.482C189.719 156.405 189.55 156.272 189.415 156.084ZM188.983 154.592L189.354 155.581C189.465 155.877 189.619 156.077 189.817 156.182C190.02 156.29 190.245 156.298 190.492 156.205C190.732 156.115 190.891 155.965 190.971 155.756C191.05 155.547 191.03 155.283 190.911 154.965L190.551 154.004L188.983 154.592ZM187.42 156.3C187.539 156.618 187.707 156.839 187.925 156.963C188.147 157.089 188.391 157.102 188.657 157.002C188.919 156.904 189.092 156.732 189.175 156.487C189.264 156.245 189.248 155.963 189.127 155.64L188.764 154.674L187.051 155.317L187.42 156.3ZM188.416 159.759C188.309 159.474 188.277 159.194 188.318 158.918C188.36 158.642 188.474 158.394 188.661 158.174C188.853 157.957 189.108 157.788 189.426 157.669C189.741 157.551 190.041 157.513 190.326 157.556C190.615 157.597 190.864 157.709 191.073 157.891C191.288 158.075 191.448 158.31 191.555 158.594C191.662 158.879 191.694 159.159 191.653 159.436C191.615 159.71 191.502 159.956 191.314 160.172C191.127 160.391 190.874 160.561 190.556 160.68C190.238 160.8 189.934 160.839 189.645 160.798C189.36 160.755 189.11 160.641 188.896 160.457C188.683 160.276 188.523 160.044 188.416 159.759ZM188.641 159.675C188.724 159.896 188.85 160.083 189.019 160.238C189.193 160.395 189.403 160.493 189.649 160.534C189.894 160.574 190.165 160.538 190.461 160.427C190.753 160.318 190.979 160.167 191.137 159.975C191.296 159.783 191.388 159.573 191.414 159.346C191.443 159.117 191.417 158.892 191.334 158.671C191.251 158.45 191.123 158.263 190.95 158.11C190.783 157.959 190.576 157.864 190.33 157.823C190.084 157.783 189.815 157.818 189.523 157.927C189.227 158.038 188.999 158.188 188.839 158.376C188.681 158.568 188.586 158.777 188.555 159.002C188.529 159.23 188.558 159.454 188.641 159.675ZM189.774 163.38C189.668 163.095 189.635 162.815 189.677 162.539C189.718 162.262 189.832 162.014 190.019 161.795C190.211 161.578 190.466 161.409 190.785 161.29C191.099 161.172 191.399 161.134 191.684 161.177C191.973 161.218 192.222 161.329 192.431 161.512C192.646 161.696 192.806 161.931 192.913 162.215C193.02 162.5 193.053 162.78 193.011 163.056C192.973 163.331 192.86 163.577 192.672 163.792C192.485 164.012 192.232 164.182 191.914 164.301C191.596 164.42 191.292 164.46 191.003 164.418C190.718 164.376 190.468 164.262 190.254 164.078C190.041 163.897 189.881 163.665 189.774 163.38ZM189.999 163.296C190.082 163.517 190.208 163.704 190.377 163.859C190.551 164.016 190.761 164.114 191.007 164.154C191.253 164.195 191.523 164.159 191.819 164.048C192.111 163.939 192.337 163.788 192.496 163.596C192.654 163.404 192.746 163.194 192.772 162.967C192.802 162.738 192.775 162.513 192.692 162.292C192.609 162.071 192.481 161.884 192.309 161.731C192.141 161.58 191.934 161.484 191.688 161.444C191.443 161.404 191.174 161.439 190.882 161.548C190.586 161.659 190.358 161.809 190.198 161.997C190.039 162.189 189.944 162.398 189.913 162.623C189.888 162.85 189.916 163.075 189.999 163.296ZM191.268 167.225L192.168 165.369L190.769 165.894L190.674 165.641L194.831 164.082L194.926 164.334L192.437 165.268L194.31 166.059L194.443 166.413L192.372 165.504L191.399 167.574L191.268 167.225ZM195.632 166.867L191.689 168.346L191.594 168.093L195.537 166.614L195.632 166.867ZM195.665 169.482C195.801 169.845 195.8 170.183 195.661 170.496C195.525 170.807 195.239 171.045 194.801 171.209L193.014 171.88L192.921 171.632L194.691 170.969C195.054 170.832 195.297 170.637 195.419 170.381C195.545 170.125 195.549 169.839 195.431 169.525C195.307 169.195 195.103 168.97 194.819 168.851C194.536 168.734 194.189 168.754 193.777 168.908L192.131 169.526L192.036 169.273L195.087 168.129L195.182 168.381L194.535 168.624C194.796 168.624 195.024 168.701 195.218 168.855C195.418 169.011 195.566 169.22 195.665 169.482Z" fill="#102C07"/>
<rect x="225.552" y="267.158" width="2" height="36" transform="rotate(69.4372 225.552 267.158)" fill="#102C07"/>
</g>
<g clip-path="url(#clip0_48_135)" filter="url(#filter1_d_48_135)">
<path d="M299.66 223.604C299.205 222.814 299.081 221.876 299.317 220.995C299.553 220.115 300.129 219.364 300.919 218.908L306.873 215.471C307.662 215.015 308.6 214.891 309.481 215.127C310.362 215.363 311.112 215.939 311.568 216.729L315.006 222.683C315.462 223.472 315.585 224.411 315.349 225.291C315.113 226.172 314.537 226.923 313.748 227.379L307.794 230.816C307.004 231.272 306.066 231.395 305.185 231.159C304.305 230.924 303.554 230.347 303.098 229.558L299.66 223.604ZM281.799 233.916C281.343 233.127 281.219 232.189 281.455 231.308C281.691 230.427 282.267 229.677 283.057 229.221L289.011 225.783C289.8 225.327 290.739 225.204 291.619 225.44C292.5 225.676 293.251 226.252 293.706 227.041L297.144 232.995C297.6 233.785 297.723 234.723 297.487 235.604C297.251 236.484 296.675 237.235 295.886 237.691L289.932 241.129C289.142 241.584 288.204 241.708 287.323 241.472C286.443 241.236 285.692 240.66 285.236 239.87L281.799 233.916ZM262.341 268.966C261.886 268.176 261.762 267.238 261.998 266.357C262.234 265.477 262.81 264.726 263.6 264.27L269.554 260.832C270.343 260.377 271.281 260.253 272.162 260.489C273.043 260.725 273.793 261.301 274.249 262.091L277.687 268.045C278.143 268.834 278.266 269.772 278.03 270.653C277.794 271.534 277.218 272.284 276.429 272.74L270.475 276.178C269.685 276.634 268.747 276.757 267.866 276.521C266.986 276.285 266.235 275.709 265.779 274.92L262.341 268.966ZM280.203 258.653C279.747 257.864 279.624 256.925 279.86 256.045C280.096 255.164 280.672 254.413 281.461 253.957L287.415 250.52C288.205 250.064 289.143 249.941 290.024 250.177C290.904 250.413 291.655 250.989 292.111 251.778L295.549 257.732C296.004 258.522 296.128 259.46 295.892 260.341C295.656 261.221 295.08 261.972 294.29 262.428L288.336 265.865C287.547 266.321 286.609 266.445 285.728 266.209C284.847 265.973 284.097 265.397 283.641 264.607L280.203 258.653Z" fill="#102C07"/>
<path d="M232.662 210.685C233.452 210.229 234.39 210.105 235.271 210.341C236.151 210.577 236.902 211.153 237.358 211.943L239.077 214.92L286.708 187.42L284.989 184.443C284.533 183.653 284.41 182.715 284.646 181.834C284.882 180.954 285.458 180.203 286.248 179.747C287.037 179.291 287.975 179.168 288.856 179.404C289.737 179.64 290.487 180.216 290.943 181.005L292.662 183.982L298.616 180.545C301.774 178.721 305.527 178.227 309.05 179.171C312.572 180.115 315.575 182.419 317.399 185.578L355.211 251.071C357.035 254.229 357.529 257.982 356.585 261.505C355.641 265.027 353.337 268.03 350.178 269.854L278.731 311.104C275.573 312.927 271.82 313.421 268.298 312.477C264.775 311.533 261.772 309.229 259.948 306.071L222.136 240.578C220.313 237.419 219.818 233.666 220.762 230.144C221.706 226.621 224.011 223.618 227.169 221.795L233.123 218.357L231.404 215.38C230.948 214.591 230.825 213.652 231.061 212.772C231.297 211.891 231.873 211.14 232.662 210.685ZM231.527 243.094L265.902 302.633C266.814 304.212 268.316 305.365 270.077 305.837C271.838 306.308 273.715 306.061 275.294 305.15L346.741 263.9C348.32 262.988 349.472 261.486 349.944 259.725C350.416 257.964 350.169 256.087 349.257 254.508L314.882 194.969L231.527 243.094Z" fill="#102C07"/>
</g>
<g clip-path="url(#clip1_48_135)" filter="url(#filter2_d_48_135)">
<path d="M105.566 262.66C106.889 266.059 109.507 268.793 112.846 270.261C116.184 271.729 119.968 271.81 123.367 270.488L113.394 244.86C109.995 246.182 107.261 248.801 105.794 252.139C104.326 255.477 104.244 259.262 105.566 262.66ZM195.789 227.55L192.771 222.845C189.338 217.51 184.167 213.526 178.133 211.568C172.099 209.609 165.574 209.797 159.663 212.1C155.639 213.665 145.253 216.719 134.544 218.489C129.231 219.376 123.573 219.984 118.424 219.871L143.965 285.504C147.683 281.94 152.26 278.572 156.779 275.626C165.867 269.692 175.586 264.921 179.609 263.355C185.52 261.056 190.454 256.783 193.576 251.262C196.698 245.741 197.815 239.311 196.739 233.06L195.789 227.55ZM146.702 292.539C144.395 295.082 142.77 297.617 142.24 300.029L107.334 210.332C109.355 211.751 112.266 212.522 115.686 212.836C129.463 214.114 151.532 207.887 157.17 205.693C172.675 199.659 189.905 205.643 198.556 219.133C199.412 218.697 200.35 218.445 201.309 218.394C202.269 218.343 203.228 218.493 204.126 218.835C205.024 219.177 205.84 219.704 206.521 220.381C207.203 221.058 207.735 221.87 208.084 222.766C208.432 223.661 208.589 224.62 208.544 225.579C208.499 226.539 208.254 227.479 207.824 228.338C207.394 229.197 206.788 229.956 206.046 230.567C205.305 231.177 204.443 231.626 203.517 231.883C204.865 239.698 203.469 247.739 199.566 254.642C195.664 261.546 189.494 266.888 182.102 269.762C176.464 271.956 155.991 282.284 146.702 292.539Z" fill="#102C07"/>
</g>
<g filter="url(#filter3_d_48_135)">
<rect x="52.8235" y="262.716" width="330" height="173" rx="20" fill="#DFF9CE"/>
<rect x="53.8235" y="263.716" width="328" height="171" rx="19" stroke="#102C07" stroke-width="2"/>
</g>
<g filter="url(#filter4_d_48_135)">
<path d="M148.044 349.365C149.65 349.651 151.011 350.497 152.129 351.902C153.247 353.306 153.806 354.897 153.806 356.675C153.806 358.194 153.405 359.57 152.602 360.803C151.828 362.007 150.696 362.967 149.205 363.684C147.715 364.372 145.98 364.716 144.002 364.716H132.048V334.831H143.443C145.479 334.831 147.227 335.175 148.689 335.863C150.151 336.551 151.255 337.482 152 338.658C152.746 339.804 153.118 341.094 153.118 342.528C153.118 344.248 152.66 345.681 151.742 346.828C150.825 347.974 149.592 348.82 148.044 349.365ZM136.95 347.387H143.013C144.619 347.387 145.866 347.028 146.754 346.312C147.672 345.566 148.13 344.506 148.13 343.13C148.13 341.782 147.672 340.736 146.754 339.991C145.866 339.217 144.619 338.83 143.013 338.83H136.95V347.387ZM143.572 360.717C145.235 360.717 146.539 360.315 147.485 359.513C148.431 358.71 148.904 357.592 148.904 356.159C148.904 354.697 148.403 353.536 147.399 352.676C146.396 351.816 145.063 351.386 143.4 351.386H136.95V360.717H143.572ZM169.41 365.103C167.174 365.103 165.153 364.601 163.347 363.598C161.541 362.566 160.122 361.132 159.09 359.298C158.058 357.434 157.542 355.284 157.542 352.848C157.542 350.44 158.073 348.304 159.133 346.441C160.194 344.577 161.642 343.144 163.476 342.141C165.311 341.137 167.361 340.636 169.625 340.636C171.89 340.636 173.94 341.137 175.774 342.141C177.609 343.144 179.057 344.577 180.117 346.441C181.178 348.304 181.708 350.44 181.708 352.848C181.708 355.256 181.164 357.391 180.074 359.255C178.985 361.118 177.494 362.566 175.602 363.598C173.739 364.601 171.675 365.103 169.41 365.103ZM169.41 360.846C170.672 360.846 171.847 360.545 172.936 359.943C174.054 359.341 174.957 358.438 175.645 357.234C176.333 356.03 176.677 354.568 176.677 352.848C176.677 351.128 176.348 349.68 175.688 348.505C175.029 347.301 174.155 346.398 173.065 345.796C171.976 345.194 170.801 344.893 169.539 344.893C168.278 344.893 167.103 345.194 166.013 345.796C164.953 346.398 164.107 347.301 163.476 348.505C162.846 349.68 162.53 351.128 162.53 352.848C162.53 355.399 163.175 357.377 164.465 358.782C165.784 360.158 167.432 360.846 169.41 360.846ZM196.831 365.103C194.595 365.103 192.574 364.601 190.768 363.598C188.962 362.566 187.543 361.132 186.511 359.298C185.479 357.434 184.963 355.284 184.963 352.848C184.963 350.44 185.494 348.304 186.554 346.441C187.615 344.577 189.063 343.144 190.897 342.141C192.732 341.137 194.782 340.636 197.046 340.636C199.311 340.636 201.361 341.137 203.195 342.141C205.03 343.144 206.478 344.577 207.538 346.441C208.599 348.304 209.129 350.44 209.129 352.848C209.129 355.256 208.585 357.391 207.495 359.255C206.406 361.118 204.915 362.566 203.023 363.598C201.16 364.601 199.096 365.103 196.831 365.103ZM196.831 360.846C198.093 360.846 199.268 360.545 200.357 359.943C201.475 359.341 202.378 358.438 203.066 357.234C203.754 356.03 204.098 354.568 204.098 352.848C204.098 351.128 203.769 349.68 203.109 348.505C202.45 347.301 201.576 346.398 200.486 345.796C199.397 345.194 198.222 344.893 196.96 344.893C195.699 344.893 194.524 345.194 193.434 345.796C192.374 346.398 191.528 347.301 190.897 348.505C190.267 349.68 189.951 351.128 189.951 352.848C189.951 355.399 190.596 357.377 191.886 358.782C193.205 360.158 194.853 360.846 196.831 360.846ZM223.349 352.891L234.271 364.716H227.649L218.877 354.525V364.716H213.975V332.896H218.877V351.386L227.477 341.023H234.271L223.349 352.891ZM255.974 347.086V351.214H238.301V347.086H255.974ZM267.84 334.831V364.716H262.938V334.831H267.84ZM286.23 340.636C288.093 340.636 289.756 341.023 291.218 341.797C292.709 342.571 293.87 343.717 294.701 345.237C295.532 346.756 295.948 348.591 295.948 350.741V364.716H291.089V351.472C291.089 349.35 290.559 347.731 289.498 346.613C288.437 345.466 286.99 344.893 285.155 344.893C283.32 344.893 281.858 345.466 280.769 346.613C279.708 347.731 279.178 349.35 279.178 351.472V364.716H274.276V341.023H279.178V343.732C279.981 342.757 280.998 341.997 282.231 341.453C283.492 340.908 284.825 340.636 286.23 340.636Z" fill="#102C07"/>
</g>
<g filter="url(#filter5_d_48_135)">
<path d="M152.472 43.3533L153.196 42.0395L152.472 43.3533ZM224.94 146.428C225.61 146.916 226.548 146.768 227.036 146.098L234.981 135.185C235.469 134.515 235.321 133.577 234.652 133.089C233.982 132.601 233.044 132.749 232.556 133.419L225.493 143.12L215.792 136.057C215.122 135.569 214.184 135.717 213.696 136.387C213.209 137.057 213.356 137.995 214.026 138.482L224.94 146.428ZM5.32345 66.716C6.17248 67.9526 6.17242 67.9526 6.17269 67.9524C6.1732 67.9521 6.17379 67.9517 6.17482 67.951C6.17688 67.9496 6.18022 67.9473 6.18484 67.9441C6.19407 67.9378 6.20839 67.9281 6.22775 67.9149C6.26647 67.8886 6.32536 67.8487 6.40402 67.7959C6.56133 67.6902 6.79767 67.5326 7.10982 67.3276C7.73414 66.9176 8.66158 66.3183 9.86628 65.5664C12.2759 64.0624 15.7936 61.9484 20.2126 59.5175C29.0538 54.6538 41.4866 48.5305 55.8593 43.4836C84.6713 33.3665 120.936 27.6919 151.749 44.6671L153.196 42.0395C121.247 24.4378 83.9375 30.4446 54.8654 40.653C40.296 45.7689 27.7094 51.9694 18.7666 56.8889C14.2937 59.3496 10.7283 61.4919 8.27782 63.0215C7.05248 63.7863 6.10562 64.398 5.46314 64.8199C5.1419 65.0308 4.89673 65.1943 4.73087 65.3058C4.64794 65.3615 4.58483 65.4042 4.54196 65.4333C4.52052 65.4479 4.50414 65.4591 4.49286 65.4668C4.48723 65.4706 4.48287 65.4736 4.47979 65.4757C4.47826 65.4768 4.47691 65.4777 4.47614 65.4782C4.47512 65.4789 4.47442 65.4794 5.32345 66.716ZM151.749 44.6671C182.789 61.7677 200.941 86.9619 211.34 107.918C216.539 118.394 219.793 127.798 221.746 134.577C222.723 137.966 223.374 140.696 223.779 142.574C223.982 143.512 224.123 144.237 224.214 144.725C224.259 144.968 224.291 145.153 224.312 145.274C224.322 145.335 224.33 145.38 224.335 145.41C224.337 145.424 224.339 145.435 224.34 145.441C224.34 145.445 224.341 145.447 224.341 145.448C224.341 145.449 224.341 145.449 224.341 145.449C224.341 145.449 224.341 145.449 225.823 145.216C227.305 144.982 227.305 144.982 227.304 144.98C227.304 144.98 227.304 144.978 227.304 144.977C227.303 144.974 227.303 144.97 227.302 144.965C227.3 144.955 227.298 144.942 227.295 144.924C227.289 144.888 227.281 144.836 227.269 144.769C227.246 144.634 227.211 144.436 227.164 144.178C227.068 143.663 226.921 142.909 226.711 141.94C226.293 140.003 225.626 137.206 224.629 133.747C222.636 126.829 219.32 117.251 214.027 106.584C203.441 85.2527 184.918 59.5158 153.196 42.0395L151.749 44.6671Z" fill="#102C07"/>
</g>
<g filter="url(#filter6_d_48_135)">
<path d="M96.8232 226.215C95.3232 206.713 110.323 193.213 138.823 202.215M91.8234 217.216C90.3234 197.714 105.323 184.214 133.823 193.216" stroke="#708E5E" stroke-width="2"/>
</g>
<defs>
<filter id="filter0_d_48_135" x="132.823" y="148.716" width="112.881" height="156.76" filterUnits="userSpaceOnUse" color-interpolation-filters="sRGB">
<feFlood flood-opacity="0" result="BackgroundImageFix"/>
<feColorMatrix in="SourceAlpha" type="matrix" values="0 0 0 0 0 0 0 0 0 0 0 0 0 0 0 0 0 0 127 0" result="hardAlpha"/>
<feOffset dy="4"/>
<feGaussianBlur stdDeviation="2"/>
<feComposite in2="hardAlpha" operator="out"/>
<feColorMatrix type="matrix" values="0 0 0 0 0 0 0 0 0 0 0 0 0 0 0 0 0 0 0.25 0"/>
<feBlend mode="normal" in2="BackgroundImageFix" result="effect1_dropShadow_48_135"/>
<feBlend mode="normal" in="SourceGraphic" in2="effect1_dropShadow_48_135" result="shape"/>
</filter>
<filter id="filter1_d_48_135" x="207.823" y="167.716" width="158.263" height="158.263" filterUnits="userSpaceOnUse" color-interpolation-filters="sRGB">
<feFlood flood-opacity="0" result="BackgroundImageFix"/>
<feColorMatrix in="SourceAlpha" type="matrix" values="0 0 0 0 0 0 0 0 0 0 0 0 0 0 0 0 0 0 127 0" result="hardAlpha"/>
<feOffset dy="4"/>
<feGaussianBlur stdDeviation="2"/>
<feComposite in2="hardAlpha" operator="out"/>
<feColorMatrix type="matrix" values="0 0 0 0 0 0 0 0 0 0 0 0 0 0 0 0 0 0 0.25 0"/>
<feBlend mode="normal" in2="BackgroundImageFix" result="effect1_dropShadow_48_135"/>
<feBlend mode="normal" in="SourceGraphic" in2="effect1_dropShadow_48_135" result="shape"/>
</filter>
<filter id="filter2_d_48_135" x="77.6921" y="167.584" width="158.263" height="158.263" filterUnits="userSpaceOnUse" color-interpolation-filters="sRGB">
<feFlood flood-opacity="0" result="BackgroundImageFix"/>
<feColorMatrix in="SourceAlpha" type="matrix" values="0 0 0 0 0 0 0 0 0 0 0 0 0 0 0 0 0 0 127 0" result="hardAlpha"/>
<feOffset dy="4"/>
<feGaussianBlur stdDeviation="2"/>
<feComposite in2="hardAlpha" operator="out"/>
<feColorMatrix type="matrix" values="0 0 0 0 0 0 0 0 0 0 0 0 0 0 0 0 0 0 0.25 0"/>
<feBlend mode="normal" in2="BackgroundImageFix" result="effect1_dropShadow_48_135"/>
<feBlend mode="normal" in="SourceGraphic" in2="effect1_dropShadow_48_135" result="shape"/>
</filter>
<filter id="filter3_d_48_135" x="48.8235" y="262.716" width="338" height="181" filterUnits="userSpaceOnUse" color-interpolation-filters="sRGB">
<feFlood flood-opacity="0" result="BackgroundImageFix"/>
<feColorMatrix in="SourceAlpha" type="matrix" values="0 0 0 0 0 0 0 0 0 0 0 0 0 0 0 0 0 0 127 0" result="hardAlpha"/>
<feOffset dy="4"/>
<feGaussianBlur stdDeviation="2"/>
<feComposite in2="hardAlpha" operator="out"/>
<feColorMatrix type="matrix" values="0 0 0 0 0 0 0 0 0 0 0 0 0 0 0 0 0 0 0.25 0"/>
<feBlend mode="normal" in2="BackgroundImageFix" result="effect1_dropShadow_48_135"/>
<feBlend mode="normal" in="SourceGraphic" in2="effect1_dropShadow_48_135" result="shape"/>
</filter>
<filter id="filter4_d_48_135" x="114.823" y="306.716" width="199" height="93" filterUnits="userSpaceOnUse" color-interpolation-filters="sRGB">
<feFlood flood-opacity="0" result="BackgroundImageFix"/>
<feColorMatrix in="SourceAlpha" type="matrix" values="0 0 0 0 0 0 0 0 0 0 0 0 0 0 0 0 0 0 127 0" result="hardAlpha"/>
<feOffset dy="4"/>
<feGaussianBlur stdDeviation="2"/>
<feComposite in2="hardAlpha" operator="out"/>
<feColorMatrix type="matrix" values="0 0 0 0 0 0 0 0 0 0 0 0 0 0 0 0 0 0 0.25 0"/>
<feBlend mode="normal" in2="BackgroundImageFix" result="effect1_dropShadow_48_135"/>
<feBlend mode="normal" in="SourceGraphic" in2="effect1_dropShadow_48_135" result="shape"/>
</filter>
<filter id="filter5_d_48_135" x="0.476072" y="30.8469" width="238.793" height="123.869" filterUnits="userSpaceOnUse" color-interpolation-filters="sRGB">
<feFlood flood-opacity="0" result="BackgroundImageFix"/>
<feColorMatrix in="SourceAlpha" type="matrix" values="0 0 0 0 0 0 0 0 0 0 0 0 0 0 0 0 0 0 127 0" result="hardAlpha"/>
<feOffset dy="4"/>
<feGaussianBlur stdDeviation="2"/>
<feComposite in2="hardAlpha" operator="out"/>
<feColorMatrix type="matrix" values="0 0 0 0 0 0 0 0 0 0 0 0 0 0 0 0 0 0 0.25 0"/>
<feBlend mode="normal" in2="BackgroundImageFix" result="effect1_dropShadow_48_135"/>
<feBlend mode="normal" in="SourceGraphic" in2="effect1_dropShadow_48_135" result="shape"/>
</filter>
<filter id="filter6_d_48_135" x="86.7211" y="189.366" width="56.4032" height="44.9255" filterUnits="userSpaceOnUse" color-interpolation-filters="sRGB">
<feFlood flood-opacity="0" result="BackgroundImageFix"/>
<feColorMatrix in="SourceAlpha" type="matrix" values="0 0 0 0 0 0 0 0 0 0 0 0 0 0 0 0 0 0 127 0" result="hardAlpha"/>
<feOffset dy="4"/>
<feGaussianBlur stdDeviation="2"/>
<feComposite in2="hardAlpha" operator="out"/>
<feColorMatrix type="matrix" values="0 0 0 0 0 0 0 0 0 0 0 0 0 0 0 0 0 0 0.25 0"/>
<feBlend mode="normal" in2="BackgroundImageFix" result="effect1_dropShadow_48_135"/>
<feBlend mode="normal" in="SourceGraphic" in2="effect1_dropShadow_48_135" result="shape"/>
</filter>
<clipPath id="clip0_48_135">
<rect width="110" height="110" fill="white" transform="translate(211.823 222.716) rotate(-30)"/>
</clipPath>
<clipPath id="clip1_48_135">
<rect width="110" height="110" fill="white" transform="translate(136.692 167.584) rotate(30)"/>
</clipPath>
</defs>
</svg>
