<svg width="288" height="266" viewBox="0 0 288 266" fill="none" xmlns="http://www.w3.org/2000/svg">
<path d="M128.421 15.0851C128.357 15.4477 128.21 15.7384 127.981 15.9571C127.752 16.1757 127.48 16.3251 127.165 16.4051C127.442 16.4531 127.666 16.5837 127.837 16.7971C128.013 17.0051 128.101 17.2584 128.101 17.5571C128.101 17.6424 128.093 17.7251 128.077 17.8051C127.997 18.2477 127.776 18.6104 127.413 18.8931C127.05 19.1704 126.581 19.3091 126.005 19.3091H124.229L125.229 13.6931H126.981C127.472 13.6931 127.837 13.7944 128.077 13.9971C128.322 14.1997 128.445 14.4691 128.445 14.8051C128.445 14.8957 128.437 14.9891 128.421 15.0851ZM126.541 16.2531C126.962 16.2531 127.304 16.1517 127.565 15.9491C127.832 15.7464 127.994 15.4691 128.053 15.1171C128.069 15.0371 128.077 14.9571 128.077 14.8771C128.077 14.6051 127.978 14.3917 127.781 14.2371C127.589 14.0824 127.296 14.0051 126.901 14.0051H125.533L125.133 16.2531H126.541ZM127.717 17.7811C127.733 17.7011 127.741 17.6211 127.741 17.5411C127.741 17.2371 127.626 16.9971 127.397 16.8211C127.168 16.6451 126.853 16.5571 126.453 16.5571H125.077L124.645 19.0051H126.045C126.498 19.0051 126.872 18.8957 127.165 18.6771C127.464 18.4584 127.648 18.1597 127.717 17.7811ZM130.782 19.3731C130.238 19.3731 129.8 19.2157 129.47 18.9011C129.144 18.5864 128.982 18.1597 128.982 17.6211C128.982 17.1304 129.091 16.6771 129.31 16.2611C129.534 15.8451 129.843 15.5171 130.238 15.2771C130.632 15.0317 131.072 14.9091 131.558 14.9091C131.91 14.9091 132.222 14.9811 132.494 15.1251C132.766 15.2637 132.976 15.4664 133.126 15.7331C133.28 15.9944 133.358 16.3037 133.358 16.6611C133.358 17.1517 133.246 17.6051 133.022 18.0211C132.798 18.4371 132.488 18.7677 132.094 19.0131C131.704 19.2531 131.267 19.3731 130.782 19.3731ZM130.83 19.0611C131.246 19.0611 131.616 18.9517 131.942 18.7331C132.272 18.5144 132.528 18.2237 132.71 17.8611C132.896 17.4984 132.99 17.1037 132.99 16.6771C132.99 16.2024 132.848 15.8397 132.566 15.5891C132.283 15.3384 131.928 15.2131 131.502 15.2131C131.08 15.2131 130.707 15.3224 130.382 15.5411C130.056 15.7597 129.803 16.0531 129.622 16.4211C129.44 16.7837 129.35 17.1757 129.35 17.5971C129.35 18.0717 129.488 18.4344 129.766 18.6851C130.048 18.9357 130.403 19.0611 130.83 19.0611ZM135.938 19.3731C135.394 19.3731 134.957 19.2157 134.626 18.9011C134.301 18.5864 134.138 18.1597 134.138 17.6211C134.138 17.1304 134.247 16.6771 134.466 16.2611C134.69 15.8451 134.999 15.5171 135.394 15.2771C135.789 15.0317 136.229 14.9091 136.714 14.9091C137.066 14.9091 137.378 14.9811 137.65 15.1251C137.922 15.2637 138.133 15.4664 138.282 15.7331C138.437 15.9944 138.514 16.3037 138.514 16.6611C138.514 17.1517 138.402 17.6051 138.178 18.0211C137.954 18.4371 137.645 18.7677 137.25 19.0131C136.861 19.2531 136.423 19.3731 135.938 19.3731ZM135.986 19.0611C136.402 19.0611 136.773 18.9517 137.098 18.7331C137.429 18.5144 137.685 18.2237 137.866 17.8611C138.053 17.4984 138.146 17.1037 138.146 16.6771C138.146 16.2024 138.005 15.8397 137.722 15.5891C137.439 15.3384 137.085 15.2131 136.658 15.2131C136.237 15.2131 135.863 15.3224 135.538 15.5411C135.213 15.7597 134.959 16.0531 134.778 16.4211C134.597 16.7837 134.506 17.1757 134.506 17.5971C134.506 18.0717 134.645 18.4344 134.922 18.6851C135.205 18.9357 135.559 19.0611 135.986 19.0611ZM140.182 17.1251L141.926 19.3091H141.43L139.886 17.3171L139.534 19.3091H139.174L140.222 13.3891H140.582L139.958 16.9331L142.166 14.9651H142.67L140.182 17.1251ZM145.562 16.1491L145.506 16.4611H142.498L142.554 16.1491H145.562ZM147.886 13.6931L146.886 19.3091H146.526L147.526 13.6931H147.886ZM150.949 14.8771C151.392 14.8771 151.747 14.9971 152.013 15.2371C152.28 15.4717 152.413 15.8211 152.413 16.2851C152.413 16.4291 152.397 16.5891 152.365 16.7651L151.917 19.3091H151.565L152.013 16.7891C152.04 16.6184 152.053 16.4771 152.053 16.3651C152.053 15.9811 151.947 15.6904 151.733 15.4931C151.52 15.2904 151.221 15.1891 150.837 15.1891C150.389 15.1891 150.003 15.3277 149.677 15.6051C149.352 15.8824 149.128 16.2904 149.005 16.8291L148.565 19.3091H148.205L148.981 14.9651H149.341L149.181 15.8771C149.363 15.5517 149.608 15.3037 149.917 15.1331C150.232 14.9624 150.576 14.8771 150.949 14.8771ZM158.974 17.8691H156.31L155.518 19.3091H155.126L158.158 13.8211H158.558L159.646 19.3091H159.254L158.974 17.8691ZM158.918 17.5731L158.278 14.2851L156.47 17.5731H158.918ZM163.293 14.8771C163.736 14.8771 164.09 14.9971 164.357 15.2371C164.624 15.4717 164.757 15.8211 164.757 16.2851C164.757 16.4291 164.741 16.5891 164.709 16.7651L164.261 19.3091H163.909L164.357 16.7891C164.384 16.6184 164.397 16.4771 164.397 16.3651C164.397 15.9811 164.29 15.6904 164.077 15.4931C163.864 15.2904 163.565 15.1891 163.181 15.1891C162.733 15.1891 162.346 15.3277 162.021 15.6051C161.696 15.8824 161.472 16.2904 161.349 16.8291L160.909 19.3091H160.549L161.325 14.9651H161.685L161.525 15.8771C161.706 15.5517 161.952 15.3037 162.261 15.1331C162.576 14.9624 162.92 14.8771 163.293 14.8771ZM165.694 17.1331C165.774 16.6851 165.931 16.2931 166.166 15.9571C166.406 15.6211 166.702 15.3624 167.054 15.1811C167.406 14.9997 167.784 14.9091 168.19 14.9091C168.643 14.9091 169.008 15.0211 169.286 15.2451C169.568 15.4691 169.744 15.7544 169.814 16.1011L170.014 14.9651H170.374L169.598 19.3091H169.246L169.446 18.1651C169.259 18.5171 168.984 18.8077 168.622 19.0371C168.259 19.2611 167.848 19.3731 167.39 19.3731C166.862 19.3731 166.438 19.2184 166.118 18.9091C165.803 18.5944 165.646 18.1704 165.646 17.6371C165.646 17.4771 165.662 17.3091 165.694 17.1331ZM169.63 17.1331C169.656 16.9731 169.67 16.8317 169.67 16.7091C169.67 16.2557 169.534 15.8957 169.262 15.6291C168.99 15.3571 168.63 15.2211 168.182 15.2211C167.83 15.2211 167.504 15.2984 167.206 15.4531C166.912 15.6024 166.664 15.8211 166.462 16.1091C166.264 16.3971 166.131 16.7384 166.062 17.1331C166.035 17.3091 166.022 17.4584 166.022 17.5811C166.022 18.0451 166.152 18.4077 166.414 18.6691C166.68 18.9251 167.043 19.0531 167.502 19.0531C167.838 19.0531 168.155 18.9757 168.454 18.8211C168.758 18.6611 169.011 18.4371 169.214 18.1491C169.422 17.8557 169.56 17.5171 169.63 17.1331ZM172.324 13.3891L171.276 19.3091H170.916L171.964 13.3891H172.324ZM173.244 14.9651L174.18 18.8611L176.38 14.9651H176.764L173.108 21.3491H172.716L173.892 19.3011L172.852 14.9651H173.244ZM178.159 19.3731C177.711 19.3731 177.354 19.2664 177.087 19.0531C176.826 18.8397 176.711 18.5357 176.743 18.1411H177.103C177.077 18.4237 177.157 18.6504 177.343 18.8211C177.535 18.9864 177.815 19.0691 178.183 19.0691C178.562 19.0691 178.863 18.9864 179.087 18.8211C179.311 18.6504 179.423 18.4317 179.423 18.1651C179.423 18.0051 179.378 17.8717 179.287 17.7651C179.197 17.6584 179.085 17.5731 178.951 17.5091C178.818 17.4451 178.631 17.3704 178.391 17.2851C178.125 17.1944 177.906 17.1064 177.735 17.0211C177.57 16.9357 177.429 16.8184 177.311 16.6691C177.199 16.5144 177.143 16.3197 177.143 16.0851C177.143 15.8557 177.21 15.6531 177.343 15.4771C177.477 15.2957 177.661 15.1571 177.895 15.0611C178.13 14.9597 178.391 14.9091 178.679 14.9091C179.079 14.9091 179.413 15.0131 179.679 15.2211C179.946 15.4237 180.079 15.6931 180.079 16.0291C180.079 16.0984 180.077 16.1517 180.071 16.1891H179.719C179.725 16.1624 179.727 16.1197 179.727 16.0611C179.727 15.8051 179.623 15.5997 179.415 15.4451C179.213 15.2851 178.957 15.2051 178.647 15.2051C178.317 15.2051 178.042 15.2851 177.823 15.4451C177.61 15.5997 177.503 15.8104 177.503 16.0771C177.503 16.2531 177.551 16.3997 177.647 16.5171C177.743 16.6291 177.861 16.7197 177.999 16.7891C178.143 16.8531 178.335 16.9277 178.575 17.0131C178.842 17.1037 179.053 17.1891 179.207 17.2691C179.367 17.3491 179.503 17.4611 179.615 17.6051C179.727 17.7491 179.783 17.9331 179.783 18.1571C179.783 18.5304 179.631 18.8264 179.327 19.0451C179.029 19.2637 178.639 19.3731 178.159 19.3731ZM181.888 13.9971C181.813 13.9971 181.752 13.9757 181.704 13.9331C181.656 13.8851 181.632 13.8237 181.632 13.7491C181.632 13.6424 181.669 13.5544 181.744 13.4851C181.819 13.4104 181.904 13.3731 182 13.3731C182.075 13.3731 182.136 13.3971 182.184 13.4451C182.237 13.4931 182.264 13.5544 182.264 13.6291C182.264 13.7357 182.224 13.8237 182.144 13.8931C182.069 13.9624 181.984 13.9971 181.888 13.9971ZM181.904 14.9651L181.128 19.3091H180.768L181.544 14.9651H181.904ZM183.816 19.3731C183.368 19.3731 183.01 19.2664 182.744 19.0531C182.482 18.8397 182.368 18.5357 182.4 18.1411H182.76C182.733 18.4237 182.813 18.6504 183 18.8211C183.192 18.9864 183.472 19.0691 183.84 19.0691C184.218 19.0691 184.52 18.9864 184.744 18.8211C184.968 18.6504 185.08 18.4317 185.08 18.1651C185.08 18.0051 185.034 17.8717 184.944 17.7651C184.853 17.6584 184.741 17.5731 184.608 17.5091C184.474 17.4451 184.288 17.3704 184.048 17.2851C183.781 17.1944 183.562 17.1064 183.392 17.0211C183.226 16.9357 183.085 16.8184 182.968 16.6691C182.856 16.5144 182.8 16.3197 182.8 16.0851C182.8 15.8557 182.866 15.6531 183 15.4771C183.133 15.2957 183.317 15.1571 183.552 15.0611C183.786 14.9597 184.048 14.9091 184.336 14.9091C184.736 14.9091 185.069 15.0131 185.336 15.2211C185.602 15.4237 185.736 15.6931 185.736 16.0291C185.736 16.0984 185.733 16.1517 185.728 16.1891H185.376C185.381 16.1624 185.384 16.1197 185.384 16.0611C185.384 15.8051 185.28 15.5997 185.072 15.4451C184.869 15.2851 184.613 15.2051 184.304 15.2051C183.973 15.2051 183.698 15.2851 183.48 15.4451C183.266 15.5997 183.16 15.8104 183.16 16.0771C183.16 16.2531 183.208 16.3997 183.304 16.5171C183.4 16.6291 183.517 16.7197 183.656 16.7891C183.8 16.8531 183.992 16.9277 184.232 17.0131C184.498 17.1037 184.709 17.1891 184.864 17.2691C185.024 17.3491 185.16 17.4611 185.272 17.6051C185.384 17.7491 185.44 17.9331 185.44 18.1571C185.44 18.5304 185.288 18.8264 184.984 19.0451C184.685 19.2637 184.296 19.3731 183.816 19.3731Z" fill="#102C07"/>
<path d="M241.599 31.9468L230.159 33.5151L237.237 42.6383L241.599 31.9468ZM157.465 177.309L157.033 178.21L158.004 178.676L158.396 177.673L157.465 177.309ZM96.9647 148.308L97.397 147.407L96.6074 147.028L96.128 147.761L96.9647 148.308ZM202.465 62.3091L201.852 61.519L201.634 61.688L201.534 61.9447L202.465 62.3091ZM40.4464 236.505L97.8015 148.856L96.128 147.761L38.7729 235.41L40.4464 236.505ZM96.5325 149.21L157.033 178.21L157.897 176.407L97.397 147.407L96.5325 149.21ZM158.396 177.673L203.396 62.6735L201.534 61.9447L156.534 176.944L158.396 177.673ZM203.078 63.0992L235.101 38.2538L233.875 36.6736L201.852 61.519L203.078 63.0992Z" fill="#102C07"/>
<path d="M284.9 119.814L279.163 119.169L281.473 124.46L284.9 119.814ZM163.965 86.8097L164.215 87.2424L164.224 87.2375L164.232 87.2322L163.965 86.8097ZM237.965 140.309L237.507 140.51L237.708 140.966L238.165 140.767L237.965 140.309ZM106.965 119.814L106.755 120.268L106.991 120.376L107.215 120.246L106.965 119.814ZM74.4646 104.809L74.6741 104.355L74.2184 104.144L74.0098 104.601L74.4646 104.809ZM203.465 61.8091L203.923 61.6079L203.689 61.0757L203.197 61.3866L203.465 61.8091ZM238.165 140.767L280.977 122.073L280.576 121.156L237.764 139.85L238.165 140.767ZM107.215 120.246L164.215 87.2424L163.714 86.377L106.714 119.381L107.215 120.246ZM54.3552 150.021L74.9193 105.016L74.0098 104.601L53.4457 149.606L54.3552 150.021ZM74.255 105.263L106.755 120.268L107.174 119.36L74.6741 104.355L74.255 105.263ZM164.232 87.2322L203.732 62.2316L203.197 61.3866L163.697 86.3872L164.232 87.2322ZM203.007 62.0103L237.507 140.51L238.422 140.107L203.923 61.6079L203.007 62.0103Z" fill="#9AEA6C"/>
<path d="M25.1876 21.6008C24.7971 21.2103 24.1639 21.2103 23.7734 21.6008L17.4094 27.9648C17.0189 28.3553 17.0189 28.9885 17.4094 29.379C17.7999 29.7695 18.4331 29.7695 18.8236 29.379L24.4805 23.7221L30.1373 29.379C30.5278 29.7695 31.161 29.7695 31.5515 29.379C31.9421 28.9885 31.9421 28.3553 31.5515 27.9648L25.1876 21.6008ZM25.4805 256.31L25.4805 22.3079H23.4805L23.4805 256.31H25.4805Z" fill="#102C07"/>
<path d="M287.672 256.516C288.062 256.126 288.062 255.492 287.672 255.102L281.308 248.738C280.917 248.347 280.284 248.347 279.894 248.738C279.503 249.129 279.503 249.762 279.894 250.152L285.551 255.809L279.894 261.466C279.503 261.856 279.503 262.49 279.894 262.88C280.284 263.271 280.917 263.271 281.308 262.88L287.672 256.516ZM23.9648 256.809H286.965V254.809H23.9648V256.809Z" fill="#102C07"/>
<path d="M262.738 87.864L257.294 89.7857L261.68 93.5398L262.738 87.864ZM104.465 57.8091L104.865 57.5088L104.148 56.5546L103.971 57.7347L104.465 57.8091ZM77.4648 237.309L77.0841 237.633L77.7959 238.469L77.9593 237.383L77.4648 237.309ZM190.465 172.309L190.065 172.609L190.439 173.108L190.845 172.634L190.465 172.309ZM44.3574 199.188L77.0841 237.633L77.8456 236.985L45.1188 198.54L44.3574 199.188ZM77.9593 237.383L104.959 57.8835L103.971 57.7347L76.9704 237.235L77.9593 237.383ZM104.065 58.1094L190.065 172.609L190.865 172.009L104.865 57.5088L104.065 58.1094ZM190.845 172.634L260.192 91.608L259.432 90.9577L190.085 171.984L190.845 172.634Z" fill="#357B1B"/>
</svg>
