<svg width="637" height="414" viewBox="0 0 637 414" fill="none" xmlns="http://www.w3.org/2000/svg">
<g filter="url(#filter0_d_52_234)">
<rect x="45" y="58" width="255" height="276" rx="10" fill="#9AEA6C"/>
<rect x="45.5" y="58.5" width="254" height="275" rx="9.5" stroke="#102C07"/>
</g>
<g filter="url(#filter1_d_52_234)">
<rect x="261" width="336" height="228" rx="10" fill="#C1F4A2"/>
</g>
<path d="M87.9791 200.026C87.9935 197.265 85.7666 195.014 83.0052 195C80.2438 194.986 77.9936 197.212 77.9792 199.974L87.9791 200.026ZM87.4999 292.028L87.9791 200.026L77.9792 199.974L77.5001 291.975L87.4999 292.028Z" fill="#274F18"/>
<path d="M117 163.039C117.021 160.277 114.8 158.022 112.039 158C109.277 157.979 107.022 160.2 107 162.961L117 163.039ZM116 292.042L117 163.039L107 162.961L106 291.964L116 292.042Z" fill="#274F18"/>
<path d="M145 101.013C145.007 98.2517 142.775 96.0072 140.013 96C137.252 95.9928 135.007 98.2255 135 100.987L145 101.013ZM144.5 292.017L145 101.013L135 100.987L134.5 291.991L144.5 292.017Z" fill="#274F18"/>
<path d="M171.997 260.839C171.908 258.079 169.599 255.914 166.839 256.003C164.079 256.092 161.914 258.401 162.003 261.161L171.997 260.839ZM172.997 291.845L171.997 260.839L162.003 261.161L163.003 292.167L172.997 291.845Z" fill="#274F18"/>
<path d="M200.021 152.947C199.992 150.185 197.729 147.971 194.968 148C192.207 148.029 189.992 150.292 190.022 153.053L200.021 152.947ZM201.5 291.954L200.021 152.947L190.022 153.053L191.5 292.061L201.5 291.954Z" fill="#274F18"/>
<path d="M228.999 240.902C228.945 238.141 226.663 235.947 223.902 236.001C221.141 236.055 218.947 238.337 219.001 241.098L228.999 240.902ZM229.999 291.911L228.999 240.902L219.001 241.098L220.001 292.107L229.999 291.911Z" fill="#274F18"/>
<path d="M258.5 130.007C258.5 127.246 256.261 125.007 253.5 125.007C250.739 125.007 248.5 127.246 248.5 130.007H258.5ZM258.5 292.01L258.5 130.007H248.5L248.5 292.01H258.5Z" fill="#274F18"/>
<rect x="83" y="308" width="171" height="12" fill="#2B5D17"/>
<g filter="url(#filter2_d_52_234)">
<path d="M140.454 332C140.454 341.193 138.643 350.295 135.125 358.788C131.608 367.281 126.451 374.997 119.951 381.497C113.451 387.998 105.734 393.154 97.2417 396.672C88.7489 400.189 79.6464 402 70.4539 402C61.2613 402 52.1588 400.189 43.666 396.672C35.1732 393.154 27.4565 387.998 20.9564 381.497C14.4563 374.997 9.30012 367.281 5.78229 358.788C2.26446 350.295 0.453857 341.193 0.453857 332L28.4539 332C28.4539 337.516 29.5402 342.977 31.6509 348.073C33.7616 353.168 36.8553 357.798 40.7554 361.698C44.6554 365.599 49.2855 368.692 54.3811 370.803C59.4768 372.914 64.9383 374 70.4539 374C75.9694 374 81.4309 372.914 86.5266 370.803C91.6222 368.692 96.2523 365.599 100.152 361.698C104.052 357.798 107.146 353.168 109.257 348.073C111.367 342.977 112.454 337.516 112.454 332H140.454Z" fill="#9AEA6C"/>
<path d="M0 332.546C1.31731e-07 321.499 2.61443 310.609 7.62954 300.767C12.6447 290.924 19.918 282.408 28.855 275.915C37.792 269.422 48.1389 265.136 59.0496 263.408C69.9603 261.68 81.1251 262.558 91.6312 265.972L82.9787 292.602C76.6751 290.553 69.9762 290.026 63.4297 291.063C56.8833 292.1 50.6752 294.671 45.313 298.567C39.9508 302.463 35.5868 307.573 32.5777 313.478C29.5687 319.384 28 325.918 28 332.546H0Z" fill="#708E5E"/>
<path d="M90.9199 266.059C105.057 270.381 117.462 279.067 126.358 290.873L103.997 307.724C98.6587 300.64 91.2155 295.428 82.7335 292.835L90.9199 266.059Z" fill="#2B5D17"/>
<path d="M126.358 290.873C135.255 302.679 140.185 316.998 140.443 331.778L112.447 332.267C112.293 323.399 109.334 314.807 103.997 307.724L126.358 290.873Z" fill="#102C07"/>
</g>
<g filter="url(#filter3_d_52_234)">
<rect x="212" y="324" width="299" height="79" rx="10" fill="white" shape-rendering="crispEdges"/>
<rect x="212.5" y="324.5" width="298" height="78" rx="9.5" stroke="#102C07" shape-rendering="crispEdges"/>
<g filter="url(#filter4_d_52_234)">
<path d="M240.755 352.625V348.569H248.867V377H244.382V352.625H240.755ZM260.435 371.657L255.716 382.421H252.83L255.599 371.657H260.435ZM266.192 370.955C268.688 368.797 270.651 367.029 272.081 365.651C273.537 364.247 274.746 362.791 275.708 361.283C276.67 359.775 277.151 358.267 277.151 356.759C277.151 355.199 276.774 353.977 276.02 353.093C275.292 352.209 274.135 351.767 272.549 351.767C271.015 351.767 269.819 352.261 268.961 353.249C268.129 354.211 267.687 355.511 267.635 357.149H263.345C263.423 354.185 264.307 351.923 265.997 350.363C267.713 348.777 269.884 347.984 272.51 347.984C275.344 347.984 277.554 348.764 279.14 350.324C280.752 351.884 281.558 353.964 281.558 356.564C281.558 358.436 281.077 360.243 280.115 361.985C279.179 363.701 278.048 365.248 276.722 366.626C275.422 367.978 273.758 369.551 271.73 371.345L269.975 372.905H282.338V376.61H263.384V373.373L266.192 370.955ZM286.243 362.414C286.243 357.916 286.997 354.406 288.505 351.884C290.039 349.336 292.665 348.062 296.383 348.062C300.101 348.062 302.714 349.336 304.222 351.884C305.756 354.406 306.523 357.916 306.523 362.414C306.523 366.964 305.756 370.526 304.222 373.1C302.714 375.648 300.101 376.922 296.383 376.922C292.665 376.922 290.039 375.648 288.505 373.1C286.997 370.526 286.243 366.964 286.243 362.414ZM302.155 362.414C302.155 360.308 302.012 358.527 301.726 357.071C301.466 355.615 300.92 354.432 300.088 353.522C299.256 352.586 298.021 352.118 296.383 352.118C294.745 352.118 293.51 352.586 292.678 353.522C291.846 354.432 291.287 355.615 291.001 357.071C290.741 358.527 290.611 360.308 290.611 362.414C290.611 364.598 290.741 366.431 291.001 367.913C291.261 369.395 291.807 370.591 292.639 371.501C293.497 372.411 294.745 372.866 296.383 372.866C298.021 372.866 299.256 372.411 300.088 371.501C300.946 370.591 301.505 369.395 301.765 367.913C302.025 366.431 302.155 364.598 302.155 362.414ZM311.228 362.414C311.228 357.916 311.982 354.406 313.49 351.884C315.024 349.336 317.65 348.062 321.368 348.062C325.086 348.062 327.699 349.336 329.207 351.884C330.741 354.406 331.508 357.916 331.508 362.414C331.508 366.964 330.741 370.526 329.207 373.1C327.699 375.648 325.086 376.922 321.368 376.922C317.65 376.922 315.024 375.648 313.49 373.1C311.982 370.526 311.228 366.964 311.228 362.414ZM327.14 362.414C327.14 360.308 326.997 358.527 326.711 357.071C326.451 355.615 325.905 354.432 325.073 353.522C324.241 352.586 323.006 352.118 321.368 352.118C319.73 352.118 318.495 352.586 317.663 353.522C316.831 354.432 316.272 355.615 315.986 357.071C315.726 358.527 315.596 360.308 315.596 362.414C315.596 364.598 315.726 366.431 315.986 367.913C316.246 369.395 316.792 370.591 317.624 371.501C318.482 372.411 319.73 372.866 321.368 372.866C323.006 372.866 324.241 372.411 325.073 371.501C325.931 370.591 326.49 369.395 326.75 367.913C327.01 366.431 327.14 364.598 327.14 362.414ZM357.443 371.96H348.119L346.243 377H344.871L352.095 357.792H353.495L360.691 377H359.319L357.443 371.96ZM357.051 370.896L352.795 359.444L348.511 370.896H357.051ZM365.73 362.888V372.94C365.73 374.06 365.935 374.835 366.346 375.264C366.756 375.675 367.484 375.88 368.53 375.88H370.238V377H368.334C367.008 377 366.028 376.692 365.394 376.076C364.778 375.441 364.47 374.396 364.47 372.94V362.888H362.174V361.796H364.47V357.932H365.73V361.796H370.238V362.888H365.73ZM375.437 362.888V372.94C375.437 374.06 375.642 374.835 376.053 375.264C376.463 375.675 377.191 375.88 378.237 375.88H379.945V377H378.041C376.715 377 375.735 376.692 375.101 376.076C374.485 375.441 374.177 374.396 374.177 372.94V362.888H371.881V361.796H374.177V357.932H375.437V361.796H379.945V362.888H375.437ZM396.96 368.376C396.96 369.048 396.941 369.552 396.904 369.888H383.772C383.809 371.251 384.108 372.399 384.668 373.332C385.228 374.265 385.965 374.965 386.88 375.432C387.794 375.899 388.793 376.132 389.876 376.132C391.369 376.132 392.62 375.768 393.628 375.04C394.636 374.293 395.27 373.285 395.532 372.016H396.848C396.549 373.565 395.784 374.825 394.552 375.796C393.32 376.748 391.761 377.224 389.876 377.224C388.457 377.224 387.188 376.907 386.068 376.272C384.948 375.637 384.07 374.732 383.436 373.556C382.801 372.361 382.484 370.971 382.484 369.384C382.484 367.797 382.792 366.416 383.408 365.24C384.042 364.064 384.92 363.168 386.04 362.552C387.16 361.917 388.438 361.6 389.876 361.6C391.332 361.6 392.592 361.917 393.656 362.552C394.738 363.168 395.56 363.999 396.12 365.044C396.68 366.071 396.96 367.181 396.96 368.376ZM395.7 368.852C395.756 367.508 395.513 366.369 394.972 365.436C394.449 364.503 393.73 363.812 392.816 363.364C391.901 362.897 390.912 362.664 389.848 362.664C388.784 362.664 387.794 362.897 386.88 363.364C385.984 363.812 385.246 364.503 384.668 365.436C384.108 366.369 383.809 367.508 383.772 368.852H395.7ZM407.628 361.488C409.438 361.488 410.913 362.048 412.052 363.168C413.19 364.269 413.76 365.912 413.76 368.096V377H412.528V368.18C412.528 366.369 412.07 364.988 411.156 364.036C410.241 363.065 409 362.58 407.432 362.58C405.789 362.58 404.473 363.103 403.484 364.148C402.513 365.193 402.028 366.743 402.028 368.796V377H400.768V361.796H402.028V365.016C402.457 363.877 403.166 363.009 404.156 362.412C405.164 361.796 406.321 361.488 407.628 361.488ZM417.429 369.384C417.429 367.816 417.737 366.444 418.353 365.268C418.988 364.092 419.856 363.187 420.957 362.552C422.077 361.917 423.346 361.6 424.765 361.6C426.314 361.6 427.658 361.992 428.797 362.776C429.936 363.541 430.738 364.54 431.205 365.772V356.28H432.465V377H431.205V372.968C430.757 374.219 429.973 375.245 428.853 376.048C427.733 376.832 426.37 377.224 424.765 377.224C423.346 377.224 422.077 376.907 420.957 376.272C419.856 375.619 418.988 374.704 418.353 373.528C417.737 372.333 417.429 370.952 417.429 369.384ZM431.205 369.384C431.205 368.059 430.925 366.892 430.365 365.884C429.824 364.857 429.077 364.073 428.125 363.532C427.173 362.972 426.109 362.692 424.933 362.692C423.701 362.692 422.618 362.963 421.685 363.504C420.752 364.027 420.024 364.792 419.501 365.8C418.978 366.808 418.717 368.003 418.717 369.384C418.717 370.765 418.978 371.96 419.501 372.968C420.024 373.976 420.752 374.751 421.685 375.292C422.637 375.833 423.72 376.104 424.933 376.104C426.109 376.104 427.173 375.833 428.125 375.292C429.096 374.732 429.852 373.948 430.393 372.94C430.934 371.913 431.205 370.728 431.205 369.384ZM450.745 368.376C450.745 369.048 450.726 369.552 450.689 369.888H437.557C437.594 371.251 437.893 372.399 438.453 373.332C439.013 374.265 439.75 374.965 440.665 375.432C441.58 375.899 442.578 376.132 443.661 376.132C445.154 376.132 446.405 375.768 447.413 375.04C448.421 374.293 449.056 373.285 449.317 372.016H450.633C450.334 373.565 449.569 374.825 448.337 375.796C447.105 376.748 445.546 377.224 443.661 377.224C442.242 377.224 440.973 376.907 439.853 376.272C438.733 375.637 437.856 374.732 437.221 373.556C436.586 372.361 436.269 370.971 436.269 369.384C436.269 367.797 436.577 366.416 437.193 365.24C437.828 364.064 438.705 363.168 439.825 362.552C440.945 361.917 442.224 361.6 443.661 361.6C445.117 361.6 446.377 361.917 447.441 362.552C448.524 363.168 449.345 363.999 449.905 365.044C450.465 366.071 450.745 367.181 450.745 368.376ZM449.485 368.852C449.541 367.508 449.298 366.369 448.757 365.436C448.234 364.503 447.516 363.812 446.601 363.364C445.686 362.897 444.697 362.664 443.633 362.664C442.569 362.664 441.58 362.897 440.665 363.364C439.769 363.812 439.032 364.503 438.453 365.436C437.893 366.369 437.594 367.508 437.557 368.852H449.485ZM468.245 368.376C468.245 369.048 468.226 369.552 468.189 369.888H455.057C455.094 371.251 455.393 372.399 455.953 373.332C456.513 374.265 457.25 374.965 458.165 375.432C459.08 375.899 460.078 376.132 461.161 376.132C462.654 376.132 463.905 375.768 464.913 375.04C465.921 374.293 466.556 373.285 466.817 372.016H468.133C467.834 373.565 467.069 374.825 465.837 375.796C464.605 376.748 463.046 377.224 461.161 377.224C459.742 377.224 458.473 376.907 457.353 376.272C456.233 375.637 455.356 374.732 454.721 373.556C454.086 372.361 453.769 370.971 453.769 369.384C453.769 367.797 454.077 366.416 454.693 365.24C455.328 364.064 456.205 363.168 457.325 362.552C458.445 361.917 459.724 361.6 461.161 361.6C462.617 361.6 463.877 361.917 464.941 362.552C466.024 363.168 466.845 363.999 467.405 365.044C467.965 366.071 468.245 367.181 468.245 368.376ZM466.985 368.852C467.041 367.508 466.798 366.369 466.257 365.436C465.734 364.503 465.016 363.812 464.101 363.364C463.186 362.897 462.197 362.664 461.133 362.664C460.069 362.664 459.08 362.897 458.165 363.364C457.269 363.812 456.532 364.503 455.953 365.436C455.393 366.369 455.094 367.508 455.057 368.852H466.985ZM477.121 377.224C475.422 377.224 474.032 376.851 472.949 376.104C471.885 375.357 471.288 374.293 471.157 372.912H472.445C472.538 373.901 472.986 374.685 473.789 375.264C474.61 375.843 475.721 376.132 477.121 376.132C478.278 376.132 479.193 375.843 479.865 375.264C480.556 374.667 480.901 373.939 480.901 373.08C480.901 372.483 480.714 371.997 480.341 371.624C479.986 371.232 479.538 370.933 478.997 370.728C478.456 370.523 477.718 370.299 476.785 370.056C475.665 369.757 474.76 369.468 474.069 369.188C473.378 368.889 472.79 368.451 472.305 367.872C471.82 367.293 471.577 366.519 471.577 365.548C471.577 364.839 471.792 364.185 472.221 363.588C472.65 362.972 473.248 362.487 474.013 362.132C474.778 361.777 475.646 361.6 476.617 361.6C478.204 361.6 479.482 362.001 480.453 362.804C481.442 363.588 481.974 364.68 482.049 366.08H480.789C480.733 365.072 480.341 364.251 479.613 363.616C478.885 362.981 477.877 362.664 476.589 362.664C475.506 362.664 474.61 362.944 473.901 363.504C473.192 364.064 472.837 364.745 472.837 365.548C472.837 366.257 473.033 366.836 473.425 367.284C473.836 367.713 474.33 368.049 474.909 368.292C475.506 368.516 476.29 368.759 477.261 369.02C478.325 369.3 479.174 369.58 479.809 369.86C480.462 370.121 481.013 370.513 481.461 371.036C481.909 371.54 482.133 372.221 482.133 373.08C482.133 373.864 481.918 374.573 481.489 375.208C481.06 375.843 480.462 376.337 479.697 376.692C478.932 377.047 478.073 377.224 477.121 377.224Z" fill="#102C07"/>
</g>
</g>
<rect x="292.5" y="21.5" width="271" height="55" rx="9.5" fill="white"/>
<rect x="292.5" y="21.5" width="271" height="55" rx="9.5" stroke="#456D36"/>
<path d="M317.816 45.12C317.336 43.856 316.536 42.848 315.416 42.096C314.312 41.344 313 40.968 311.48 40.968C310.152 40.968 308.952 41.28 307.88 41.904C306.808 42.528 305.96 43.416 305.336 44.568C304.712 45.72 304.4 47.064 304.4 48.6C304.4 50.136 304.712 51.48 305.336 52.632C305.96 53.784 306.808 54.672 307.88 55.296C308.952 55.904 310.152 56.208 311.48 56.208C312.76 56.208 313.92 55.92 314.96 55.344C316 54.768 316.832 53.952 317.456 52.896C318.08 51.824 318.424 50.576 318.488 49.152H310.976V48.24H319.592V48.96C319.544 50.528 319.168 51.936 318.464 53.184C317.76 54.432 316.8 55.408 315.584 56.112C314.368 56.816 313 57.168 311.48 57.168C309.928 57.168 308.528 56.808 307.28 56.088C306.032 55.352 305.056 54.336 304.352 53.04C303.648 51.728 303.296 50.248 303.296 48.6C303.296 46.936 303.648 45.456 304.352 44.16C305.056 42.848 306.032 41.832 307.28 41.112C308.528 40.376 309.928 40.008 311.48 40.008C313.288 40.008 314.848 40.464 316.16 41.376C317.488 42.272 318.456 43.52 319.064 45.12H317.816ZM334.595 49.608C334.595 50.184 334.579 50.616 334.547 50.904H323.291C323.323 52.072 323.579 53.056 324.059 53.856C324.539 54.656 325.171 55.256 325.955 55.656C326.739 56.056 327.595 56.256 328.523 56.256C329.803 56.256 330.875 55.944 331.739 55.32C332.603 54.68 333.147 53.816 333.371 52.728H334.499C334.243 54.056 333.587 55.136 332.531 55.968C331.475 56.784 330.139 57.192 328.523 57.192C327.307 57.192 326.219 56.92 325.259 56.376C324.299 55.832 323.547 55.056 323.003 54.048C322.459 53.024 322.187 51.832 322.187 50.472C322.187 49.112 322.451 47.928 322.979 46.92C323.523 45.912 324.275 45.144 325.235 44.616C326.195 44.072 327.291 43.8 328.523 43.8C329.771 43.8 330.851 44.072 331.763 44.616C332.691 45.144 333.395 45.856 333.875 46.752C334.355 47.632 334.595 48.584 334.595 49.608ZM333.515 50.016C333.563 48.864 333.355 47.888 332.891 47.088C332.443 46.288 331.827 45.696 331.043 45.312C330.259 44.912 329.411 44.712 328.499 44.712C327.587 44.712 326.739 44.912 325.955 45.312C325.187 45.696 324.555 46.288 324.059 47.088C323.579 47.888 323.323 48.864 323.291 50.016H333.515ZM343.739 43.704C345.291 43.704 346.555 44.184 347.531 45.144C348.507 46.088 348.995 47.496 348.995 49.368V57H347.939V49.44C347.939 47.888 347.547 46.704 346.763 45.888C345.979 45.056 344.915 44.64 343.571 44.64C342.163 44.64 341.035 45.088 340.187 45.984C339.355 46.88 338.939 48.208 338.939 49.968V57H337.859V43.968H338.939V46.728C339.307 45.752 339.915 45.008 340.763 44.496C341.627 43.968 342.619 43.704 343.739 43.704ZM364.548 49.608C364.548 50.184 364.532 50.616 364.5 50.904H353.244C353.276 52.072 353.532 53.056 354.012 53.856C354.492 54.656 355.124 55.256 355.908 55.656C356.692 56.056 357.548 56.256 358.476 56.256C359.756 56.256 360.828 55.944 361.692 55.32C362.556 54.68 363.1 53.816 363.324 52.728H364.452C364.196 54.056 363.54 55.136 362.484 55.968C361.428 56.784 360.092 57.192 358.476 57.192C357.26 57.192 356.172 56.92 355.212 56.376C354.252 55.832 353.5 55.056 352.956 54.048C352.412 53.024 352.14 51.832 352.14 50.472C352.14 49.112 352.404 47.928 352.932 46.92C353.476 45.912 354.228 45.144 355.188 44.616C356.148 44.072 357.244 43.8 358.476 43.8C359.724 43.8 360.804 44.072 361.716 44.616C362.644 45.144 363.348 45.856 363.828 46.752C364.308 47.632 364.548 48.584 364.548 49.608ZM363.468 50.016C363.516 48.864 363.308 47.888 362.844 47.088C362.396 46.288 361.78 45.696 360.996 45.312C360.212 44.912 359.364 44.712 358.452 44.712C357.54 44.712 356.692 44.912 355.908 45.312C355.14 45.696 354.508 46.288 354.012 47.088C353.532 47.888 353.276 48.864 353.244 50.016H363.468ZM368.892 46.656C369.212 45.696 369.78 44.968 370.596 44.472C371.412 43.96 372.452 43.704 373.716 43.704V44.832H373.356C372.076 44.832 371.012 45.2 370.164 45.936C369.316 46.656 368.892 47.84 368.892 49.488V57H367.812V43.968H368.892V46.656ZM375.53 50.472C375.53 49.128 375.794 47.952 376.322 46.944C376.866 45.936 377.61 45.16 378.554 44.616C379.514 44.072 380.602 43.8 381.818 43.8C383.194 43.8 384.362 44.136 385.322 44.808C386.282 45.48 386.954 46.336 387.338 47.376V43.968H388.418V57H387.338V53.568C386.954 54.624 386.274 55.496 385.298 56.184C384.338 56.856 383.178 57.192 381.818 57.192C380.602 57.192 379.514 56.92 378.554 56.376C377.61 55.816 376.866 55.032 376.322 54.024C375.794 53 375.53 51.816 375.53 50.472ZM387.338 50.472C387.338 49.336 387.098 48.336 386.618 47.472C386.154 46.592 385.514 45.92 384.698 45.456C383.882 44.976 382.97 44.736 381.962 44.736C380.906 44.736 379.978 44.968 379.178 45.432C378.378 45.88 377.754 46.536 377.306 47.4C376.858 48.264 376.634 49.288 376.634 50.472C376.634 51.656 376.858 52.68 377.306 53.544C377.754 54.408 378.378 55.072 379.178 55.536C379.994 56 380.922 56.232 381.962 56.232C382.97 56.232 383.882 56 384.698 55.536C385.53 55.056 386.178 54.384 386.642 53.52C387.106 52.64 387.338 51.624 387.338 50.472ZM393.959 44.904V53.52C393.959 54.48 394.135 55.144 394.487 55.512C394.839 55.864 395.463 56.04 396.359 56.04H397.823V57H396.191C395.055 57 394.215 56.736 393.671 56.208C393.143 55.664 392.879 54.768 392.879 53.52V44.904H390.911V43.968H392.879V40.656H393.959V43.968H397.823V44.904H393.959ZM412.407 49.608C412.407 50.184 412.391 50.616 412.359 50.904H401.103C401.135 52.072 401.391 53.056 401.871 53.856C402.351 54.656 402.983 55.256 403.767 55.656C404.551 56.056 405.407 56.256 406.335 56.256C407.615 56.256 408.687 55.944 409.551 55.32C410.415 54.68 410.959 53.816 411.183 52.728H412.311C412.055 54.056 411.399 55.136 410.343 55.968C409.287 56.784 407.951 57.192 406.335 57.192C405.119 57.192 404.031 56.92 403.071 56.376C402.111 55.832 401.359 55.056 400.815 54.048C400.271 53.024 399.999 51.832 399.999 50.472C399.999 49.112 400.263 47.928 400.791 46.92C401.335 45.912 402.087 45.144 403.047 44.616C404.007 44.072 405.103 43.8 406.335 43.8C407.583 43.8 408.663 44.072 409.575 44.616C410.503 45.144 411.207 45.856 411.687 46.752C412.167 47.632 412.407 48.584 412.407 49.608ZM411.327 50.016C411.375 48.864 411.167 47.888 410.703 47.088C410.255 46.288 409.639 45.696 408.855 45.312C408.071 44.912 407.223 44.712 406.311 44.712C405.399 44.712 404.551 44.912 403.767 45.312C402.999 45.696 402.367 46.288 401.871 47.088C401.391 47.888 401.135 48.864 401.103 50.016H411.327ZM431.757 40.152V41.064H426.957V57H425.877V41.064H421.077V40.152H431.757ZM434.879 41.064C434.623 41.064 434.407 40.984 434.231 40.824C434.055 40.648 433.967 40.416 433.967 40.128C433.967 39.856 434.055 39.632 434.231 39.456C434.407 39.28 434.623 39.192 434.879 39.192C435.135 39.192 435.351 39.28 435.527 39.456C435.703 39.632 435.791 39.856 435.791 40.128C435.791 40.416 435.703 40.648 435.527 40.824C435.351 40.984 435.135 41.064 434.879 41.064ZM435.407 43.968V57H434.327V43.968H435.407ZM438.694 50.472C438.694 49.112 438.958 47.928 439.486 46.92C440.03 45.912 440.774 45.144 441.718 44.616C442.678 44.072 443.774 43.8 445.006 43.8C446.638 43.8 447.974 44.208 449.014 45.024C450.07 45.84 450.726 46.936 450.982 48.312H449.854C449.646 47.192 449.102 46.312 448.222 45.672C447.358 45.032 446.286 44.712 445.006 44.712C444.046 44.712 443.174 44.928 442.39 45.36C441.606 45.776 440.974 46.424 440.494 47.304C440.03 48.168 439.798 49.224 439.798 50.472C439.798 51.736 440.03 52.8 440.494 53.664C440.974 54.528 441.606 55.176 442.39 55.608C443.174 56.04 444.046 56.256 445.006 56.256C446.286 56.256 447.358 55.936 448.222 55.296C449.102 54.656 449.646 53.776 449.854 52.656H450.982C450.726 54.016 450.07 55.112 449.014 55.944C447.958 56.776 446.622 57.192 445.006 57.192C443.774 57.192 442.678 56.92 441.718 56.376C440.774 55.832 440.03 55.056 439.486 54.048C438.958 53.024 438.694 51.832 438.694 50.472ZM461.041 57L455.353 51.024V57H454.273V39.24H455.353V49.872L460.945 43.968H462.457L456.145 50.448L462.529 57H461.041ZM476.485 49.608C476.485 50.184 476.469 50.616 476.437 50.904H465.181C465.213 52.072 465.469 53.056 465.949 53.856C466.429 54.656 467.061 55.256 467.845 55.656C468.629 56.056 469.485 56.256 470.413 56.256C471.693 56.256 472.765 55.944 473.629 55.32C474.493 54.68 475.037 53.816 475.261 52.728H476.389C476.133 54.056 475.477 55.136 474.421 55.968C473.365 56.784 472.029 57.192 470.413 57.192C469.197 57.192 468.109 56.92 467.149 56.376C466.189 55.832 465.437 55.056 464.893 54.048C464.349 53.024 464.077 51.832 464.077 50.472C464.077 49.112 464.341 47.928 464.869 46.92C465.413 45.912 466.165 45.144 467.125 44.616C468.085 44.072 469.181 43.8 470.413 43.8C471.661 43.8 472.741 44.072 473.653 44.616C474.581 45.144 475.285 45.856 475.765 46.752C476.245 47.632 476.485 48.584 476.485 49.608ZM475.405 50.016C475.453 48.864 475.245 47.888 474.781 47.088C474.333 46.288 473.717 45.696 472.933 45.312C472.149 44.912 471.301 44.712 470.389 44.712C469.477 44.712 468.629 44.912 467.845 45.312C467.077 45.696 466.445 46.288 465.949 47.088C465.469 47.888 465.213 48.864 465.181 50.016H475.405ZM481.357 44.904V53.52C481.357 54.48 481.533 55.144 481.885 55.512C482.237 55.864 482.861 56.04 483.757 56.04H485.221V57H483.589C482.453 57 481.613 56.736 481.069 56.208C480.541 55.664 480.277 54.768 480.277 53.52V44.904H478.309V43.968H480.277V40.656H481.357V43.968H485.221V44.904H481.357ZM492.414 57.192C490.958 57.192 489.766 56.872 488.838 56.232C487.926 55.592 487.414 54.68 487.302 53.496H488.406C488.486 54.344 488.87 55.016 489.558 55.512C490.262 56.008 491.214 56.256 492.414 56.256C493.406 56.256 494.19 56.008 494.766 55.512C495.358 55 495.654 54.376 495.654 53.64C495.654 53.128 495.494 52.712 495.174 52.392C494.87 52.056 494.486 51.8 494.022 51.624C493.558 51.448 492.926 51.256 492.126 51.048C491.166 50.792 490.39 50.544 489.798 50.304C489.206 50.048 488.702 49.672 488.286 49.176C487.87 48.68 487.662 48.016 487.662 47.184C487.662 46.576 487.846 46.016 488.214 45.504C488.582 44.976 489.094 44.56 489.75 44.256C490.406 43.952 491.15 43.8 491.982 43.8C493.342 43.8 494.438 44.144 495.27 44.832C496.118 45.504 496.574 46.44 496.638 47.64H495.558C495.51 46.776 495.174 46.072 494.55 45.528C493.926 44.984 493.062 44.712 491.958 44.712C491.03 44.712 490.262 44.952 489.654 45.432C489.046 45.912 488.742 46.496 488.742 47.184C488.742 47.792 488.91 48.288 489.246 48.672C489.598 49.04 490.022 49.328 490.518 49.536C491.03 49.728 491.702 49.936 492.534 50.16C493.446 50.4 494.174 50.64 494.718 50.88C495.278 51.104 495.75 51.44 496.134 51.888C496.518 52.32 496.71 52.904 496.71 53.64C496.71 54.312 496.526 54.92 496.158 55.464C495.79 56.008 495.278 56.432 494.622 56.736C493.966 57.04 493.23 57.192 492.414 57.192Z" fill="#102C07"/>
<rect x="524" y="34" width="30" height="30" rx="15" fill="#102C07"/>
<path d="M544.569 43.3187C544.833 43.0672 545.184 42.9282 545.549 42.9309C545.914 42.9337 546.263 43.078 546.523 43.3335C546.784 43.5889 546.935 43.9354 546.944 44.3C546.954 44.6645 546.821 45.0186 546.575 45.2874L539.094 54.6437C538.965 54.7822 538.81 54.8934 538.637 54.9706C538.465 55.0478 538.278 55.0894 538.089 55.0929C537.9 55.0964 537.712 55.0617 537.537 54.991C537.362 54.9202 537.202 54.8149 537.069 54.6812L532.108 49.7199C531.969 49.5912 531.859 49.4359 531.782 49.2634C531.705 49.0909 531.663 48.9047 531.66 48.7159C531.657 48.5271 531.692 48.3395 531.762 48.1644C531.833 47.9893 531.938 47.8303 532.072 47.6967C532.205 47.5632 532.364 47.4579 532.54 47.3872C532.715 47.3165 532.902 47.2817 533.091 47.2851C533.28 47.2884 533.466 47.3297 533.639 47.4066C533.811 47.4834 533.966 47.5943 534.095 47.7324L538.021 51.6568L544.533 43.3599L544.569 43.3187Z" fill="#9AEA6C"/>
<rect x="362.641" y="120.328" width="271" height="55" rx="9.5" transform="rotate(-20 362.641 120.328)" fill="white"/>
<rect x="362.641" y="120.328" width="271" height="55" rx="9.5" transform="rotate(-20 362.641 120.328)" stroke="#456D36"/>
<path d="M390.195 148.257C389.172 148.629 388.212 148.774 387.314 148.692C386.416 148.61 385.637 148.341 384.976 147.883C384.331 147.42 383.841 146.823 383.507 146.093L384.567 145.707C384.989 146.491 385.64 147.088 386.522 147.499C387.419 147.905 388.536 147.864 389.875 147.377C390.656 147.092 391.281 146.703 391.748 146.21C392.231 145.711 392.539 145.156 392.675 144.545C392.81 143.933 392.768 143.327 392.549 142.726C392.27 141.959 391.86 141.418 391.32 141.104C390.795 140.785 390.214 140.613 389.575 140.59C388.952 140.562 388.128 140.589 387.102 140.673C385.982 140.774 385.056 140.805 384.326 140.764C383.611 140.718 382.934 140.496 382.296 140.098C381.667 139.68 381.175 138.982 380.819 138.005C380.545 137.253 380.492 136.498 380.658 135.739C380.835 134.96 381.225 134.256 381.831 133.627C382.436 132.998 383.22 132.508 384.182 132.158C385.58 131.649 386.834 131.585 387.943 131.964C389.051 132.344 389.872 133.007 390.404 133.955L389.321 134.349C389.083 133.975 388.73 133.636 388.261 133.33C387.807 133.018 387.245 132.831 386.575 132.768C385.915 132.685 385.194 132.786 384.412 133.071C383.36 133.454 382.579 134.07 382.071 134.919C381.557 135.753 381.475 136.651 381.826 137.613C382.105 138.38 382.517 138.928 383.063 139.257C383.603 139.571 384.187 139.75 384.816 139.794C385.454 139.817 386.283 139.779 387.303 139.68C388.444 139.588 389.365 139.568 390.065 139.62C390.774 139.651 391.444 139.876 392.073 140.294C392.711 140.692 393.205 141.372 393.556 142.334C393.813 143.04 393.868 143.778 393.722 144.546C393.576 145.315 393.209 146.036 392.62 146.71C392.041 147.363 391.232 147.879 390.195 148.257ZM406.547 134.26C406.744 134.801 406.876 135.212 406.945 135.494L396.368 139.344C396.797 140.43 397.374 141.267 398.099 141.855C398.824 142.443 399.623 142.79 400.496 142.898C401.37 143.006 402.243 142.901 403.115 142.584C404.317 142.146 405.218 141.486 405.817 140.604C406.41 139.707 406.625 138.709 406.464 137.61L407.524 137.224C407.737 138.56 407.49 139.799 406.782 140.942C406.069 142.07 404.953 142.91 403.435 143.463C402.292 143.879 401.177 143.996 400.089 143.813C399 143.63 398.028 143.158 397.172 142.397C396.311 141.62 395.648 140.593 395.182 139.315C394.717 138.037 394.56 136.835 394.712 135.707C394.878 134.573 395.322 133.595 396.044 132.77C396.76 131.931 397.697 131.3 398.854 130.879C400.027 130.452 401.135 130.338 402.178 130.537C403.231 130.716 404.136 131.144 404.893 131.822C405.645 132.485 406.196 133.297 406.547 134.26ZM405.671 135.013C405.322 133.914 404.793 133.068 404.084 132.475C403.389 131.876 402.608 131.53 401.74 131.438C400.866 131.33 400.001 131.432 399.144 131.744C398.287 132.056 397.558 132.534 396.958 133.178C396.368 133.801 395.977 134.574 395.784 135.495C395.607 136.411 395.7 137.416 396.064 138.509L405.671 135.013ZM413.12 125.584C414.578 125.054 415.93 125.072 417.176 125.641C418.416 126.194 419.356 127.35 419.996 129.109L422.606 136.281L421.614 136.642L419.028 129.538C418.498 128.08 417.724 127.101 416.709 126.602C415.687 126.089 414.545 126.062 413.282 126.521C411.959 127.003 411.052 127.81 410.562 128.942C410.087 130.068 410.15 131.458 410.752 133.112L413.157 139.72L412.142 140.09L407.685 127.844L408.7 127.474L409.644 130.068C409.656 129.025 409.973 128.118 410.594 127.346C411.226 126.555 412.067 125.967 413.12 125.584ZM423.329 129.071C422.87 127.808 422.715 126.613 422.867 125.485C423.033 124.351 423.467 123.368 424.168 122.534C424.884 121.694 425.813 121.066 426.956 120.651C428.204 120.196 429.401 120.118 430.548 120.416C431.69 120.698 432.629 121.267 433.366 122.123L430.584 114.478L431.598 114.108L437.673 130.797L436.658 131.167L435.476 127.919C435.482 129.058 435.151 130.114 434.484 131.089C433.812 132.049 432.829 132.764 431.536 133.235C430.394 133.651 429.278 133.767 428.19 133.585C427.112 133.381 426.144 132.899 425.288 132.138C424.442 131.356 423.789 130.334 423.329 129.071ZM434.425 125.032C434.037 123.965 433.469 123.107 432.722 122.459C431.985 121.791 431.154 121.379 430.229 121.222C429.298 121.05 428.359 121.136 427.411 121.481C426.419 121.842 425.626 122.377 425.033 123.087C424.435 123.782 424.073 124.612 423.947 125.577C423.822 126.542 423.962 127.581 424.367 128.693C424.772 129.806 425.332 130.691 426.049 131.35C426.765 132.009 427.579 132.419 428.489 132.582C429.415 132.739 430.366 132.639 431.343 132.284C432.291 131.939 433.068 131.409 433.676 130.694C434.294 129.958 434.673 129.105 434.814 128.134C434.949 127.149 434.819 126.115 434.425 125.032ZM449.662 109.475L452.067 116.083L458.382 113.784L458.694 114.641L452.379 116.94L454.801 123.593L461.792 121.048L462.104 121.905L454.098 124.819L448.336 108.987L456.342 106.073L456.654 106.93L449.662 109.475ZM475.107 103.023C476.506 102.514 477.812 102.549 479.028 103.128C480.238 103.692 481.163 104.854 481.803 106.613L484.413 113.785L483.421 114.146L480.835 107.042C480.305 105.584 479.546 104.6 478.561 104.09C477.584 103.56 476.487 103.517 475.27 103.96C474.007 104.42 473.15 105.225 472.701 106.376C472.252 107.527 472.328 108.93 472.93 110.584L475.302 117.101L474.31 117.462L471.724 110.358C471.193 108.9 470.435 107.916 469.449 107.406C468.473 106.876 467.376 106.833 466.158 107.276C464.895 107.736 464.039 108.541 463.59 109.692C463.14 110.843 463.217 112.246 463.819 113.9L466.191 120.417L465.176 120.787L460.719 108.541L461.734 108.171L462.702 110.833C462.698 109.744 462.991 108.82 463.583 108.06C464.184 107.279 464.989 106.706 465.996 106.339C467.109 105.934 468.17 105.88 469.18 106.176C470.2 106.452 471.066 107.099 471.777 108.117C471.652 106.886 471.899 105.834 472.518 104.961C473.132 104.074 473.995 103.428 475.107 103.023ZM485.151 106.57C484.691 105.307 484.537 104.111 484.688 102.984C484.855 101.85 485.288 100.867 485.989 100.033C486.706 99.193 487.635 98.5653 488.778 98.1494C490.071 97.6788 491.283 97.595 492.415 97.8982C493.547 98.2013 494.471 98.7758 495.188 99.6218L494.022 96.4193L495.037 96.0499L499.494 108.296L498.479 108.665L497.306 105.44C497.306 106.564 496.965 107.616 496.283 108.596C495.611 109.556 494.636 110.269 493.358 110.734C492.215 111.15 491.1 111.266 490.012 111.083C488.933 110.88 487.966 110.398 487.11 109.637C486.263 108.855 485.61 107.833 485.151 106.57ZM496.247 102.531C495.858 101.464 495.291 100.606 494.544 99.9583C493.807 99.29 492.976 98.8774 492.05 98.7205C491.119 98.5486 490.18 98.6349 489.233 98.9797C488.241 99.3409 487.448 99.8763 486.855 100.586C486.256 101.281 485.894 102.11 485.769 103.075C485.643 104.041 485.783 105.079 486.188 106.192C486.593 107.305 487.154 108.19 487.87 108.849C488.587 109.508 489.4 109.918 490.311 110.081C491.236 110.237 492.188 110.138 493.165 109.782C494.112 109.438 494.89 108.908 495.498 108.193C496.115 107.457 496.495 106.604 496.635 105.633C496.77 104.648 496.641 103.614 496.247 102.531ZM498.258 91.7873C498.017 91.8749 497.787 91.8736 497.567 91.7834C497.341 91.6782 497.179 91.4903 497.081 91.2197C496.988 90.9641 496.994 90.7235 497.099 90.4979C497.204 90.2723 497.377 90.1158 497.617 90.0282C497.858 89.9406 498.091 89.9495 498.317 90.0546C498.542 90.1598 498.702 90.3402 498.795 90.5958C498.893 90.8665 498.89 91.1146 498.785 91.3401C498.674 91.5507 498.498 91.6997 498.258 91.7873ZM499.747 94.3356L504.204 106.582L503.189 106.951L498.732 94.705L499.747 94.3356ZM502.865 88.1693L508.94 104.858L507.925 105.228L501.85 88.5386L502.865 88.1693Z" fill="#102C07"/>
<rect x="584.455" y="52.8967" width="30" height="30" rx="15" transform="rotate(-20 584.455 52.8967)" fill="#102C07"/>
<path d="M606.97 54.6185C607.133 54.2919 607.415 54.041 607.759 53.9189C608.103 53.7967 608.48 53.8129 608.812 53.9639C609.144 54.1149 609.404 54.3889 609.538 54.7282C609.672 55.0675 609.669 55.4454 609.529 55.7823L605.699 67.1331C605.625 67.3073 605.518 67.4649 605.382 67.5964C605.246 67.728 605.085 67.8308 604.909 67.8987C604.732 67.9667 604.544 67.9984 604.355 67.9919C604.166 67.9853 603.98 67.9408 603.809 67.8609L597.45 64.8957C597.276 64.822 597.119 64.714 596.988 64.5782C596.856 64.4424 596.754 64.2815 596.686 64.1052C596.619 63.9289 596.587 63.7408 596.594 63.5521C596.6 63.3633 596.645 63.1779 596.724 63.0067C596.804 62.8356 596.918 62.6822 597.058 62.5559C597.198 62.4295 597.363 62.3327 597.541 62.2713C597.72 62.2098 597.909 62.185 598.097 62.1982C598.286 62.2115 598.47 62.2625 598.638 62.3483L603.67 64.6931L606.951 54.6694L606.97 54.6185Z" fill="#9AEA6C"/>
<rect x="292.5" y="151.5" width="271" height="55" rx="9.5" fill="white"/>
<rect x="292.5" y="151.5" width="271" height="55" rx="9.5" stroke="#456D36"/>
<path d="M313.52 182.68H305.528L303.92 187H302.744L308.936 170.536H310.136L316.304 187H315.128L313.52 182.68ZM313.184 181.768L309.536 171.952L305.864 181.768H313.184ZM320.095 169.24V187H319.015V169.24H320.095ZM325.134 169.24V187H324.054V169.24H325.134ZM334.829 187.192C333.613 187.192 332.517 186.92 331.541 186.376C330.565 185.832 329.797 185.056 329.237 184.048C328.693 183.024 328.421 181.832 328.421 180.472C328.421 179.128 328.701 177.952 329.261 176.944C329.821 175.92 330.589 175.144 331.565 174.616C332.557 174.072 333.661 173.8 334.877 173.8C336.093 173.8 337.189 174.072 338.165 174.616C339.141 175.144 339.901 175.912 340.445 176.92C341.005 177.928 341.285 179.112 341.285 180.472C341.285 181.832 341.005 183.024 340.445 184.048C339.885 185.056 339.109 185.832 338.117 186.376C337.141 186.92 336.045 187.192 334.829 187.192ZM334.829 186.232C335.773 186.232 336.653 186.024 337.469 185.608C338.301 185.176 338.965 184.528 339.461 183.664C339.957 182.8 340.205 181.736 340.205 180.472C340.205 179.224 339.957 178.168 339.461 177.304C338.965 176.44 338.309 175.8 337.493 175.384C336.677 174.952 335.797 174.736 334.853 174.736C333.909 174.736 333.029 174.952 332.213 175.384C331.413 175.8 330.765 176.44 330.269 177.304C329.773 178.168 329.525 179.224 329.525 180.472C329.525 181.736 329.765 182.8 330.245 183.664C330.741 184.528 331.389 185.176 332.189 185.608C333.005 186.024 333.885 186.232 334.829 186.232ZM361.602 173.968L357.498 187H356.466L352.314 175.456L348.138 187H347.106L343.002 173.968H344.13L347.634 185.776L351.81 173.968H352.842L356.994 185.728L360.498 173.968H361.602ZM379.837 187L375.517 179.824H375.421H371.821V187H370.741V170.152H375.373C377.245 170.152 378.645 170.592 379.573 171.472C380.517 172.352 380.989 173.52 380.989 174.976C380.989 176.272 380.621 177.344 379.885 178.192C379.165 179.024 378.109 179.536 376.717 179.728L381.133 187H379.837ZM371.821 178.912H375.421C376.909 178.912 378.021 178.552 378.757 177.832C379.493 177.112 379.861 176.16 379.861 174.976C379.861 172.4 378.365 171.112 375.373 171.112H371.821V178.912ZM395.931 179.608C395.931 180.184 395.915 180.616 395.883 180.904H384.627C384.659 182.072 384.915 183.056 385.395 183.856C385.875 184.656 386.507 185.256 387.291 185.656C388.075 186.056 388.931 186.256 389.859 186.256C391.139 186.256 392.211 185.944 393.075 185.32C393.939 184.68 394.483 183.816 394.707 182.728H395.835C395.579 184.056 394.923 185.136 393.867 185.968C392.811 186.784 391.475 187.192 389.859 187.192C388.643 187.192 387.555 186.92 386.595 186.376C385.635 185.832 384.883 185.056 384.339 184.048C383.795 183.024 383.523 181.832 383.523 180.472C383.523 179.112 383.787 177.928 384.315 176.92C384.859 175.912 385.611 175.144 386.571 174.616C387.531 174.072 388.627 173.8 389.859 173.8C391.107 173.8 392.187 174.072 393.099 174.616C394.027 175.144 394.731 175.856 395.211 176.752C395.691 177.632 395.931 178.584 395.931 179.608ZM394.851 180.016C394.899 178.864 394.691 177.888 394.227 177.088C393.779 176.288 393.163 175.696 392.379 175.312C391.595 174.912 390.747 174.712 389.835 174.712C388.923 174.712 388.075 174.912 387.291 175.312C386.523 175.696 385.891 176.288 385.395 177.088C384.915 177.888 384.659 178.864 384.627 180.016H394.851ZM403.539 187.192C402.083 187.192 400.891 186.872 399.963 186.232C399.051 185.592 398.539 184.68 398.427 183.496H399.531C399.611 184.344 399.995 185.016 400.683 185.512C401.387 186.008 402.339 186.256 403.539 186.256C404.531 186.256 405.315 186.008 405.891 185.512C406.483 185 406.779 184.376 406.779 183.64C406.779 183.128 406.619 182.712 406.299 182.392C405.995 182.056 405.611 181.8 405.147 181.624C404.683 181.448 404.051 181.256 403.251 181.048C402.291 180.792 401.515 180.544 400.923 180.304C400.331 180.048 399.827 179.672 399.411 179.176C398.995 178.68 398.787 178.016 398.787 177.184C398.787 176.576 398.971 176.016 399.339 175.504C399.707 174.976 400.219 174.56 400.875 174.256C401.531 173.952 402.275 173.8 403.107 173.8C404.467 173.8 405.563 174.144 406.395 174.832C407.243 175.504 407.699 176.44 407.763 177.64H406.683C406.635 176.776 406.299 176.072 405.675 175.528C405.051 174.984 404.187 174.712 403.083 174.712C402.155 174.712 401.387 174.952 400.779 175.432C400.171 175.912 399.867 176.496 399.867 177.184C399.867 177.792 400.035 178.288 400.371 178.672C400.723 179.04 401.147 179.328 401.643 179.536C402.155 179.728 402.827 179.936 403.659 180.16C404.571 180.4 405.299 180.64 405.843 180.88C406.403 181.104 406.875 181.44 407.259 181.888C407.643 182.32 407.835 182.904 407.835 183.64C407.835 184.312 407.651 184.92 407.283 185.464C406.915 186.008 406.403 186.432 405.747 186.736C405.091 187.04 404.355 187.192 403.539 187.192ZM412.204 177.4C412.572 176.344 413.236 175.48 414.196 174.808C415.172 174.136 416.348 173.8 417.724 173.8C418.94 173.8 420.02 174.072 420.964 174.616C421.924 175.16 422.668 175.936 423.196 176.944C423.74 177.952 424.012 179.128 424.012 180.472C424.012 181.816 423.74 183 423.196 184.024C422.668 185.032 421.924 185.816 420.964 186.376C420.02 186.92 418.94 187.192 417.724 187.192C416.364 187.192 415.196 186.856 414.22 186.184C413.26 185.496 412.588 184.632 412.204 183.592V193.144H411.124V173.968H412.204V177.4ZM422.908 180.472C422.908 179.288 422.684 178.264 422.236 177.4C421.788 176.536 421.156 175.88 420.34 175.432C419.54 174.968 418.612 174.736 417.556 174.736C416.548 174.736 415.636 174.976 414.82 175.456C414.004 175.92 413.364 176.592 412.9 177.472C412.436 178.336 412.204 179.336 412.204 180.472C412.204 181.624 412.436 182.64 412.9 183.52C413.364 184.384 414.004 185.056 414.82 185.536C415.636 186 416.548 186.232 417.556 186.232C418.612 186.232 419.54 186 420.34 185.536C421.156 185.072 421.788 184.408 422.236 183.544C422.684 182.68 422.908 181.656 422.908 180.472ZM433.009 187.192C431.793 187.192 430.697 186.92 429.721 186.376C428.745 185.832 427.977 185.056 427.417 184.048C426.873 183.024 426.601 181.832 426.601 180.472C426.601 179.128 426.881 177.952 427.441 176.944C428.001 175.92 428.769 175.144 429.745 174.616C430.737 174.072 431.841 173.8 433.057 173.8C434.273 173.8 435.369 174.072 436.345 174.616C437.321 175.144 438.081 175.912 438.625 176.92C439.185 177.928 439.465 179.112 439.465 180.472C439.465 181.832 439.185 183.024 438.625 184.048C438.065 185.056 437.289 185.832 436.297 186.376C435.321 186.92 434.225 187.192 433.009 187.192ZM433.009 186.232C433.953 186.232 434.833 186.024 435.649 185.608C436.481 185.176 437.145 184.528 437.641 183.664C438.137 182.8 438.385 181.736 438.385 180.472C438.385 179.224 438.137 178.168 437.641 177.304C437.145 176.44 436.489 175.8 435.673 175.384C434.857 174.952 433.977 174.736 433.033 174.736C432.089 174.736 431.209 174.952 430.393 175.384C429.593 175.8 428.945 176.44 428.449 177.304C427.953 178.168 427.705 179.224 427.705 180.472C427.705 181.736 427.945 182.8 428.425 183.664C428.921 184.528 429.569 185.176 430.369 185.608C431.185 186.024 432.065 186.232 433.009 186.232ZM448.621 173.704C450.173 173.704 451.437 174.184 452.413 175.144C453.389 176.088 453.877 177.496 453.877 179.368V187H452.821V179.44C452.821 177.888 452.429 176.704 451.645 175.888C450.861 175.056 449.797 174.64 448.453 174.64C447.045 174.64 445.917 175.088 445.069 175.984C444.237 176.88 443.821 178.208 443.821 179.968V187H442.741V173.968H443.821V176.728C444.189 175.752 444.797 175.008 445.645 174.496C446.509 173.968 447.501 173.704 448.621 173.704ZM462.039 187.192C460.583 187.192 459.391 186.872 458.463 186.232C457.551 185.592 457.039 184.68 456.927 183.496H458.031C458.111 184.344 458.495 185.016 459.183 185.512C459.887 186.008 460.839 186.256 462.039 186.256C463.031 186.256 463.815 186.008 464.391 185.512C464.983 185 465.279 184.376 465.279 183.64C465.279 183.128 465.119 182.712 464.799 182.392C464.495 182.056 464.111 181.8 463.647 181.624C463.183 181.448 462.551 181.256 461.751 181.048C460.791 180.792 460.015 180.544 459.423 180.304C458.831 180.048 458.327 179.672 457.911 179.176C457.495 178.68 457.287 178.016 457.287 177.184C457.287 176.576 457.471 176.016 457.839 175.504C458.207 174.976 458.719 174.56 459.375 174.256C460.031 173.952 460.775 173.8 461.607 173.8C462.967 173.8 464.063 174.144 464.895 174.832C465.743 175.504 466.199 176.44 466.263 177.64H465.183C465.135 176.776 464.799 176.072 464.175 175.528C463.551 174.984 462.687 174.712 461.583 174.712C460.655 174.712 459.887 174.952 459.279 175.432C458.671 175.912 458.367 176.496 458.367 177.184C458.367 177.792 458.535 178.288 458.871 178.672C459.223 179.04 459.647 179.328 460.143 179.536C460.655 179.728 461.327 179.936 462.159 180.16C463.071 180.4 463.799 180.64 464.343 180.88C464.903 181.104 465.375 181.44 465.759 181.888C466.143 182.32 466.335 182.904 466.335 183.64C466.335 184.312 466.151 184.92 465.783 185.464C465.415 186.008 464.903 186.432 464.247 186.736C463.591 187.04 462.855 187.192 462.039 187.192ZM481.36 179.608C481.36 180.184 481.344 180.616 481.312 180.904H470.056C470.088 182.072 470.344 183.056 470.824 183.856C471.304 184.656 471.936 185.256 472.72 185.656C473.504 186.056 474.36 186.256 475.288 186.256C476.568 186.256 477.64 185.944 478.504 185.32C479.368 184.68 479.912 183.816 480.136 182.728H481.264C481.008 184.056 480.352 185.136 479.296 185.968C478.24 186.784 476.904 187.192 475.288 187.192C474.072 187.192 472.984 186.92 472.024 186.376C471.064 185.832 470.312 185.056 469.768 184.048C469.224 183.024 468.952 181.832 468.952 180.472C468.952 179.112 469.216 177.928 469.744 176.92C470.288 175.912 471.04 175.144 472 174.616C472.96 174.072 474.056 173.8 475.288 173.8C476.536 173.8 477.616 174.072 478.528 174.616C479.456 175.144 480.16 175.856 480.64 176.752C481.12 177.632 481.36 178.584 481.36 179.608ZM480.28 180.016C480.328 178.864 480.12 177.888 479.656 177.088C479.208 176.288 478.592 175.696 477.808 175.312C477.024 174.912 476.176 174.712 475.264 174.712C474.352 174.712 473.504 174.912 472.72 175.312C471.952 175.696 471.32 176.288 470.824 177.088C470.344 177.888 470.088 178.864 470.056 180.016H480.28ZM488.968 187.192C487.512 187.192 486.32 186.872 485.392 186.232C484.48 185.592 483.968 184.68 483.856 183.496H484.96C485.04 184.344 485.424 185.016 486.112 185.512C486.816 186.008 487.768 186.256 488.968 186.256C489.96 186.256 490.744 186.008 491.32 185.512C491.912 185 492.208 184.376 492.208 183.64C492.208 183.128 492.048 182.712 491.728 182.392C491.424 182.056 491.04 181.8 490.576 181.624C490.112 181.448 489.48 181.256 488.68 181.048C487.72 180.792 486.944 180.544 486.352 180.304C485.76 180.048 485.256 179.672 484.84 179.176C484.424 178.68 484.216 178.016 484.216 177.184C484.216 176.576 484.4 176.016 484.768 175.504C485.136 174.976 485.648 174.56 486.304 174.256C486.96 173.952 487.704 173.8 488.536 173.8C489.896 173.8 490.992 174.144 491.824 174.832C492.672 175.504 493.128 176.44 493.192 177.64H492.112C492.064 176.776 491.728 176.072 491.104 175.528C490.48 174.984 489.616 174.712 488.512 174.712C487.584 174.712 486.816 174.952 486.208 175.432C485.6 175.912 485.296 176.496 485.296 177.184C485.296 177.792 485.464 178.288 485.8 178.672C486.152 179.04 486.576 179.328 487.072 179.536C487.584 179.728 488.256 179.936 489.088 180.16C490 180.4 490.728 180.64 491.272 180.88C491.832 181.104 492.304 181.44 492.688 181.888C493.072 182.32 493.264 182.904 493.264 183.64C493.264 184.312 493.08 184.92 492.712 185.464C492.344 186.008 491.832 186.432 491.176 186.736C490.52 187.04 489.784 187.192 488.968 187.192Z" fill="#102C07"/>
<rect x="524" y="164" width="30" height="30" rx="15" fill="#102C07"/>
<path d="M544.569 173.319C544.833 173.067 545.184 172.928 545.549 172.931C545.914 172.934 546.263 173.078 546.523 173.333C546.784 173.589 546.935 173.935 546.944 174.3C546.954 174.665 546.821 175.019 546.575 175.287L539.094 184.644C538.965 184.782 538.81 184.893 538.637 184.971C538.465 185.048 538.278 185.089 538.089 185.093C537.9 185.096 537.712 185.062 537.537 184.991C537.362 184.92 537.202 184.815 537.069 184.681L532.108 179.72C531.969 179.591 531.859 179.436 531.782 179.263C531.705 179.091 531.663 178.905 531.66 178.716C531.657 178.527 531.692 178.34 531.762 178.164C531.833 177.989 531.938 177.83 532.072 177.697C532.205 177.563 532.364 177.458 532.54 177.387C532.715 177.316 532.902 177.282 533.091 177.285C533.28 177.288 533.466 177.33 533.639 177.407C533.811 177.483 533.966 177.594 534.095 177.732L538.021 181.657L544.533 173.36L544.569 173.319Z" fill="#9AEA6C"/>
<defs>
<filter id="filter0_d_52_234" x="41" y="58" width="263" height="284" filterUnits="userSpaceOnUse" color-interpolation-filters="sRGB">
<feFlood flood-opacity="0" result="BackgroundImageFix"/>
<feColorMatrix in="SourceAlpha" type="matrix" values="0 0 0 0 0 0 0 0 0 0 0 0 0 0 0 0 0 0 127 0" result="hardAlpha"/>
<feOffset dy="4"/>
<feGaussianBlur stdDeviation="2"/>
<feComposite in2="hardAlpha" operator="out"/>
<feColorMatrix type="matrix" values="0 0 0 0 0 0 0 0 0 0 0 0 0 0 0 0 0 0 0.25 0"/>
<feBlend mode="normal" in2="BackgroundImageFix" result="effect1_dropShadow_52_234"/>
<feBlend mode="normal" in="SourceGraphic" in2="effect1_dropShadow_52_234" result="shape"/>
</filter>
<filter id="filter1_d_52_234" x="257" y="0" width="344" height="236" filterUnits="userSpaceOnUse" color-interpolation-filters="sRGB">
<feFlood flood-opacity="0" result="BackgroundImageFix"/>
<feColorMatrix in="SourceAlpha" type="matrix" values="0 0 0 0 0 0 0 0 0 0 0 0 0 0 0 0 0 0 127 0" result="hardAlpha"/>
<feOffset dy="4"/>
<feGaussianBlur stdDeviation="2"/>
<feComposite in2="hardAlpha" operator="out"/>
<feColorMatrix type="matrix" values="0 0 0 0 0 0 0 0 0 0 0 0 0 0 0 0 0 0 0.25 0"/>
<feBlend mode="normal" in2="BackgroundImageFix" result="effect1_dropShadow_52_234"/>
<feBlend mode="normal" in="SourceGraphic" in2="effect1_dropShadow_52_234" result="shape"/>
</filter>
<filter id="filter2_d_52_234" x="0" y="262.546" width="152.454" height="151.454" filterUnits="userSpaceOnUse" color-interpolation-filters="sRGB">
<feFlood flood-opacity="0" result="BackgroundImageFix"/>
<feColorMatrix in="SourceAlpha" type="matrix" values="0 0 0 0 0 0 0 0 0 0 0 0 0 0 0 0 0 0 127 0" result="hardAlpha"/>
<feOffset dx="8" dy="8"/>
<feGaussianBlur stdDeviation="2"/>
<feComposite in2="hardAlpha" operator="out"/>
<feColorMatrix type="matrix" values="0 0 0 0 0 0 0 0 0 0 0 0 0 0 0 0 0 0 0.25 0"/>
<feBlend mode="normal" in2="BackgroundImageFix" result="effect1_dropShadow_52_234"/>
<feBlend mode="normal" in="SourceGraphic" in2="effect1_dropShadow_52_234" result="shape"/>
</filter>
<filter id="filter3_d_52_234" x="208" y="324" width="307" height="87" filterUnits="userSpaceOnUse" color-interpolation-filters="sRGB">
<feFlood flood-opacity="0" result="BackgroundImageFix"/>
<feColorMatrix in="SourceAlpha" type="matrix" values="0 0 0 0 0 0 0 0 0 0 0 0 0 0 0 0 0 0 127 0" result="hardAlpha"/>
<feOffset dy="4"/>
<feGaussianBlur stdDeviation="2"/>
<feComposite in2="hardAlpha" operator="out"/>
<feColorMatrix type="matrix" values="0 0 0 0 0 0 0 0 0 0 0 0 0 0 0 0 0 0 0.25 0"/>
<feBlend mode="normal" in2="BackgroundImageFix" result="effect1_dropShadow_52_234"/>
<feBlend mode="normal" in="SourceGraphic" in2="effect1_dropShadow_52_234" result="shape"/>
</filter>
<filter id="filter4_d_52_234" x="236.755" y="347.984" width="249.378" height="42.437" filterUnits="userSpaceOnUse" color-interpolation-filters="sRGB">
<feFlood flood-opacity="0" result="BackgroundImageFix"/>
<feColorMatrix in="SourceAlpha" type="matrix" values="0 0 0 0 0 0 0 0 0 0 0 0 0 0 0 0 0 0 127 0" result="hardAlpha"/>
<feOffset dy="4"/>
<feGaussianBlur stdDeviation="2"/>
<feComposite in2="hardAlpha" operator="out"/>
<feColorMatrix type="matrix" values="0 0 0 0 0 0 0 0 0 0 0 0 0 0 0 0 0 0 0.25 0"/>
<feBlend mode="normal" in2="BackgroundImageFix" result="effect1_dropShadow_52_234"/>
<feBlend mode="normal" in="SourceGraphic" in2="effect1_dropShadow_52_234" result="shape"/>
</filter>
</defs>
</svg>
