<svg width="488" height="485" viewBox="0 0 488 485" fill="none" xmlns="http://www.w3.org/2000/svg">
<path d="M152.317 460.33C152.804 463.235 155.554 465.195 158.459 464.708C161.364 464.22 163.324 461.47 162.837 458.566C162.35 455.661 159.6 453.701 156.695 454.188C153.79 454.675 151.83 457.425 152.317 460.33ZM456.9 366.823C457.387 369.728 460.137 371.688 463.042 371.2C465.947 370.713 467.907 367.963 467.42 365.058C466.932 362.153 464.182 360.193 461.278 360.681C458.373 361.168 456.413 363.918 456.9 366.823ZM311.16 365.94L310.254 366.363L311.16 365.94ZM375.16 431.44L375.009 432.429L375.16 431.44ZM69.1598 280.438L68.5521 279.644L69.1598 280.438ZM325.66 68.9384L326.302 68.1718L325.66 68.9384ZM208.16 294.938L207.689 294.055L208.16 294.938ZM310.254 366.363C325.335 398.688 339.055 426.935 375.009 432.429L375.311 430.452C340.559 425.141 327.226 398.011 312.066 365.518L310.254 366.363ZM375.009 432.429C385.827 434.082 396.754 430.684 406.989 424.783C417.228 418.878 426.864 410.417 435.146 401.792C443.433 393.162 450.395 384.335 455.284 377.67C457.729 374.336 459.658 371.54 460.976 369.576C461.635 368.594 462.142 367.819 462.484 367.29C462.656 367.025 462.786 366.821 462.873 366.683C462.917 366.614 462.951 366.561 462.973 366.526C462.984 366.508 462.993 366.494 462.999 366.485C463.001 366.481 463.004 366.477 463.005 366.475C463.006 366.473 463.007 366.472 463.007 366.472C463.007 366.471 463.008 366.471 462.16 365.94C461.312 365.41 461.312 365.41 461.311 365.411C461.311 365.411 461.311 365.412 461.31 365.413C461.309 365.415 461.307 365.418 461.305 365.422C461.299 365.43 461.291 365.443 461.281 365.459C461.26 365.493 461.228 365.543 461.185 365.61C461.1 365.744 460.973 365.943 460.805 366.204C460.468 366.724 459.968 367.489 459.315 368.461C458.011 370.405 456.098 373.178 453.672 376.487C448.817 383.106 441.911 391.859 433.704 400.407C425.491 408.96 416.004 417.276 405.99 423.05C395.971 428.827 385.513 432.011 375.311 430.452L375.009 432.429ZM157.316 458.482C138.878 463.474 120.383 457.935 103.892 445.928C87.3956 433.918 72.985 415.486 62.8214 394.909C52.6578 374.332 46.7791 351.686 47.2677 331.286C47.7561 310.893 54.5977 292.84 69.7675 281.232L68.5521 279.644C52.7607 291.727 45.7663 310.442 45.2683 331.239C44.7703 352.029 50.7548 374.995 61.0282 395.795C71.3017 416.594 85.9021 435.305 102.715 447.545C119.533 459.79 138.645 465.609 157.838 460.413L157.316 458.482ZM69.7675 281.232C80.3516 273.134 91.1588 271.535 102.234 273.31C113.371 275.095 124.75 280.284 136.428 285.785C148.052 291.26 159.965 297.039 171.994 299.815C184.065 302.601 196.324 302.382 208.63 295.82L207.689 294.055C195.916 300.333 184.178 300.575 172.444 297.867C160.668 295.149 148.968 289.481 137.28 283.975C125.646 278.495 114.014 273.172 102.55 271.335C91.0242 269.488 79.6402 271.16 68.5521 279.644L69.7675 281.232ZM325.018 69.7051C337.51 80.1666 344.414 94.7638 348.324 111.054C352.236 127.354 353.13 145.257 353.671 162.254C354.209 179.195 354.393 195.301 356.934 207.806C359.472 220.3 364.45 229.626 374.903 232.404L375.417 230.471C366.12 228 361.393 219.712 358.894 207.408C356.396 195.115 356.211 179.238 355.67 162.191C355.13 145.199 354.234 127.109 350.269 110.587C346.301 94.0569 339.24 79.0062 326.302 68.1718L325.018 69.7051ZM374.903 232.404C384.409 234.931 394.233 244.511 401.368 255.868C404.918 261.52 407.763 267.553 409.546 273.264C411.333 278.99 412.03 284.32 411.359 288.596C410.694 292.836 408.707 295.965 405.14 297.551C401.503 299.166 396.017 299.275 388.173 296.925C372.493 292.228 348.028 277.902 311.794 248.165L310.525 249.711C346.792 279.474 371.515 294.023 387.599 298.841C395.638 301.249 401.68 301.276 405.952 299.378C410.292 297.45 412.594 293.634 413.335 288.905C414.071 284.212 413.291 278.55 411.455 272.668C409.615 266.772 406.691 260.583 403.061 254.805C395.836 243.303 385.661 233.195 375.417 230.471L374.903 232.404ZM311.794 248.165C293.653 233.277 279.708 223.261 269.235 217.234C264 214.221 259.602 212.187 255.96 211.044C252.334 209.906 249.358 209.619 247.02 210.226C244.614 210.85 242.989 212.395 242.089 214.63C241.212 216.809 241.031 219.614 241.35 222.844C241.988 229.312 244.678 237.906 248.613 247.66C256.493 267.198 269.511 291.734 281.743 313.938C294 336.187 305.443 356.052 310.254 366.363L312.066 365.518C307.217 355.125 295.705 335.138 283.495 312.973C271.26 290.763 258.297 266.324 250.468 246.912C246.547 237.192 243.949 228.818 243.34 222.647C243.036 219.558 243.241 217.125 243.945 215.377C244.625 213.686 245.775 212.615 247.522 212.161C249.338 211.69 251.893 211.864 255.361 212.952C258.813 214.035 263.071 215.994 268.238 218.968C278.57 224.914 292.417 234.849 310.525 249.711L311.794 248.165ZM208.63 295.82C219.37 290.094 225.809 282.614 228.82 273.798C231.822 265.01 231.375 255.02 228.591 244.327C223.031 222.974 208.044 198.452 191.649 174.307C175.205 150.089 157.348 126.253 145.807 106.072C140.04 95.9853 135.908 86.9064 134.317 79.2309C132.728 71.5682 133.7 65.4858 137.881 61.1301L136.438 59.745C131.62 64.7643 130.699 71.6346 132.358 79.637C134.015 87.6267 138.274 96.9257 144.071 107.064C155.661 127.333 173.635 151.338 189.995 175.431C206.404 199.596 221.194 223.855 226.656 244.831C229.383 255.304 229.758 264.865 226.927 273.152C224.106 281.411 218.058 288.527 207.689 294.055L208.63 295.82ZM137.881 61.1301C155.606 42.6662 188.275 32.9883 223.699 33.8836C259.086 34.7781 296.978 46.2242 325.018 69.7051L326.302 68.1718C297.846 44.342 259.488 32.7876 223.749 31.8843C188.046 30.9819 154.713 40.7089 136.438 59.745L137.881 61.1301Z" fill="#708E5E"/>
<g filter="url(#filter0_d_63_5)">
<path d="M401.858 124.727L426.846 143.693L401.848 163.665L401.365 164.051L401.843 164.442L426.876 184.942L401.839 205.946L401.376 206.333L401.843 206.716L426.892 227.228L401.826 249.758L401.344 250.191L401.885 250.548L425.993 266.437H80.1599V103.438H426.286L401.839 123.946L401.359 124.348L401.858 124.727Z" fill="#DFF9CE" stroke="#102C07"/>
<line x1="86.6583" y1="157.441" x2="389.658" y2="156.438" stroke="#102C07"/>
<line x1="86.6583" y1="211.441" x2="389.658" y2="210.438" stroke="#102C07"/>
<path d="M112.904 118.892V121.775H107.169V140.438H103.635V121.775H97.8689V118.892H112.904ZM118.281 121.093C117.64 121.093 117.103 120.876 116.669 120.442C116.235 120.008 116.018 119.471 116.018 118.83C116.018 118.19 116.235 117.652 116.669 117.218C117.103 116.784 117.64 116.567 118.281 116.567C118.901 116.567 119.428 116.784 119.862 117.218C120.296 117.652 120.513 118.19 120.513 118.83C120.513 119.471 120.296 120.008 119.862 120.442C119.428 120.876 118.901 121.093 118.281 121.093ZM120.017 123.357V140.438H116.483V123.357H120.017ZM123.479 131.881C123.479 130.125 123.83 128.585 124.533 127.262C125.256 125.919 126.248 124.886 127.509 124.162C128.769 123.439 130.216 123.077 131.849 123.077C133.915 123.077 135.62 123.573 136.964 124.565C138.328 125.537 139.247 126.932 139.723 128.75H135.91C135.6 127.903 135.104 127.242 134.422 126.766C133.74 126.291 132.882 126.053 131.849 126.053C130.402 126.053 129.245 126.57 128.377 127.603C127.529 128.616 127.106 130.042 127.106 131.881C127.106 133.721 127.529 135.157 128.377 136.19C129.245 137.224 130.402 137.74 131.849 137.74C133.895 137.74 135.248 136.841 135.91 135.043H139.723C139.227 136.779 138.297 138.164 136.933 139.197C135.569 140.21 133.874 140.717 131.849 140.717C130.216 140.717 128.769 140.355 127.509 139.631C126.248 138.887 125.256 137.854 124.533 136.531C123.83 135.188 123.479 133.638 123.479 131.881ZM150.003 131.912L157.877 140.438H153.103L146.779 133.09V140.438H143.245V117.497H146.779V130.827L152.979 123.357H157.877L150.003 131.912ZM176.065 131.478C176.065 132.119 176.023 132.698 175.941 133.214H162.89C162.993 134.578 163.499 135.674 164.409 136.5C165.318 137.327 166.434 137.74 167.757 137.74C169.658 137.74 171.001 136.945 171.787 135.353H175.6C175.083 136.924 174.143 138.216 172.779 139.228C171.435 140.221 169.761 140.717 167.757 140.717C166.124 140.717 164.657 140.355 163.355 139.631C162.073 138.887 161.061 137.854 160.317 136.531C159.593 135.188 159.232 133.638 159.232 131.881C159.232 130.125 159.583 128.585 160.286 127.262C161.009 125.919 162.011 124.886 163.293 124.162C164.595 123.439 166.083 123.077 167.757 123.077C169.369 123.077 170.805 123.429 172.066 124.131C173.326 124.834 174.308 125.826 175.011 127.107C175.713 128.368 176.065 129.825 176.065 131.478ZM172.376 130.362C172.355 129.06 171.89 128.017 170.981 127.231C170.071 126.446 168.945 126.053 167.602 126.053C166.382 126.053 165.339 126.446 164.471 127.231C163.603 127.996 163.086 129.04 162.921 130.362H172.376ZM183.666 126.239V135.694C183.666 136.335 183.81 136.8 184.1 137.089C184.41 137.358 184.926 137.492 185.65 137.492H187.82V140.438H185.03C183.438 140.438 182.219 140.065 181.372 139.321C180.524 138.577 180.101 137.368 180.101 135.694V126.239H178.086V123.357H180.101V119.109H183.666V123.357H187.82V126.239H183.666Z" fill="#102C07"/>
<path d="M101.597 174.853V183.936H110.277V185.114H101.597V194.259H111.207V195.438H100.202V173.675H111.207V174.853H101.597ZM121.133 193.918L127.333 178.604H128.821L121.846 195.438H120.389L113.414 178.604H114.933L121.133 193.918ZM147.057 185.889C147.057 186.633 147.037 187.191 146.995 187.563H132.456C132.498 189.072 132.828 190.343 133.448 191.376C134.068 192.41 134.885 193.185 135.897 193.701C136.91 194.218 138.016 194.476 139.214 194.476C140.868 194.476 142.252 194.073 143.368 193.267C144.484 192.441 145.187 191.325 145.476 189.919H146.933C146.603 191.635 145.755 193.03 144.391 194.104C143.027 195.158 141.302 195.686 139.214 195.686C137.644 195.686 136.238 195.334 134.998 194.631C133.758 193.929 132.787 192.926 132.084 191.624C131.382 190.302 131.03 188.762 131.03 187.005C131.03 185.249 131.371 183.719 132.053 182.417C132.756 181.115 133.727 180.123 134.967 179.441C136.207 178.739 137.623 178.387 139.214 178.387C140.826 178.387 142.221 178.739 143.399 179.441C144.598 180.123 145.507 181.043 146.127 182.2C146.747 183.337 147.057 184.567 147.057 185.889ZM145.662 186.416C145.724 184.928 145.456 183.668 144.856 182.634C144.278 181.601 143.482 180.836 142.469 180.34C141.457 179.824 140.361 179.565 139.183 179.565C138.005 179.565 136.91 179.824 135.897 180.34C134.905 180.836 134.089 181.601 133.448 182.634C132.828 183.668 132.498 184.928 132.456 186.416H145.662ZM158.868 178.263C160.873 178.263 162.506 178.883 163.766 180.123C165.027 181.343 165.657 183.161 165.657 185.579V195.438H164.293V185.672C164.293 183.668 163.787 182.138 162.774 181.084C161.762 180.01 160.387 179.472 158.651 179.472C156.833 179.472 155.376 180.051 154.28 181.208C153.206 182.366 152.668 184.081 152.668 186.354V195.438H151.273V178.604H152.668V182.169C153.144 180.909 153.929 179.948 155.024 179.286C156.14 178.604 157.422 178.263 158.868 178.263ZM172.665 179.813V190.942C172.665 192.182 172.892 193.04 173.347 193.515C173.801 193.97 174.607 194.197 175.765 194.197H177.656V195.438H175.548C174.08 195.438 172.995 195.097 172.293 194.415C171.611 193.712 171.27 192.554 171.27 190.942V179.813H168.728V178.604H171.27V174.326H172.665V178.604H177.656V179.813H172.665Z" fill="#102C07"/>
<path d="M105.557 228.768C107.954 228.768 110.011 229.202 111.726 230.07C113.441 230.938 114.754 232.189 115.663 233.821C116.572 235.454 117.027 237.397 117.027 239.649C117.027 241.881 116.572 243.814 115.663 245.446C114.754 247.058 113.441 248.298 111.726 249.166C110.011 250.014 107.954 250.438 105.557 250.438H99.1399V228.768H105.557ZM105.557 248.639C108.574 248.639 110.868 247.854 112.439 246.283C114.03 244.692 114.826 242.481 114.826 239.649C114.826 236.797 114.03 234.576 112.439 232.984C110.868 231.372 108.574 230.566 105.557 230.566H101.31V248.639H105.557ZM120.036 241.943C120.036 240.207 120.377 238.688 121.059 237.386C121.761 236.064 122.722 235.051 123.942 234.348C125.182 233.625 126.577 233.263 128.127 233.263C129.739 233.263 131.123 233.635 132.281 234.379C133.459 235.123 134.306 236.074 134.823 237.231V233.511H136.993V250.438H134.823V246.686C134.285 247.844 133.428 248.805 132.25 249.569C131.092 250.313 129.708 250.686 128.096 250.686C126.566 250.686 125.182 250.324 123.942 249.6C122.722 248.877 121.761 247.854 121.059 246.531C120.377 245.209 120.036 243.679 120.036 241.943ZM134.823 241.974C134.823 240.61 134.544 239.412 133.986 238.378C133.428 237.345 132.663 236.549 131.692 235.991C130.741 235.433 129.687 235.154 128.53 235.154C127.331 235.154 126.256 235.423 125.306 235.96C124.355 236.498 123.601 237.283 123.043 238.316C122.505 239.329 122.237 240.538 122.237 241.943C122.237 243.328 122.505 244.547 123.043 245.601C123.601 246.635 124.355 247.43 125.306 247.988C126.256 248.526 127.331 248.794 128.53 248.794C129.687 248.794 130.741 248.515 131.692 247.957C132.663 247.399 133.428 246.604 133.986 245.57C134.544 244.537 134.823 243.338 134.823 241.974ZM144.768 235.34V245.849C144.768 246.883 144.964 247.596 145.357 247.988C145.749 248.381 146.442 248.577 147.434 248.577H149.418V250.438H147.093C145.563 250.438 144.427 250.086 143.683 249.383C142.939 248.66 142.567 247.482 142.567 245.849V235.34H140.211V233.511H142.567V229.264H144.768V233.511H149.418V235.34H144.768ZM168.31 241.106C168.31 241.85 168.29 242.419 168.248 242.811H154.205C154.267 244.093 154.577 245.188 155.135 246.097C155.693 247.007 156.427 247.699 157.336 248.174C158.246 248.629 159.238 248.856 160.312 248.856C161.718 248.856 162.896 248.515 163.846 247.833C164.818 247.151 165.458 246.232 165.768 245.074H168.062C167.649 246.728 166.76 248.081 165.396 249.135C164.053 250.169 162.358 250.686 160.312 250.686C158.721 250.686 157.295 250.334 156.034 249.631C154.774 248.908 153.782 247.895 153.058 246.593C152.356 245.271 152.004 243.731 152.004 241.974C152.004 240.218 152.356 238.678 153.058 237.355C153.761 236.033 154.743 235.02 156.003 234.317C157.264 233.615 158.7 233.263 160.312 233.263C161.924 233.263 163.33 233.615 164.528 234.317C165.748 235.02 166.678 235.971 167.318 237.169C167.98 238.347 168.31 239.66 168.31 241.106ZM166.109 241.044C166.13 239.784 165.872 238.709 165.334 237.82C164.818 236.932 164.105 236.26 163.195 235.805C162.286 235.351 161.294 235.123 160.219 235.123C158.607 235.123 157.233 235.64 156.096 236.673C154.96 237.707 154.329 239.164 154.205 241.044H166.109Z" fill="#102C07"/>
</g>
<rect x="47.3429" y="337.121" width="437" height="123" rx="19.5" transform="rotate(-30 47.3429 337.121)" fill="white" stroke="#102C07"/>
<path d="M90.689 382.532C91.4253 383.807 93.0563 384.244 94.3317 383.508C95.6071 382.771 96.0441 381.14 95.3078 379.865C94.5714 378.589 92.9405 378.152 91.665 378.889C90.3896 379.625 89.9526 381.256 90.689 382.532ZM415.448 195.032C416.185 196.307 417.816 196.744 419.091 196.008C420.367 195.271 420.804 193.64 420.067 192.365C419.331 191.089 417.7 190.652 416.425 191.389C415.149 192.125 414.712 193.756 415.448 195.032ZM93.2484 381.631L418.008 194.131L417.508 193.265L92.7484 380.765L93.2484 381.631Z" fill="#2B5D17"/>
<path d="M102.029 351.363C103.234 350.929 104.457 350.939 105.697 351.393C106.955 351.836 107.925 352.648 108.607 353.829C109.165 354.796 109.434 355.798 109.413 356.836C109.399 357.846 109.065 358.838 108.411 359.813C107.764 360.759 106.796 361.604 105.508 362.348L99.5209 365.805L88.6399 346.958L94.5193 343.564C96.3986 342.479 98.0657 342.101 99.5206 342.43C100.983 342.731 102.112 343.571 102.908 344.949C103.6 346.148 103.841 347.31 103.631 348.433C103.41 349.539 102.876 350.516 102.029 351.363ZM94.7925 354.825L99.5175 352.097C100.931 351.281 101.823 350.324 102.192 349.228C102.569 348.104 102.417 346.951 101.735 345.77C101.074 344.624 100.176 343.937 99.0418 343.709C97.9078 343.481 96.5801 343.806 95.0588 344.684L90.468 347.335L94.7925 354.825ZM104.823 361.348C106.344 360.469 107.328 359.424 107.773 358.212C108.227 356.972 108.086 355.717 107.353 354.446C106.629 353.193 105.609 352.458 104.29 352.241C102.979 351.996 101.554 352.317 100.015 353.206L95.397 355.872L100.125 364.06L104.823 361.348ZM121.608 353.339C120.248 354.124 118.846 354.528 117.403 354.55C115.96 354.571 114.6 354.199 113.322 353.433C112.053 352.639 110.979 351.482 110.1 349.96C109.232 348.457 108.786 346.961 108.761 345.471C108.726 343.964 109.084 342.6 109.835 341.379C110.593 340.13 111.653 339.113 113.013 338.327C114.373 337.542 115.775 337.139 117.218 337.117C118.651 337.077 119.997 337.445 121.256 338.221C122.534 338.987 123.612 340.131 124.49 341.652C125.368 343.174 125.825 344.688 125.86 346.195C125.885 347.684 125.518 349.053 124.759 350.303C124.019 351.541 122.969 352.554 121.608 353.339ZM120.988 352.265C122.044 351.655 122.894 350.854 123.538 349.862C124.19 348.841 124.514 347.688 124.511 346.401C124.508 345.114 124.098 343.764 123.282 342.35C122.476 340.954 121.517 339.933 120.404 339.287C119.291 338.64 118.144 338.348 116.962 338.41C115.77 338.454 114.647 338.78 113.591 339.39C112.535 340 111.69 340.81 111.056 341.82C110.43 342.802 110.118 343.936 110.121 345.223C110.125 346.51 110.529 347.851 111.335 349.247C112.151 350.661 113.107 351.696 114.202 352.353C115.315 352.999 116.458 353.305 117.632 353.272C118.814 353.21 119.932 352.875 120.988 352.265ZM138.912 343.349C137.552 344.134 136.15 344.538 134.707 344.559C133.264 344.581 131.904 344.209 130.626 343.443C129.356 342.649 128.282 341.491 127.404 339.97C126.536 338.467 126.09 336.97 126.065 335.481C126.03 333.974 126.388 332.61 127.139 331.389C127.897 330.14 128.956 329.123 130.317 328.337C131.677 327.552 133.078 327.148 134.522 327.126C135.954 327.087 137.301 327.455 138.56 328.231C139.837 328.997 140.915 330.141 141.794 331.662C142.672 333.183 143.129 334.698 143.164 336.205C143.188 337.694 142.821 339.063 142.063 340.312C141.322 341.551 140.272 342.563 138.912 343.349ZM138.292 342.275C139.348 341.665 140.198 340.864 140.842 339.872C141.494 338.851 141.818 337.698 141.815 336.411C141.812 335.124 141.402 333.774 140.586 332.36C139.78 330.964 138.82 329.942 137.707 329.296C136.594 328.65 135.447 328.358 134.266 328.42C133.074 328.463 131.95 328.79 130.894 329.4C129.838 330.009 128.993 330.819 128.36 331.83C127.733 332.812 127.422 333.946 127.425 335.233C127.428 336.52 127.833 337.861 128.639 339.257C129.455 340.671 130.411 341.706 131.506 342.363C132.618 343.009 133.762 343.315 134.936 343.282C136.117 343.22 137.236 342.884 138.292 342.275ZM157.246 332.477L147.024 329.466L150.883 336.151L149.675 336.848L138.205 316.982L139.413 316.284L146.28 328.177L148.722 317.961L150.413 316.985L147.538 328.31L158.91 331.516L157.246 332.477ZM163.111 314.952L163.716 315.999L153.621 321.827L153.017 320.78L163.111 314.952ZM164.673 303.061L175.554 321.907L174.346 322.605L163.465 303.758L164.673 303.061ZM177.973 300.68C179.709 299.677 181.433 299.398 183.145 299.841C184.846 300.267 186.302 301.527 187.511 303.621L192.44 312.158L191.258 312.84L186.376 304.383C185.373 302.647 184.17 301.576 182.766 301.17C181.352 300.745 179.893 300.967 178.39 301.835C176.815 302.744 175.842 303.974 175.472 305.524C175.12 307.064 175.513 308.818 176.649 310.787L181.191 318.653L179.983 319.35L171.566 304.772L172.774 304.075L174.557 307.162C174.338 305.833 174.538 304.608 175.156 303.487C175.781 302.339 176.72 301.403 177.973 300.68Z" fill="#2B5D17"/>
<defs>
<filter id="filter0_d_63_5" x="75.6599" y="102.938" width="356" height="172" filterUnits="userSpaceOnUse" color-interpolation-filters="sRGB">
<feFlood flood-opacity="0" result="BackgroundImageFix"/>
<feColorMatrix in="SourceAlpha" type="matrix" values="0 0 0 0 0 0 0 0 0 0 0 0 0 0 0 0 0 0 127 0" result="hardAlpha"/>
<feOffset dy="4"/>
<feGaussianBlur stdDeviation="2"/>
<feComposite in2="hardAlpha" operator="out"/>
<feColorMatrix type="matrix" values="0 0 0 0 0 0 0 0 0 0 0 0 0 0 0 0 0 0 0.25 0"/>
<feBlend mode="normal" in2="BackgroundImageFix" result="effect1_dropShadow_63_5"/>
<feBlend mode="normal" in="SourceGraphic" in2="effect1_dropShadow_63_5" result="shape"/>
</filter>
</defs>
</svg>
