<svg width="90" height="90" viewBox="0 0 90 90" fill="none" xmlns="http://www.w3.org/2000/svg">
<path d="M90 45C90 69.8528 69.8528 90 45 90C20.1472 90 0 69.8528 0 45C0 20.1472 20.1472 0 45 0C69.8528 0 90 20.1472 90 45ZM4.91714 45C4.91714 67.1371 22.8629 85.0829 45 85.0829C67.1371 85.0829 85.0829 67.1371 85.0829 45C85.0829 22.8629 67.1371 4.91714 45 4.91714C22.8629 4.91714 4.91714 22.8629 4.91714 45Z" fill="#274F18"/>
<mask id="path-2-inside-1_34_104" fill="white">
<path d="M80 45C80 64.33 64.33 80 45 80C25.67 80 10 64.33 10 45C10 25.67 25.67 10 45 10C64.33 10 80 25.67 80 45ZM24 45C24 56.598 33.402 66 45 66C56.598 66 66 56.598 66 45C66 33.402 56.598 24 45 24C33.402 24 24 33.402 24 45Z"/>
</mask>
<path d="M80 45C80 64.33 64.33 80 45 80C25.67 80 10 64.33 10 45C10 25.67 25.67 10 45 10C64.33 10 80 25.67 80 45ZM24 45C24 56.598 33.402 66 45 66C56.598 66 66 56.598 66 45C66 33.402 56.598 24 45 24C33.402 24 24 33.402 24 45Z" stroke="#102C07" stroke-opacity="0.6" stroke-width="2" mask="url(#path-2-inside-1_34_104)"/>
<circle cx="45" cy="45" r="10" fill="#2B5D17"/>
</svg>
