<svg width="157" height="118" viewBox="0 0 157 118" fill="none" xmlns="http://www.w3.org/2000/svg">
<g filter="url(#filter0_d_39_30)">
<path d="M10.5 0.5H145.5V0.511624V0.523716V0.535946V0.548313V0.560818V0.573459V0.586237V0.599152V0.612203V0.625391V0.638715V0.652175V0.665771V0.679504V0.693372V0.707375V0.721514V0.735789V0.750198V0.764743V0.779423V0.794237V0.809187V0.82427V0.839489V0.854841V0.870328V0.885948V0.901703V0.917591V0.933613V0.949769V0.966057V0.982479V0.999034V1.01572V1.03254V1.0495V1.06658V1.0838V1.10115V1.11863V1.13625V1.154V1.17188V1.18989V1.20803V1.2263V1.2447V1.26324V1.28191V1.3007V1.31963V1.33869V1.35788V1.3772V1.39664V1.41622V1.43593V1.45577V1.47574V1.49584V1.51606V1.53642V1.5569V1.57752V1.59826V1.61913V1.64013V1.66126V1.68252V1.7039V1.72542V1.74706V1.76882V1.79072V1.81274V1.83489V1.85717V1.87958V1.90211V1.92477V1.94755V1.97047V1.9935V2.01667V2.03996V2.06337V2.08692V2.11059V2.13438V2.1583V2.18234V2.20651V2.23081V2.25523V2.27977V2.30444V2.32923V2.35415V2.37919V2.40436V2.42965V2.45506V2.4806V2.50626V2.53205V2.55795V2.58398V2.61014V2.63642V2.66281V2.68934V2.71598V2.74275V2.76964V2.79665V2.82378V2.85104V2.87842V2.90591V2.93353V2.96127V2.98914V3.01712V3.04522V3.07345V3.10179V3.13026V3.15885V3.18755V3.21638V3.24533V3.27439V3.30358V3.33289V3.36231V3.39185V3.42152V3.4513V3.4812V3.51122V3.54136V3.57162V3.60199V3.63249V3.6631V3.69383V3.72467V3.75564V3.78672V3.81792V3.84924V3.88067V3.91222V3.94389V3.97568V4.00758V4.0396V4.07173V4.10398V4.13635V4.16883V4.20143V4.23414V4.26697V4.29992V4.33298V4.36615V4.39944V4.43285V4.46637V4.5V4.53375V4.56761V4.60159V4.63568V4.66988V4.7042V4.73864V4.77318V4.80784V4.84261V4.8775V4.9125V4.94761V4.98283V5.01817V5.05362V5.08918V5.12485V5.16064V5.19654V5.23255V5.26867V5.3049V5.34124V5.3777V5.41426V5.45094V5.48773V5.52463V5.56164V5.59876V5.63599V5.67333V5.71078V5.74834V5.78601V5.82378V5.86167V5.89967V5.93778V5.97599V6.01432V6.05275V6.0913V6.12995V6.16871V6.20758V6.24655V6.28564V6.32483V6.36413V6.40353V6.44305V6.48267V6.5224V6.56224V6.60218V6.64223V6.68239V6.72265V6.76302V6.8035V6.84408V6.88477V6.92556V6.96646V7.00746V7.04857V7.08979V7.13111V7.17254V7.21407V7.25571V7.29745V7.33929V7.38124V7.42329V7.46545V7.50771V7.55008V7.59255V7.63512V7.6778V7.72058V7.76346V7.80645V7.84954V7.89273V7.93602V7.97942V8.02292V8.06652V8.11022V8.15403V8.19793V8.24194V8.28605V8.33027V8.37458V8.41899V8.46351V8.50813V8.55284V8.59766V8.64258V8.6876V8.73272V8.77794V8.82325V8.86867V8.91419V8.95981V9.00553V9.05134V9.09726V9.14327V9.18939V9.2356V9.28191V9.32832V9.37483V9.42143V9.46814V9.51494V9.56184V9.60884V9.65593V9.70312V9.75041V9.7978V9.84529V9.89287V9.94054V9.98832V10.0362V10.0842V10.1322V10.1804V10.2286V10.277V10.3254V10.374V10.4226V10.4713V10.5202V10.5691V10.6181V10.6672V10.7164V10.7657V10.8151V10.8646V10.9142V10.9639V11.0137V11.0635V11.1135V11.1635V11.2137V11.2639V11.3142V11.3647V11.4152V11.4658V11.5165V11.5673V11.6182V11.6692V11.7202V11.7714V11.8227V11.874V11.9254V11.977V12.0286V12.0803V12.1321V12.184V12.236V12.288V12.3402V12.3925V12.4448V12.4972V12.5498V12.6024V12.6551V12.7079V12.7607V12.8137V12.8668V12.9199V12.9732V13.0265V13.0799V13.1334V13.187V13.2407V13.2944V13.3483V13.4022V13.4563V13.5104V13.5646V13.6189V13.6732V13.7277V13.7823V13.8369V13.8916V13.9464V14.0013V14.0563V14.1114V14.1665V14.2218V14.2771V14.3325V14.388V14.4436V14.4992V14.555V14.6108V14.6667V14.7228V14.7788V14.835V14.8913V14.9476V15.004V15.0605V15.1171V15.1738V15.2306V15.2874V15.3443V15.4013V15.4584V15.5156V15.5728V15.6302V15.6876V15.7451V15.8027V15.8603V15.9181V15.9759V16.0338V16.0918V16.1499V16.208V16.2663V16.3246V16.383V16.4414V16.5C145.5 18.9634 145.033 20.0364 144.481 20.5702C144.203 20.8386 143.871 21.0044 143.476 21.1299C143.191 21.2203 142.906 21.2819 142.591 21.3497C142.447 21.3809 142.296 21.4134 142.136 21.4506C141.152 21.6802 140.057 22.0515 139.249 23.3352C138.468 24.575 138 26.5991 138 30C138 33.3992 138.468 35.3667 139.254 36.5636C140.064 37.7972 141.165 38.1339 142.106 38.4164L142.115 38.419C143.062 38.7032 143.828 38.933 144.418 39.7783C145.03 40.6556 145.5 42.2749 145.5 45.5V45.5761V45.6519V45.7274V45.8028V45.8779V45.9527V46.0273V46.1017V46.1759V46.2498V46.3234V46.3969V46.4701V46.543V46.6157V46.6882V46.7605V46.8325V46.9043V46.9758V47.0472V47.1183V47.1891V47.2597V47.3301V47.4003V47.4702V47.5399V47.6094V47.6786V47.7476V47.8164V47.885V47.9533V48.0214V48.0892V48.1569V48.2243V48.2915V48.3584V48.4252V48.4917V48.5579V48.624V48.6898V48.7554V48.8208V48.886V48.9509V49.0156V49.0801V49.1444V49.2084V49.2723V49.3359V49.3993V49.4624V49.5254V49.5881V49.6506V49.7129V49.775V49.8368V49.8984V49.9599V50.021V50.082V50.1428V50.2033V50.2637V50.3238V50.3837V50.4434V50.5029V50.5621V50.6212V50.68V50.7386V50.797V50.8552V50.9132V50.971V51.0285V51.0859V51.143V51.2V51.2567V51.3132V51.3695V51.4256V51.4815V51.5372V51.5926V51.6479V51.703V51.7578V51.8125V51.8669V51.9211V51.9752V52.029V52.0826V52.136V52.1892V52.2422V52.2951V52.3477V52.4001V52.4523V52.5043V52.5561V52.6077V52.6591V52.7103V52.7613V52.8121V52.8627V52.9131V52.9633V53.0133V53.0631V53.1127V53.1621V53.2113V53.2604V53.3092V53.3578V53.4062V53.4545V53.5025V53.5504V53.5981V53.6455V53.6928V53.7399V53.7868V53.8335V53.88V53.9263V53.9724V54.0184V54.0641V54.1097V54.155V54.2002V54.2452V54.29V54.3346V54.379V54.4233V54.4673V54.5112V54.5549V54.5984V54.6417V54.6848V54.7278V54.7705V54.8131V54.8555V54.8977V54.9397V54.9815V55.0232V55.0647V55.106V55.1471V55.188V55.2288V55.2693V55.3097V55.35V55.39V55.4299V55.4695V55.509V55.5484V55.5875V55.6265V55.6653V55.7039V55.7423V55.7806V55.8187V55.8566V55.8944V55.9319V55.9693V56.0065V56.0436V56.0805V56.1172V56.1537V56.1901V56.2263V56.2623V56.2982V56.3338V56.3694V56.4047V56.4399V56.4749V56.5097V56.5444V56.5789V56.6132V56.6474V56.6814V56.7152V56.7489V56.7824V56.8158V56.8489V56.8819V56.9148V56.9475V56.98V57.0124V57.0446V57.0766V57.1085V57.1402V57.1717V57.2031V57.2344V57.2654V57.2963V57.3271V57.3577V57.3881V57.4184V57.4485V57.4785V57.5083V57.5379V57.5674V57.5968V57.6259V57.655V57.6838V57.7126V57.7411V57.7695V57.7978V57.8259V57.8538V57.8816V57.9093V57.9368V57.9641V57.9913V58.0183V58.0452V58.072V58.0986V58.125V58.1513V58.1774V58.2034V58.2293V58.255V58.2805V58.3059V58.3312V58.3563V58.3813V58.4061V58.4308V58.4553V58.4797V58.504V58.5281V58.552V58.5759V58.5995V58.6231V58.6465V58.6697V58.6928V58.7158V58.7386V58.7613V58.7839V58.8063V58.8285V58.8507V58.8727V58.8945V58.9163V58.9378V58.9593V58.9806V59.0018V59.0228V59.0437V59.0645V59.0851V59.1056V59.126V59.1462V59.1663V59.1863V59.2061V59.2258V59.2454V59.2648V59.2842V59.3033V59.3224V59.3413V59.3601V59.3788V59.3973V59.4157V59.434V59.4521V59.4701V59.488V59.5058V59.5234V59.541V59.5583V59.5756V59.5927V59.6098V59.6267V59.6434V59.6601V59.6766V59.693V59.7093V59.7254V59.7414V59.7574V59.7731V59.7888V59.8044V59.8198V59.8351V59.8503V59.8654V59.8803V59.8952V59.9099V59.9245V59.939V59.9533V59.9676V59.9817V59.9957V60.0096V60.0234V60.0371V60.0507V60.0641V60.0775V60.0907V60.1038V60.1168V60.1297V60.1424V60.1551V60.1677V60.1801V60.1924V60.2046V60.2168V60.2288V60.2407V60.2524V60.2641V60.2757V60.2871V60.2985V60.3097V60.3209V60.3319V60.3429V60.3537V60.3644V60.375V60.3855V60.3959V60.4062V60.4165V60.4266V60.4366V60.4464V60.4562V60.4659V60.4755V60.485V60.4944V60.5H10.5V60.4915V60.478V60.4643V60.4505V60.4365V60.4223V60.408V60.3935V60.3788V60.364V60.349V60.3338V60.3185V60.303V60.2873V60.2715V60.2555V60.2394V60.2231V60.2066V60.19V60.1732V60.1562V60.1391V60.1219V60.1044V60.0869V60.0691V60.0512V60.0331V60.0149V59.9965V59.978V59.9593V59.9405V59.9215V59.9023V59.883V59.8635V59.8439V59.8241V59.8042V59.7841V59.7639V59.7435V59.7229V59.7022V59.6814V59.6604V59.6392V59.6179V59.5965V59.5749V59.5531V59.5312V59.5092V59.487V59.4647V59.4422V59.4195V59.3967V59.3738V59.3507V59.3275V59.3041V59.2806V59.257V59.2332V59.2092V59.1851V59.1609V59.1365V59.112V59.0873V59.0625V59.0376V59.0125V58.9873V58.9619V58.9364V58.9107V58.8849V58.859V58.8329V58.8067V58.7804V58.7539V58.7273V58.7005V58.6736V58.6466V58.6194V58.5921V58.5647V58.5371V58.5094V58.4816V58.4536V58.4255V58.3973V58.3689V58.3404V58.3118V58.283V58.2541V58.2251V58.1959V58.1666V58.1372V58.1077V58.078V58.0482V58.0182V57.9882V57.958V57.9277V57.8972V57.8666V57.8359V57.8051V57.7742V57.7431V57.7119V57.6806V57.6491V57.6175V57.5858V57.554V57.5221V57.49V57.4578V57.4255V57.3931V57.3605V57.3279V57.2951V57.2622V57.2292V57.196V57.1627V57.1293V57.0958V57.0622V57.0285V56.9946V56.9607V56.9266V56.8924V56.858V56.8236V56.7891V56.7544V56.7196V56.6847V56.6497V56.6146V56.5794V56.544V56.5086V56.473V56.4373V56.4015V56.3656V56.3296V56.2935V56.2573V56.2209V56.1845V56.1479V56.1113V56.0745V56.0376V56.0006V55.9636V55.9264V55.8891V55.8517V55.8141V55.7765V55.7388V55.701V55.663V55.625V55.5869V55.5486V55.5103V55.4718V55.4333V55.3946V55.3559V55.317V55.2781V55.2391V55.1999V55.1607V55.1213V55.0819V55.0423V55.0027V54.9629V54.9231V54.8832V54.8432V54.803V54.7628V54.7225V54.6821V54.6416V54.601V54.5603V54.5195V54.4787V54.4377V54.3966V54.3555V54.3142V54.2729V54.2315V54.1899V54.1483V54.1066V54.0649V54.023V53.981V53.939V53.8968V53.8546V53.8123V53.7699V53.7274V53.6848V53.6422V53.5994V53.5566V53.5137V53.4707V53.4276V53.3844V53.3412V53.2978V53.2544V53.2109V53.1673V53.1237V53.0799V53.0361V52.9922V52.9482V52.9041V52.86V52.8158V52.7715V52.7271V52.6826V52.6381V52.5935V52.5488V52.504V52.4592V52.4143V52.3693V52.3242V52.2791V52.2338V52.1885V52.1432V52.0977V52.0522V52.0066V51.961V51.9153V51.8695V51.8236V51.7776V51.7316V51.6855V51.6394V51.5932V51.5469V51.5005V51.4541V51.4076V51.361V51.3144V51.2677V51.2209V51.1741V51.1272V51.0802V51.0332V50.9861V50.939V50.8918V50.8445V50.7971V50.7497V50.7022V50.6547V50.6071V50.5594V50.5117V50.4639V50.4161V50.3682V50.3202V50.2722V50.2241V50.176V50.1278V50.0796V50.0312V49.9829V49.9345V49.886V49.8374V49.7888V49.7402V49.6915V49.6427V49.5939V49.5451V49.4961V49.4472V49.3981V49.349V49.2999V49.2507V49.2015V49.1522V49.1029V49.0535V49.004V48.9546V48.905V48.8554V48.8058V48.7561V48.7064V48.6566V48.6068V48.5569V48.507V48.457V48.407V48.357V48.3069V48.2567V48.2065V48.1563V48.106V48.0557V48.0053V47.9549V47.9045V47.854V47.8035V47.7529V47.7023V47.6516V47.6009V47.5502V47.4994V47.4486V47.3977V47.3469V47.2959V47.245V47.194V47.1429V47.0919V47.0407V46.9896V46.9384V46.8872V46.8359V46.7847V46.7333V46.682V46.6306V46.5792V46.5277V46.4762V46.4247V46.3732V46.3216V46.27V46.2183V46.1667V46.115V46.0632V46.0115V45.9597V45.9079V45.856V45.8042V45.7523V45.7003V45.6484V45.5964V45.5444V45.4924V45.4403V45.3882V45.3361V45.284V45.2319V45.1797V45.1275V45.0753V45.023V44.9708V44.9185V44.8662V44.8139V44.7615V44.7091V44.6568V44.6043V44.5519V44.4995V44.447V44.3945V44.342V44.2895V44.237V44.1844V44.1319V44.0793V44.0267V43.9741V43.9215V43.8688V43.8162V43.7635V43.7108V43.6581V43.6054V43.5527V43.5C10.5 41.3159 10.9856 40.2911 11.594 39.7144C12.1322 39.2042 12.8081 38.9825 13.6353 38.7112C13.8047 38.6556 13.9804 38.598 14.1625 38.5353C15.1977 38.1795 16.327 37.6794 17.1686 36.3906C17.996 35.1236 18.5 33.1652 18.5 30C18.5 26.8408 17.9984 24.9601 17.1544 23.7997C16.2928 22.615 15.1362 22.2687 14.1213 22.0149C14.0392 21.9944 13.9584 21.9745 13.879 21.9549C12.9404 21.7234 12.19 21.5384 11.6107 20.935C10.9956 20.2943 10.5 19.0816 10.5 16.5V16.4385V16.3772V16.3159V16.2547V16.1937V16.1327V16.0719V16.0111V15.9505V15.8899V15.8295V15.7692V15.7089V15.6488V15.5888V15.5289V15.469V15.4093V15.3497V15.2902V15.2308V15.1715V15.1123V15.0533V14.9943V14.9354V14.8766V14.818V14.7594V14.7009V14.6426V14.5844V14.5262V14.4682V14.4102V14.3524V14.2947V14.2371V14.1796V14.1222V14.0649V14.0077V13.9506V13.8936V13.8367V13.78V13.7233V13.6668V13.6103V13.554V13.4977V13.4416V13.3856V13.3297V13.2739V13.2181V13.1626V13.1071V13.0517V12.9964V12.9412V12.8862V12.8312V12.7764V12.7216V12.667V12.6125V12.558V12.5037V12.4495V12.3954V12.3415V12.2876V12.2338V12.1801V12.1266V12.0731V12.0198V11.9666V11.9134V11.8604V11.8075V11.7547V11.702V11.6494V11.597V11.5446V11.4924V11.4402V11.3882V11.3362V11.2844V11.2327V11.1811V11.1296V11.0782V11.027V10.9758V10.9248V10.8738V10.823V10.7723V10.7216V10.6711V10.6207V10.5705V10.5203V10.4702V10.4203V10.3704V10.3207V10.2711V10.2216V10.1722V10.1229V10.0737V10.0246V9.97566V9.92681V9.87808V9.82945V9.78094V9.73253V9.68424V9.63606V9.58799V9.54003V9.49219V9.44445V9.39683V9.34932V9.30192V9.25463V9.20746V9.16039V9.11344V9.0666V9.01987V8.97326V8.92675V8.88036V8.83409V8.78792V8.74187V8.69593V8.6501V8.60438V8.55878V8.51329V8.46792V8.42265V8.3775V8.33247V8.28754V8.24273V8.19804V8.15345V8.10898V8.06463V8.02039V7.97626V7.93224V7.88834V7.84455V7.80088V7.75732V7.71388V7.67055V7.62733V7.58423V7.54124V7.49837V7.45561V7.41296V7.37043V7.32802V7.28572V7.24353V7.20146V7.15951V7.11767V7.07594V7.03433V6.99284V6.95146V6.91019V6.86905V6.82801V6.7871V6.74629V6.70561V6.66504V6.62459V6.58425V6.54402V6.50392V6.46393V6.42405V6.3843V6.34466V6.30513V6.26572V6.22643V6.18726V6.1482V6.10926V6.07043V6.03172V5.99313V5.95466V5.9163V5.87806V5.83994V5.80193V5.76405V5.72627V5.68862V5.65109V5.61367V5.57637V5.53919V5.50212V5.46517V5.42834V5.39163V5.35504V5.31857V5.28221V5.24597V5.20985V5.17385V5.13797V5.1022V5.06656V5.03103V4.99562V4.96033V4.92516V4.89011V4.85518V4.82037V4.78567V4.7511V4.71664V4.6823V4.64809V4.61399V4.58001V4.54615V4.51241V4.4788V4.4453V4.41192V4.37866V4.34552V4.3125V4.2796V4.24682V4.21416V4.18163V4.14921V4.11691V4.08473V4.05268V4.02074V3.98893V3.95724V3.92566V3.89421V3.86288V3.83167V3.80058V3.76962V3.73877V3.70805V3.67744V3.64696V3.6166V3.58636V3.55625V3.52625V3.49638V3.46663V3.437V3.40749V3.37811V3.34884V3.3197V3.29068V3.26179V3.23301V3.20436V3.17584V3.14743V3.11915V3.09099V3.06295V3.03503V3.00724V2.97957V2.95203V2.92461V2.89731V2.87013V2.84308V2.81615V2.78935V2.76266V2.73611V2.70967V2.68336V2.65718V2.63111V2.60517V2.57936V2.55367V2.5281V2.50266V2.47734V2.45215V2.42708V2.40213V2.37732V2.35262V2.32805V2.3036V2.27928V2.25509V2.23102V2.20707V2.18325V2.15955V2.13598V2.11254V2.08922V2.06602V2.04296V2.02001V1.9972V1.9745V1.95194V1.9295V1.90718V1.885V1.86293V1.841V1.81919V1.79751V1.77595V1.75452V1.73321V1.71204V1.69099V1.67006V1.64926V1.62859V1.60805V1.58763V1.56734V1.54718V1.52714V1.50723V1.48745V1.4678V1.44827V1.42887V1.4096V1.39046V1.37144V1.35255V1.33379V1.31516V1.29665V1.27828V1.26003V1.24191V1.22391V1.20605V1.18831V1.17071V1.15323V1.13588V1.11866V1.10156V1.0846V1.06776V1.05106V1.03448V1.01803V1.00171V0.985519V0.969458V0.953526V0.937723V0.92205V0.906506V0.891092V0.875807V0.860652V0.845627V0.830731V0.815966V0.80133V0.786825V0.772449V0.758204V0.744089V0.730104V0.71625V0.702526V0.688933V0.67547V0.662137V0.648936V0.635865V0.622925V0.610116V0.597438V0.58489V0.572474V0.560189V0.548036V0.536013V0.524122V0.512363V0.500735V0.5Z" fill="#C1F4A2" stroke="#2B5D17"/>
<line x1="111.5" x2="111.5" y2="61" stroke="#2B5D17" stroke-dasharray="2 2"/>
<line x1="115" y1="7" x2="130" y2="7" stroke="white" stroke-width="2"/>
<line x1="115" y1="10.75" x2="130" y2="10.75" stroke="white" stroke-width="0.5"/>
<line x1="115" y1="13.5" x2="130" y2="13.5" stroke="white"/>
<line x1="115" y1="16.6" x2="130" y2="16.6" stroke="white" stroke-width="0.8"/>
<line x1="115" y1="19.5" x2="130" y2="19.5" stroke="white"/>
<line x1="115" y1="22.5" x2="130" y2="22.5" stroke="white"/>
<line x1="115" y1="25.5" x2="130" y2="25.5" stroke="white"/>
<line x1="115" y1="28.75" x2="130" y2="28.75" stroke="white" stroke-width="0.5"/>
<line x1="115" y1="31.5" x2="130" y2="31.5" stroke="white"/>
<line x1="115" y1="34.5" x2="130" y2="34.5" stroke="white"/>
<line x1="115" y1="36.95" x2="130" y2="36.95" stroke="white" stroke-width="0.1"/>
<line x1="115" y1="40" x2="130" y2="40" stroke="white" stroke-width="2"/>
<line x1="115" y1="43.7" x2="130" y2="43.7" stroke="white" stroke-width="0.6"/>
<line x1="115" y1="46.5" x2="130" y2="46.5" stroke="white"/>
<line x1="115" y1="49.55" x2="130" y2="49.55" stroke="white" stroke-width="0.9"/>
<line x1="115" y1="52.5" x2="130" y2="52.5" stroke="white"/>
<path d="M40.7 12.48V12.86H38.7V19.5H38.25V12.86H36.25V12.48H40.7ZM42.0012 12.86C41.8945 12.86 41.8045 12.8267 41.7312 12.76C41.6578 12.6867 41.6212 12.59 41.6212 12.47C41.6212 12.3567 41.6578 12.2633 41.7312 12.19C41.8045 12.1167 41.8945 12.08 42.0012 12.08C42.1078 12.08 42.1978 12.1167 42.2712 12.19C42.3445 12.2633 42.3812 12.3567 42.3812 12.47C42.3812 12.59 42.3445 12.6867 42.2712 12.76C42.1978 12.8267 42.1078 12.86 42.0012 12.86ZM42.2212 14.07V19.5H41.7712V14.07H42.2212ZM43.5908 16.78C43.5908 16.2133 43.7008 15.72 43.9208 15.3C44.1474 14.88 44.4574 14.56 44.8508 14.34C45.2508 14.1133 45.7074 14 46.2208 14C46.9008 14 47.4574 14.17 47.8908 14.51C48.3308 14.85 48.6041 15.3067 48.7108 15.88H48.2408C48.1541 15.4133 47.9274 15.0467 47.5608 14.78C47.2008 14.5133 46.7541 14.38 46.2208 14.38C45.8208 14.38 45.4574 14.47 45.1308 14.65C44.8041 14.8233 44.5408 15.0933 44.3408 15.46C44.1474 15.82 44.0508 16.26 44.0508 16.78C44.0508 17.3067 44.1474 17.75 44.3408 18.11C44.5408 18.47 44.8041 18.74 45.1308 18.92C45.4574 19.1 45.8208 19.19 46.2208 19.19C46.7541 19.19 47.2008 19.0567 47.5608 18.79C47.9274 18.5233 48.1541 18.1567 48.2408 17.69H48.7108C48.6041 18.2567 48.3308 18.7133 47.8908 19.06C47.4508 19.4067 46.8941 19.58 46.2208 19.58C45.7074 19.58 45.2508 19.4667 44.8508 19.24C44.4574 19.0133 44.1474 18.69 43.9208 18.27C43.7008 17.8433 43.5908 17.3467 43.5908 16.78ZM52.9017 19.5L50.5317 17.01V19.5H50.0817V12.1H50.5317V16.53L52.8617 14.07H53.4917L50.8617 16.77L53.5217 19.5H52.9017ZM59.337 16.42C59.337 16.66 59.3303 16.84 59.317 16.96H54.627C54.6403 17.4467 54.747 17.8567 54.947 18.19C55.147 18.5233 55.4103 18.7733 55.737 18.94C56.0636 19.1067 56.4203 19.19 56.807 19.19C57.3403 19.19 57.787 19.06 58.147 18.8C58.507 18.5333 58.7336 18.1733 58.827 17.72H59.297C59.1903 18.2733 58.917 18.7233 58.477 19.07C58.037 19.41 57.4803 19.58 56.807 19.58C56.3003 19.58 55.847 19.4667 55.447 19.24C55.047 19.0133 54.7336 18.69 54.507 18.27C54.2803 17.8433 54.167 17.3467 54.167 16.78C54.167 16.2133 54.277 15.72 54.497 15.3C54.7236 14.88 55.037 14.56 55.437 14.34C55.837 14.1133 56.2936 14 56.807 14C57.327 14 57.777 14.1133 58.157 14.34C58.5436 14.56 58.837 14.8567 59.037 15.23C59.237 15.5967 59.337 15.9933 59.337 16.42ZM58.887 16.59C58.907 16.11 58.8203 15.7033 58.627 15.37C58.4403 15.0367 58.1836 14.79 57.857 14.63C57.5303 14.4633 57.177 14.38 56.797 14.38C56.417 14.38 56.0636 14.4633 55.737 14.63C55.417 14.79 55.1536 15.0367 54.947 15.37C54.747 15.7033 54.6403 16.11 54.627 16.59H58.887ZM61.367 14.46V18.05C61.367 18.45 61.4403 18.7267 61.587 18.88C61.7336 19.0267 61.9936 19.1 62.367 19.1H62.977V19.5H62.297C61.8236 19.5 61.4736 19.39 61.247 19.17C61.027 18.9433 60.917 18.57 60.917 18.05V14.46H60.097V14.07H60.917V12.69H61.367V14.07H62.977V14.46H61.367Z" fill="#102C07"/>
<line x1="28" y1="31.5" x2="103" y2="31.5" stroke="#2B5D17"/>
<path d="M26 43.5002C26 43.5002 55 54.0002 45.5 46.5002C36 39.0002 63 31.5002 64 39.0002C65 46.5002 80.5 52.5 83 46.5002C85.5 40.5003 100 43.5002 100 43.5002" stroke="#708E5E"/>
<path d="M15.31 6.822C15.554 6.866 15.758 6.986 15.922 7.182C16.09 7.378 16.174 7.608 16.174 7.872C16.174 8.088 16.122 8.282 16.018 8.454C15.918 8.622 15.766 8.756 15.562 8.856C15.362 8.952 15.118 9 14.83 9H13.492V4.788H14.806C15.226 4.788 15.542 4.886 15.754 5.082C15.97 5.274 16.078 5.524 16.078 5.832C16.078 6.1 16.006 6.318 15.862 6.486C15.718 6.65 15.534 6.762 15.31 6.822ZM13.762 6.702H14.818C15.134 6.702 15.376 6.628 15.544 6.48C15.716 6.328 15.802 6.12 15.802 5.856C15.802 5.6 15.718 5.398 15.55 5.25C15.382 5.102 15.128 5.028 14.788 5.028H13.762V6.702ZM14.812 8.766C15.152 8.766 15.418 8.686 15.61 8.526C15.806 8.362 15.904 8.138 15.904 7.854C15.904 7.574 15.804 7.352 15.604 7.188C15.408 7.02 15.138 6.936 14.794 6.936H13.762V8.766H14.812ZM18.4006 9.048C18.0966 9.048 17.8226 8.98 17.5786 8.844C17.3346 8.708 17.1426 8.514 17.0026 8.262C16.8666 8.006 16.7986 7.708 16.7986 7.368C16.7986 7.032 16.8686 6.738 17.0086 6.486C17.1486 6.23 17.3406 6.036 17.5846 5.904C17.8326 5.768 18.1086 5.7 18.4126 5.7C18.7166 5.7 18.9906 5.768 19.2346 5.904C19.4786 6.036 19.6686 6.228 19.8046 6.48C19.9446 6.732 20.0146 7.028 20.0146 7.368C20.0146 7.708 19.9446 8.006 19.8046 8.262C19.6646 8.514 19.4706 8.708 19.2226 8.844C18.9786 8.98 18.7046 9.048 18.4006 9.048ZM18.4006 8.808C18.6366 8.808 18.8566 8.756 19.0606 8.652C19.2686 8.544 19.4346 8.382 19.5586 8.166C19.6826 7.95 19.7446 7.684 19.7446 7.368C19.7446 7.056 19.6826 6.792 19.5586 6.576C19.4346 6.36 19.2706 6.2 19.0666 6.096C18.8626 5.988 18.6426 5.934 18.4066 5.934C18.1706 5.934 17.9506 5.988 17.7466 6.096C17.5466 6.2 17.3846 6.36 17.2606 6.576C17.1366 6.792 17.0746 7.056 17.0746 7.368C17.0746 7.684 17.1346 7.95 17.2546 8.166C17.3786 8.382 17.5406 8.544 17.7406 8.652C17.9446 8.756 18.1646 8.808 18.4006 8.808ZM22.2678 9.048C21.9638 9.048 21.6898 8.98 21.4458 8.844C21.2018 8.708 21.0098 8.514 20.8698 8.262C20.7338 8.006 20.6658 7.708 20.6658 7.368C20.6658 7.032 20.7358 6.738 20.8758 6.486C21.0158 6.23 21.2078 6.036 21.4518 5.904C21.6998 5.768 21.9758 5.7 22.2798 5.7C22.5838 5.7 22.8578 5.768 23.1018 5.904C23.3458 6.036 23.5358 6.228 23.6718 6.48C23.8118 6.732 23.8818 7.028 23.8818 7.368C23.8818 7.708 23.8118 8.006 23.6718 8.262C23.5318 8.514 23.3378 8.708 23.0898 8.844C22.8458 8.98 22.5718 9.048 22.2678 9.048ZM22.2678 8.808C22.5038 8.808 22.7238 8.756 22.9278 8.652C23.1358 8.544 23.3018 8.382 23.4258 8.166C23.5498 7.95 23.6118 7.684 23.6118 7.368C23.6118 7.056 23.5498 6.792 23.4258 6.576C23.3018 6.36 23.1378 6.2 22.9338 6.096C22.7298 5.988 22.5098 5.934 22.2738 5.934C22.0378 5.934 21.8178 5.988 21.6138 6.096C21.4138 6.2 21.2518 6.36 21.1278 6.576C21.0038 6.792 20.9418 7.056 20.9418 7.368C20.9418 7.684 21.0018 7.95 21.1218 8.166C21.2458 8.382 21.4078 8.544 21.6078 8.652C21.8118 8.756 22.0318 8.808 22.2678 8.808ZM26.393 9L24.971 7.506V9H24.701V4.56H24.971V7.218L26.369 5.742H26.747L25.169 7.362L26.765 9H26.393ZM27.5901 4.788V9H27.3201V4.788H27.5901ZM30.0499 5.676C30.4379 5.676 30.7539 5.796 30.9979 6.036C31.2419 6.272 31.3639 6.624 31.3639 7.092V9H31.0999V7.11C31.0999 6.722 31.0019 6.426 30.8059 6.222C30.6099 6.014 30.3439 5.91 30.0079 5.91C29.6559 5.91 29.3739 6.022 29.1619 6.246C28.9539 6.47 28.8499 6.802 28.8499 7.242V9H28.5799V5.742H28.8499V6.432C28.9419 6.188 29.0939 6.002 29.3059 5.874C29.5219 5.742 29.7699 5.676 30.0499 5.676Z" fill="#102C07"/>
<rect x="132" y="12" width="2" height="36" fill="#102C07"/>
</g>
<g filter="url(#filter1_d_39_30)">
<path d="M4.64086 52.8135L131.499 6.64076L131.503 6.65168L131.507 6.66304L131.512 6.67454L131.516 6.68616L131.52 6.69791L131.524 6.70979L131.529 6.72179L131.533 6.73393L131.538 6.7462L131.542 6.75859L131.547 6.77111L131.551 6.78376L131.556 6.79653L131.561 6.80944L131.566 6.82247L131.57 6.83563L131.575 6.84891L131.58 6.86233L131.585 6.87587L131.59 6.88954L131.595 6.90333L131.6 6.91725L131.605 6.9313L131.61 6.94547L131.615 6.95977L131.621 6.9742L131.626 6.98875L131.631 7.00343L131.637 7.01824L131.642 7.03317L131.648 7.04822L131.653 7.0634L131.659 7.07871L131.664 7.09414L131.67 7.1097L131.676 7.12538L131.682 7.14119L131.687 7.15712L131.693 7.17317L131.699 7.18935L131.705 7.20566L131.711 7.22209L131.717 7.23864L131.723 7.25531L131.729 7.27211L131.735 7.28904L131.742 7.30609L131.748 7.32326L131.754 7.34055L131.76 7.35797L131.767 7.37551L131.773 7.39317L131.78 7.41096L131.786 7.42887L131.793 7.4469L131.799 7.46505L131.806 7.48333L131.813 7.50173L131.819 7.52025L131.826 7.53889L131.833 7.55765L131.84 7.57654L131.847 7.59555L131.854 7.61467L131.861 7.63392L131.868 7.65329L131.875 7.67279L131.882 7.6924L131.889 7.71213L131.897 7.73199L131.904 7.75196L131.911 7.77206L131.918 7.79227L131.926 7.81261L131.933 7.83306L131.941 7.85364L131.948 7.87433L131.956 7.89515L131.964 7.91608L131.971 7.93714L131.979 7.95831L131.987 7.9796L131.994 8.00101L132.002 8.02254L132.01 8.04419L132.018 8.06596L132.026 8.08785L132.034 8.10985L132.042 8.13197L132.05 8.15421L132.058 8.17657L132.067 8.19905L132.075 8.22164L132.083 8.24436L132.091 8.26718L132.1 8.29013L132.108 8.3132L132.117 8.33638L132.125 8.35968L132.134 8.38309L132.142 8.40662L132.151 8.43027L132.159 8.45404L132.168 8.47792L132.177 8.50191L132.186 8.52603L132.194 8.55026L132.203 8.5746L132.212 8.59906L132.221 8.62364L132.23 8.64833L132.239 8.67314L132.248 8.69806L132.257 8.7231L132.266 8.74825L132.276 8.77352L132.285 8.7989L132.294 8.8244L132.303 8.85001L132.313 8.87574L132.322 8.90158L132.332 8.92753L132.341 8.9536L132.351 8.97978L132.36 9.00608L132.37 9.03249L132.38 9.05901L132.389 9.08565L132.399 9.1124L132.409 9.13926L132.419 9.16623L132.428 9.19332L132.438 9.22052L132.448 9.24784L132.458 9.27526L132.468 9.3028L132.478 9.33045L132.488 9.35821L132.499 9.38609L132.509 9.41407L132.519 9.44217L132.529 9.47038L132.54 9.4987L132.55 9.52713L132.56 9.55568L132.571 9.58433L132.581 9.6131L132.592 9.64197L132.602 9.67096L132.613 9.70006L132.623 9.72927L132.634 9.75859L132.645 9.78801L132.656 9.81755L132.666 9.8472L132.677 9.87696L132.688 9.90683L132.699 9.9368L132.71 9.96689L132.721 9.99709L132.732 10.0274L132.743 10.0578L132.754 10.0883L132.765 10.119L132.777 10.1497L132.788 10.1806L132.799 10.2115L132.81 10.2426L132.822 10.2738L132.833 10.305L132.844 10.3364L132.856 10.3679L132.867 10.3995L132.879 10.4312L132.891 10.4631L132.902 10.495L132.914 10.527L132.926 10.5592L132.937 10.5914L132.949 10.6238L132.961 10.6562L132.973 10.6888L132.985 10.7215L132.997 10.7543L133.009 10.7872L133.021 10.8201L133.033 10.8532L133.045 10.8864L133.057 10.9198L133.069 10.9532L133.081 10.9867L133.093 11.0203L133.106 11.0541L133.118 11.0879L133.13 11.1218L133.143 11.1559L133.155 11.19L133.168 11.2243L133.18 11.2587L133.193 11.2931L133.205 11.3277L133.218 11.3624L133.231 11.3971L133.243 11.432L133.256 11.467L133.269 11.5021L133.282 11.5373L133.294 11.5726L133.307 11.608L133.32 11.6435L133.333 11.6791L133.346 11.7148L133.359 11.7506L133.372 11.7865L133.385 11.8225L133.399 11.8586L133.412 11.8949L133.425 11.9312L133.438 11.9676L133.451 12.0041L133.465 12.0408L133.478 12.0775L133.492 12.1143L133.505 12.1512L133.519 12.1883L133.532 12.2254L133.546 12.2626L133.559 12.3L133.573 12.3374L133.586 12.3749L133.6 12.4126L133.614 12.4503L133.628 12.4881L133.641 12.5261L133.655 12.5641L133.669 12.6022L133.683 12.6405L133.697 12.6788L133.711 12.7172L133.725 12.7558L133.739 12.7944L133.753 12.8331L133.767 12.872L133.782 12.9109L133.796 12.9499L133.81 12.989L133.824 13.0283L133.839 13.0676L133.853 13.107L133.867 13.1465L133.882 13.1861L133.896 13.2259L133.911 13.2657L133.925 13.3056L133.94 13.3456L133.954 13.3857L133.969 13.4259L133.984 13.4662L133.998 13.5066L134.013 13.5471L134.028 13.5876L134.043 13.6283L134.057 13.6691L134.072 13.71L134.087 13.751L134.102 13.792L134.117 13.8332L134.132 13.8745L134.147 13.9158L134.162 13.9573L134.177 13.9988L134.193 14.0404L134.208 14.0822L134.223 14.124L134.238 14.1659L134.254 14.208L134.269 14.2501L134.284 14.2923L134.3 14.3346L134.315 14.377L134.331 14.4195L134.346 14.4621L134.362 14.5047L134.377 14.5475L134.393 14.5904L134.408 14.6333L134.424 14.6764L134.44 14.7195L134.456 14.7628L134.471 14.8061L134.487 14.8495L134.503 14.8931L134.519 14.9367L134.535 14.9804L134.551 15.0242L134.567 15.0681L134.583 15.112L134.599 15.1561L134.615 15.2003L134.631 15.2445L134.647 15.2889L134.663 15.3333L134.679 15.3778L134.696 15.4225L134.712 15.4672L134.728 15.512L134.745 15.5569L134.761 15.6018L134.777 15.6469L134.794 15.6921L134.81 15.7373L134.827 15.7827L134.843 15.8281L134.86 15.8736L134.876 15.9193L134.893 15.965L134.91 16.0108L134.926 16.0566L134.943 16.1026L134.96 16.1487L134.977 16.1948L134.994 16.2411L135.01 16.2874L135.027 16.3338L135.044 16.3803L135.061 16.4269L135.078 16.4736L135.095 16.5204L135.112 16.5672L135.129 16.6142L135.147 16.6612L135.164 16.7083L135.181 16.7555L135.198 16.8028L135.215 16.8502L135.233 16.8977L135.25 16.9452L135.267 16.9929L135.285 17.0406L135.302 17.0884L135.319 17.1363L135.337 17.1843L135.354 17.2324L135.372 17.2806L135.39 17.3288L135.407 17.3772L135.425 17.4256L135.442 17.4741L135.46 17.5227L135.478 17.5714L135.496 17.6201L135.513 17.669L135.531 17.7179L135.549 17.7669L135.567 17.816L135.585 17.8652L135.603 17.9145L135.621 17.9638L135.639 18.0133L135.657 18.0628L135.675 18.1124L135.693 18.1621L135.711 18.2119L135.729 18.2617L135.747 18.3117L135.765 18.3617L135.784 18.4118L135.802 18.462L135.82 18.5123L135.839 18.5626L135.857 18.6131L135.875 18.6636L135.894 18.7142L135.912 18.7649L135.931 18.8157L135.949 18.8665L135.968 18.9174L135.986 18.9685L136.005 19.0196L136.024 19.0707L136.042 19.122L136.061 19.1733L136.08 19.2248L136.098 19.2763L136.117 19.3279L136.136 19.3795L136.155 19.4313L136.174 19.4831L136.192 19.535L136.211 19.587L136.23 19.6391L136.249 19.6912L136.268 19.7434L136.287 19.7957L136.306 19.8481L136.326 19.9006L136.345 19.9531L136.364 20.0058L136.383 20.0585L136.402 20.1113L136.421 20.1641L136.441 20.2171L136.46 20.2701L136.479 20.3232L136.499 20.3764L136.518 20.4296L136.538 20.483L136.557 20.5364L136.576 20.5899L136.596 20.6434L136.615 20.6971L136.635 20.7508L136.655 20.8046L136.674 20.8585L136.694 20.9124L136.714 20.9665L136.733 21.0206L136.753 21.0748L136.773 21.129L136.792 21.1834L136.812 21.2378L136.832 21.2923L136.852 21.3468L136.872 21.4015L136.892 21.4562L136.912 21.511L136.932 21.5659L136.952 21.6208L136.972 21.6758C137.814 23.9907 137.742 25.1588 137.406 25.8492C137.237 26.1964 136.981 26.4659 136.653 26.719C136.416 26.9012 136.169 27.0566 135.897 27.2279C135.772 27.3067 135.641 27.3887 135.504 27.4783C134.658 28.0306 133.755 28.7543 133.435 30.2369C133.126 31.6688 133.378 33.731 134.541 36.9268C135.704 40.121 136.816 41.8099 137.965 42.6657C139.148 43.5477 140.297 43.4878 141.279 43.4312L141.288 43.4307C142.275 43.3738 143.073 43.3277 143.917 43.9203C144.792 44.5354 145.787 45.8964 146.89 48.9269L146.916 48.9984L146.942 49.0696L146.968 49.1406L146.994 49.2114L147.02 49.282L147.045 49.3523L147.071 49.4225L147.096 49.4924L147.121 49.562L147.147 49.6315L147.172 49.7007L147.197 49.7697L147.222 49.8385L147.247 49.907L147.272 49.9754L147.297 50.0435L147.321 50.1114L147.346 50.1791L147.371 50.2465L147.395 50.3138L147.419 50.3808L147.444 50.4476L147.468 50.5142L147.492 50.5805L147.516 50.6467L147.54 50.7126L147.564 50.7783L147.588 50.8438L147.612 50.9091L147.635 50.9742L147.659 51.039L147.683 51.1036L147.706 51.1681L147.729 51.2323L147.753 51.2962L147.776 51.36L147.799 51.4236L147.822 51.4869L147.845 51.55L147.868 51.613L147.891 51.6757L147.913 51.7382L147.936 51.8005L147.959 51.8625L147.981 51.9244L148.004 51.986L148.026 52.0475L148.048 52.1087L148.071 52.1697L148.093 52.2305L148.115 52.2911L148.137 52.3515L148.159 52.4117L148.18 52.4717L148.202 52.5315L148.224 52.591L148.246 52.6504L148.267 52.7095L148.288 52.7685L148.31 52.8272L148.331 52.8857L148.352 52.9441L148.374 53.0022L148.395 53.0601L148.416 53.1178L148.437 53.1753L148.457 53.2326L148.478 53.2897L148.499 53.3466L148.52 53.4033L148.54 53.4598L148.561 53.5161L148.581 53.5722L148.601 53.6281L148.622 53.6838L148.642 53.7392L148.662 53.7945L148.682 53.8496L148.702 53.9045L148.722 53.9592L148.742 54.0137L148.761 54.068L148.781 54.1221L148.801 54.176L148.82 54.2296L148.84 54.2831L148.859 54.3364L148.879 54.3895L148.898 54.4425L148.917 54.4952L148.936 54.5477L148.955 54.6L148.974 54.6521L148.993 54.7041L149.012 54.7558L149.031 54.8073L149.049 54.8587L149.068 54.9099L149.086 54.9608L149.105 55.0116L149.123 55.0622L149.142 55.1126L149.16 55.1627L149.178 55.2128L149.196 55.2626L149.214 55.3122L149.232 55.3616L149.25 55.4109L149.268 55.4599L149.286 55.5088L149.304 55.5575L149.321 55.6059L149.339 55.6542L149.356 55.7024L149.374 55.7503L149.391 55.798L149.408 55.8456L149.426 55.8929L149.443 55.9401L149.46 55.9871L149.477 56.0339L149.494 56.0805L149.511 56.127L149.528 56.1732L149.544 56.2193L149.561 56.2652L149.578 56.3109L149.594 56.3564L149.611 56.4017L149.627 56.4469L149.644 56.4918L149.66 56.5366L149.676 56.5812L149.692 56.6256L149.708 56.6699L149.725 56.7139L149.74 56.7578L149.756 56.8015L149.772 56.8451L149.788 56.8884L149.804 56.9316L149.819 56.9746L149.835 57.0174L149.85 57.06L149.866 57.1024L149.881 57.1447L149.897 57.1868L149.912 57.2287L149.927 57.2705L149.942 57.3121L149.957 57.3535L149.972 57.3947L149.987 57.4357L150.002 57.4766L150.017 57.5173L150.032 57.5578L150.046 57.5982L150.061 57.6384L150.076 57.6784L150.09 57.7182L150.104 57.7579L150.119 57.7973L150.133 57.8367L150.147 57.8758L150.162 57.9148L150.176 57.9536L150.19 57.9922L150.204 58.0307L150.218 58.069L150.232 58.1071L150.245 58.1451L150.259 58.1829L150.273 58.2205L150.286 58.2579L150.3 58.2952L150.314 58.3323L150.327 58.3693L150.34 58.4061L150.354 58.4427L150.367 58.4792L150.38 58.5154L150.393 58.5516L150.406 58.5875L150.419 58.6233L150.432 58.659L150.445 58.6944L150.458 58.7297L150.471 58.7649L150.484 58.7999L150.496 58.8347L150.509 58.8693L150.522 58.9038L150.534 58.9382L150.547 58.9723L150.559 59.0063L150.571 59.0402L150.583 59.0739L150.596 59.1074L150.608 59.1408L150.62 59.174L150.632 59.207L150.644 59.2399L150.656 59.2727L150.668 59.3053L150.679 59.3377L150.691 59.3699L150.703 59.402L150.715 59.434L150.726 59.4658L150.738 59.4974L150.749 59.5289L150.76 59.5603L150.772 59.5914L150.783 59.6225L150.794 59.6533L150.806 59.684L150.817 59.7146L150.828 59.745L150.839 59.7753L150.85 59.8054L150.861 59.8353L150.871 59.8651L150.882 59.8948L150.893 59.9243L150.904 59.9536L150.914 59.9828L150.925 60.0119L150.935 60.0408L150.946 60.0695L150.956 60.0981L150.967 60.1266L150.977 60.1549L150.987 60.183L150.997 60.211L151.007 60.2389L151.018 60.2666L151.028 60.2942L151.038 60.3216L151.048 60.3489L151.057 60.376L151.067 60.403L151.077 60.4298L151.087 60.4565L151.096 60.4831L151.106 60.5095L151.116 60.5357L151.125 60.5618L151.135 60.5878L151.144 60.6137L151.153 60.6394L151.163 60.6649L151.172 60.6903L151.181 60.7156L151.19 60.7407L151.199 60.7657L151.208 60.7905L151.217 60.8153L151.226 60.8398L151.235 60.8642L151.244 60.8885L151.253 60.9127L151.261 60.9367L151.27 60.9606L151.279 60.9843L151.287 61.0079L151.296 61.0314L151.304 61.0547L151.313 61.0779L151.321 61.101L151.33 61.1239L151.338 61.1467L151.346 61.1693L151.354 61.1918L151.362 61.2142L151.371 61.2365L151.379 61.2586L151.387 61.2806L151.395 61.3024L151.402 61.3241L151.41 61.3457L151.418 61.3672L151.426 61.3885L151.434 61.4097L151.441 61.4307L151.449 61.4517L151.456 61.4725L151.464 61.4931L151.471 61.5137L151.479 61.5341L151.486 61.5544L151.494 61.5745L151.501 61.5945L151.508 61.6144L151.515 61.6342L151.523 61.6539L151.53 61.6734L151.537 61.6928L151.544 61.712L151.551 61.7312L151.558 61.7502L151.564 61.7691L151.571 61.7878L151.578 61.8065L151.585 61.825L151.591 61.8434L151.598 61.8616L151.605 61.8798L151.611 61.8978L151.618 61.9157L151.624 61.9335L151.631 61.9512L151.637 61.9687L151.643 61.9861L151.65 62.0034L151.656 62.0206L151.662 62.0376L151.668 62.0546L151.674 62.0714L151.681 62.0881L151.687 62.1046L151.693 62.1211L151.699 62.1374L151.704 62.1537L151.71 62.1698L151.716 62.1858L151.722 62.2016L151.728 62.2174L151.733 62.233L151.739 62.2486L151.745 62.264L151.75 62.2793L151.756 62.2944L151.761 62.3095L151.767 62.3245L151.772 62.3393L151.777 62.354L151.783 62.3686L151.788 62.3831L151.793 62.3975L151.798 62.4118L151.804 62.426L151.809 62.44L151.814 62.454L151.819 62.4678L151.824 62.4815L151.829 62.4951L151.834 62.5086L151.838 62.522L151.843 62.5353L151.848 62.5485L151.853 62.5615L151.858 62.5745L151.862 62.5873L151.867 62.6001L151.872 62.6127L151.876 62.6253L151.881 62.6377L151.885 62.65L151.89 62.6622L151.894 62.6743L151.898 62.6863L151.903 62.6982L151.907 62.71L151.911 62.7217L151.915 62.7333L151.92 62.7448L151.924 62.7562L151.928 62.7674L151.932 62.7786L151.936 62.7897L151.94 62.8007L151.944 62.8115L151.948 62.8223L151.952 62.833L151.956 62.8435L151.959 62.854L151.963 62.8644L151.967 62.8747L151.971 62.8848L151.974 62.8949L151.978 62.9049L151.981 62.9148L151.985 62.9245L151.989 62.9342L151.992 62.9438L151.995 62.9533L151.999 62.9627L152.002 62.972L152.006 62.9812L152.009 62.9903L152.012 62.9993L152.015 63.0082L152.019 63.0171L152.021 63.0223L25.1621 109.195L25.1592 109.187L25.1545 109.174L25.1499 109.162L25.1451 109.148L25.1403 109.135L25.1355 109.122L25.1306 109.109L25.1256 109.095L25.1206 109.081L25.1155 109.067L25.1104 109.053L25.1052 109.039L25.1 109.024L25.0947 109.01L25.0893 108.995L25.0839 108.98L25.0785 108.965L25.0729 108.95L25.0674 108.935L25.0617 108.919L25.056 108.904L25.0503 108.888L25.0445 108.872L25.0386 108.856L25.0327 108.84L25.0268 108.823L25.0208 108.807L25.0147 108.79L25.0086 108.773L25.0024 108.756L24.9962 108.739L24.9899 108.722L24.9835 108.705L24.9771 108.687L24.9707 108.669L24.9642 108.651L24.9576 108.633L24.951 108.615L24.9444 108.597L24.9377 108.579L24.9309 108.56L24.9241 108.541L24.9172 108.522L24.9103 108.503L24.9033 108.484L24.8963 108.465L24.8892 108.445L24.8821 108.426L24.8749 108.406L24.8677 108.386L24.8604 108.366L24.853 108.346L24.8457 108.326L24.8382 108.305L24.8307 108.285L24.8232 108.264L24.8156 108.243L24.808 108.222L24.8003 108.201L24.7925 108.18L24.7847 108.158L24.7769 108.137L24.769 108.115L24.7611 108.093L24.7531 108.071L24.745 108.049L24.7369 108.027L24.7288 108.005L24.7206 107.982L24.7124 107.959L24.7041 107.937L24.6957 107.914L24.6873 107.891L24.6789 107.868L24.6704 107.844L24.6619 107.821L24.6533 107.797L24.6447 107.774L24.636 107.75L24.6273 107.726L24.6185 107.702L24.6097 107.677L24.6008 107.653L24.5919 107.629L24.5829 107.604L24.5739 107.579L24.5649 107.554L24.5558 107.529L24.5466 107.504L24.5374 107.479L24.5282 107.453L24.5189 107.428L24.5095 107.402L24.5002 107.376L24.4907 107.351L24.4813 107.325L24.4717 107.298L24.4622 107.272L24.4526 107.246L24.4429 107.219L24.4332 107.192L24.4234 107.166L24.4136 107.139L24.4038 107.112L24.3939 107.085L24.384 107.057L24.374 107.03L24.364 107.002L24.3539 106.975L24.3438 106.947L24.3337 106.919L24.3235 106.891L24.3133 106.863L24.303 106.835L24.2926 106.806L24.2823 106.778L24.2719 106.749L24.2614 106.72L24.2509 106.692L24.2404 106.663L24.2298 106.634L24.2191 106.604L24.2085 106.575L24.1978 106.546L24.187 106.516L24.1762 106.486L24.1654 106.457L24.1545 106.427L24.1436 106.397L24.1326 106.367L24.1216 106.336L24.1105 106.306L24.0994 106.276L24.0883 106.245L24.0771 106.214L24.0659 106.183L24.0547 106.152L24.0434 106.121L24.032 106.09L24.0207 106.059L24.0092 106.028L23.9978 105.996L23.9863 105.965L23.9747 105.933L23.9632 105.901L23.9515 105.869L23.9399 105.837L23.9282 105.805L23.9164 105.773L23.9047 105.74L23.8929 105.708L23.881 105.675L23.8691 105.643L23.8572 105.61L23.8452 105.577L23.8332 105.544L23.8211 105.511L23.809 105.478L23.7969 105.444L23.7848 105.411L23.7726 105.377L23.7603 105.344L23.748 105.31L23.7357 105.276L23.7234 105.242L23.711 105.208L23.6985 105.174L23.6861 105.14L23.6736 105.105L23.661 105.071L23.6485 105.036L23.6358 105.002L23.6232 104.967L23.6105 104.932L23.5978 104.897L23.585 104.862L23.5722 104.827L23.5594 104.792L23.5465 104.756L23.5336 104.721L23.5207 104.685L23.5077 104.65L23.4947 104.614L23.4817 104.578L23.4686 104.542L23.4555 104.506L23.4423 104.47L23.4291 104.434L23.4159 104.398L23.4027 104.361L23.3894 104.325L23.3761 104.288L23.3627 104.251L23.3493 104.215L23.3359 104.178L23.3224 104.141L23.309 104.104L23.2954 104.067L23.2819 104.029L23.2683 103.992L23.2547 103.954L23.241 103.917L23.2273 103.879L23.2136 103.842L23.1998 103.804L23.186 103.766L23.1722 103.728L23.1584 103.69L23.1445 103.652L23.1306 103.614L23.1166 103.575L23.1026 103.537L23.0886 103.498L23.0746 103.46L23.0605 103.421L23.0464 103.382L23.0323 103.343L23.0181 103.305L23.0039 103.266L22.9897 103.226L22.9754 103.187L22.9611 103.148L22.9468 103.109L22.9324 103.069L22.9181 103.03L22.9036 102.99L22.8892 102.95L22.8747 102.911L22.8602 102.871L22.8457 102.831L22.8311 102.791L22.8165 102.751L22.8019 102.711L22.7873 102.67L22.7726 102.63L22.7579 102.59L22.7432 102.549L22.7284 102.509L22.7136 102.468L22.6988 102.427L22.6839 102.386L22.669 102.346L22.6541 102.305L22.6392 102.264L22.6242 102.222L22.6093 102.181L22.5942 102.14L22.5792 102.099L22.5641 102.057L22.549 102.016L22.5339 101.974L22.5188 101.933L22.5036 101.891L22.4884 101.849L22.4731 101.807L22.4579 101.765L22.4426 101.723L22.4273 101.681L22.4119 101.639L22.3966 101.597L22.3812 101.555L22.3658 101.512L22.3503 101.47L22.3349 101.427L22.3194 101.385L22.3039 101.342L22.2883 101.299L22.2728 101.257L22.2572 101.214L22.2415 101.171L22.2259 101.128L22.2102 101.085L22.1946 101.042L22.1788 100.999L22.1631 100.955L22.1473 100.912L22.1316 100.869L22.1157 100.825L22.0999 100.782L22.0841 100.738L22.0682 100.695L22.0523 100.651L22.0364 100.607L22.0204 100.563L22.0044 100.52L21.9884 100.476L21.9724 100.432L21.9564 100.387L21.9403 100.343L21.9242 100.299L21.9081 100.255L21.892 100.211L21.8759 100.166L21.8597 100.122L21.8435 100.077L21.8273 100.033L21.811 99.9882L21.7948 99.9435L21.7785 99.8988L21.7622 99.854L21.7459 99.8091L21.7295 99.7642L21.7132 99.7193L21.6968 99.6743L21.6804 99.6292L21.664 99.5841L21.6475 99.5389L21.6311 99.4937L21.6146 99.4484L21.5981 99.403L21.5815 99.3576L21.565 99.3122L21.5484 99.2667L21.5319 99.2211L21.5153 99.1755L21.4986 99.1298L21.482 99.0841L21.4653 99.0384L21.4487 98.9925L21.432 98.9467L21.4153 98.9008L21.3985 98.8548L21.3818 98.8088L21.365 98.7627L21.3482 98.7166L21.3314 98.6704L21.3146 98.6242L21.2977 98.5779L21.2809 98.5316L21.264 98.4852L21.2471 98.4388L21.2302 98.3924L21.2133 98.3459L21.1964 98.2993L21.1794 98.2527L21.1624 98.2061L21.1454 98.1594L21.1284 98.1127L21.1114 98.0659L21.0943 98.0191L21.0773 97.9722L21.0602 97.9253L21.0431 97.8784L21.026 97.8314L21.0089 97.7843L20.9918 97.7372L20.9746 97.6901L20.9575 97.643L20.9403 97.5958L20.9231 97.5485L20.9059 97.5012L20.8886 97.4539L20.8714 97.4065L20.8541 97.3591L20.8369 97.3117L20.8196 97.2642L20.8023 97.2167L20.785 97.1691L20.7677 97.1215L20.7503 97.0739L20.733 97.0262L20.7156 96.9785L20.6982 96.9307L20.6808 96.883L20.6634 96.8351L20.646 96.7873L20.6286 96.7394L20.6111 96.6915L20.5937 96.6435L20.5762 96.5955L20.5587 96.5475L20.5412 96.4994L20.5237 96.4513L20.5062 96.4032L20.4887 96.355L20.4711 96.3068L20.4536 96.2586L20.436 96.2103L20.4184 96.1621L20.4009 96.1137L20.3833 96.0654L20.3657 96.017L20.348 95.9686L20.3304 95.9202L20.3128 95.8717L20.2951 95.8232L20.2774 95.7747L20.2598 95.7261L20.2421 95.6775L20.2244 95.6289L20.2067 95.5803L20.189 95.5316L20.1713 95.4829L20.1535 95.4342L20.1358 95.3855L20.118 95.3367L20.1003 95.2879L20.0825 95.2391L20.0647 95.1902L20.047 95.1414L20.0292 95.0925L20.0114 95.0436L19.9935 94.9946L19.9757 94.9457L19.9579 94.8967L19.9401 94.8477L19.9222 94.7987L19.9044 94.7496L19.8865 94.7005L19.8686 94.6514L19.8508 94.6023L19.8329 94.5532L19.815 94.5041L19.7971 94.4549L19.7792 94.4057L19.7613 94.3565L19.7434 94.3073L19.7254 94.258L19.7075 94.2088L19.6896 94.1595L19.6716 94.1102L19.6537 94.0609L19.6357 94.0115L19.6178 93.9622L19.5998 93.9128L19.5818 93.8634L19.5638 93.814L19.5459 93.7646L19.5279 93.7152L19.5099 93.6658L19.4919 93.6163L19.4739 93.5669L19.4559 93.5174L19.4379 93.4679L19.4198 93.4184L19.4018 93.3689L19.3838 93.3194L19.3658 93.2698L19.3477 93.2203C18.6007 91.1679 18.7065 90.0388 19.081 89.2888C19.4123 88.6253 19.9715 88.1858 20.6561 87.6479C20.7962 87.5378 20.9416 87.4235 21.0914 87.3024C21.9424 86.6139 22.8325 85.7577 23.1826 84.2588C23.5268 82.7853 23.3306 80.7726 22.248 77.7983C21.1675 74.8296 20.0529 73.2339 18.8629 72.4321C17.6481 71.6135 16.4428 71.6837 15.4023 71.7924C15.3181 71.8012 15.2354 71.8101 15.1541 71.8188C14.1929 71.9223 13.4244 72.0051 12.6737 71.6362C11.8766 71.2445 10.9961 70.2744 10.1132 67.8486L10.0922 67.7908L10.0712 67.7331L10.0502 67.6756L10.0293 67.6181L10.0084 67.5607L9.98756 67.5034L9.96675 67.4462L9.94597 67.3892L9.92523 67.3322L9.90452 67.2753L9.88385 67.2185L9.86321 67.1618L9.84261 67.1052L9.82205 67.0487L9.80152 66.9923L9.78103 66.936L9.76057 66.8798L9.74015 66.8237L9.71976 66.7677L9.69941 66.7117L9.67909 66.6559L9.65881 66.6002L9.63857 66.5446L9.61836 66.4891L9.59819 66.4336L9.57805 66.3783L9.55795 66.3231L9.53789 66.268L9.51786 66.2129L9.49787 66.158L9.47791 66.1032L9.45799 66.0484L9.4381 65.9938L9.41825 65.9393L9.39844 65.8848L9.37866 65.8305L9.35892 65.7763L9.33922 65.7221L9.31955 65.6681L9.29991 65.6141L9.28032 65.5603L9.26076 65.5066L9.24123 65.4529L9.22174 65.3994L9.20229 65.3459L9.18288 65.2926L9.1635 65.2393L9.14415 65.1862L9.12485 65.1332L9.10558 65.0802L9.08634 65.0274L9.06715 64.9746L9.04798 64.922L9.02886 64.8694L9.00977 64.817L8.99072 64.7646L8.9717 64.7124L8.95273 64.6602L8.93378 64.6082L8.91488 64.5563L8.89601 64.5044L8.87718 64.4527L8.85838 64.401L8.83962 64.3495L8.8209 64.2981L8.80221 64.2467L8.78356 64.1955L8.76495 64.1443L8.74638 64.0933L8.72784 64.0424L8.70934 63.9915L8.69087 63.9408L8.67244 63.8902L8.65405 63.8396L8.6357 63.7892L8.61738 63.7389L8.5991 63.6887L8.58086 63.6385L8.56265 63.5885L8.54448 63.5386L8.52635 63.4888L8.50825 63.4391L8.4902 63.3895L8.47218 63.3399L8.45419 63.2905L8.43625 63.2412L8.41834 63.192L8.40046 63.1429L8.38263 63.0939L8.36483 63.045L8.34707 62.9962L8.32935 62.9475L8.31166 62.8989L8.29401 62.8505L8.2764 62.8021L8.25883 62.7538L8.24129 62.7056L8.2238 62.6575L8.20633 62.6096L8.18891 62.5617L8.17152 62.5139L8.15418 62.4663L8.13686 62.4187L8.11959 62.3712L8.10236 62.3239L8.08516 62.2766L8.068 62.2295L8.05087 62.1824L8.03379 62.1355L8.01674 62.0887L7.99973 62.0419L7.98276 61.9953L7.96583 61.9488L7.94893 61.9023L7.93207 61.856L7.91525 61.8098L7.89847 61.7637L7.88172 61.7177L7.86502 61.6718L7.84835 61.626L7.83172 61.5803L7.81512 61.5347L7.79857 61.4892L7.78205 61.4438L7.76557 61.3986L7.74913 61.3534L7.73273 61.3083L7.71637 61.2634L7.70004 61.2185L7.68375 61.1738L7.6675 61.1291L7.65129 61.0846L7.63512 61.0401L7.61898 60.9958L7.60288 60.9516L7.58683 60.9075L7.57081 60.8635L7.55482 60.8195L7.53888 60.7757L7.52298 60.732L7.50711 60.6885L7.49128 60.645L7.47549 60.6016L7.45974 60.5583L7.44403 60.5151L7.42835 60.4721L7.41272 60.4291L7.39712 60.3863L7.38156 60.3435L7.36604 60.3009L7.35056 60.2583L7.33512 60.2159L7.31972 60.1736L7.30435 60.1314L7.28903 60.0893L7.27374 60.0473L7.25849 60.0054L7.24328 59.9636L7.22811 59.9219L7.21298 59.8803L7.19789 59.8389L7.18283 59.7975L7.16782 59.7563L7.15284 59.7151L7.1379 59.6741L7.12301 59.6331L7.10815 59.5923L7.09333 59.5516L7.07855 59.511L7.0638 59.4705L7.0491 59.4301L7.03444 59.3898L7.01981 59.3496L7.00523 59.3095L6.99068 59.2696L6.97618 59.2297L6.96171 59.19L6.94728 59.1503L6.93289 59.1108L6.91854 59.0714L6.90423 59.0321L6.88996 58.9928L6.87573 58.9537L6.86154 58.9148L6.84739 58.8759L6.83327 58.8371L6.8192 58.7984L6.80516 58.7599L6.79117 58.7214L6.77722 58.6831L6.7633 58.6448L6.74942 58.6067L6.73559 58.5687L6.72179 58.5308L6.70803 58.493L6.69432 58.4553L6.68064 58.4177L6.667 58.3803L6.6534 58.3429L6.63985 58.3057L6.62633 58.2685L6.61285 58.2315L6.59941 58.1946L6.58601 58.1578L6.57265 58.1211L6.55933 58.0845L6.54606 58.048L6.53282 58.0116L6.51962 57.9753L6.50646 57.9392L6.49334 57.9031L6.48026 57.8672L6.46722 57.8314L6.45422 57.7957L6.44127 57.7601L6.42835 57.7246L6.41547 57.6892L6.40263 57.6539L6.38983 57.6188L6.37708 57.5837L6.36436 57.5488L6.35168 57.5139L6.33905 57.4792L6.32645 57.4446L6.31389 57.4101L6.30138 57.3757L6.2889 57.3415L6.27647 57.3073L6.26407 57.2732L6.25172 57.2393L6.23941 57.2055L6.22713 57.1717L6.2149 57.1381L6.20271 57.1046L6.19056 57.0713L6.17845 57.038L6.16638 57.0048L6.15435 56.9718L6.14236 56.9388L6.13042 56.906L6.11851 56.8733L6.10664 56.8407L6.09482 56.8082L6.08303 56.7758L6.07129 56.7436L6.05959 56.7114L6.04792 56.6794L6.0363 56.6474L6.02472 56.6156L6.01318 56.5839L6.00168 56.5523L5.99023 56.5209L5.97881 56.4895L5.96744 56.4582L5.9561 56.4271L5.94481 56.3961L5.93356 56.3651L5.92235 56.3343L5.91118 56.3037L5.90005 56.2731L5.88896 56.2426L5.87791 56.2123L5.86691 56.182L5.85594 56.1519L5.84502 56.1219L5.83414 56.092L5.8233 56.0622L5.8125 56.0326L5.80175 56.003L5.79103 55.9736L5.78036 55.9442L5.76972 55.915L5.75913 55.8859L5.74858 55.8569L5.73807 55.8281L5.72761 55.7993L5.71718 55.7707L5.7068 55.7421L5.69645 55.7137L5.68615 55.6854L5.6759 55.6572L5.66568 55.6292L5.6555 55.6012L5.64537 55.5734L5.63528 55.5456L5.62523 55.518L5.61522 55.4905L5.60525 55.4631L5.59533 55.4359L5.58544 55.4087L5.5756 55.3817L5.5658 55.3548L5.55605 55.3279L5.54633 55.3013L5.53666 55.2747L5.52703 55.2482L5.51744 55.2219L5.50789 55.1956L5.49838 55.1695L5.48892 55.1435L5.4795 55.1176L5.47012 55.0919L5.46078 55.0662L5.45149 55.0407L5.44224 55.0153L5.43303 54.99L5.42386 54.9648L5.41473 54.9397L5.40565 54.9147L5.39661 54.8899L5.38761 54.8652L5.37865 54.8406L5.36974 54.8161L5.36087 54.7917L5.35204 54.7674L5.34325 54.7433L5.33451 54.7193L5.32581 54.6954L5.31715 54.6716L5.30853 54.6479L5.29996 54.6243L5.29142 54.6009L5.28294 54.5776L5.27449 54.5544L5.26609 54.5313L5.25773 54.5083L5.24941 54.4855L5.24113 54.4627L5.2329 54.4401L5.22471 54.4176L5.21656 54.3952L5.20846 54.373L5.2004 54.3508L5.19238 54.3288L5.1844 54.3069L5.17647 54.2851L5.16858 54.2634L5.16073 54.2418L5.15293 54.2204L5.14517 54.1991L5.13745 54.1779L5.12977 54.1568L5.12214 54.1358L5.11455 54.115L5.10701 54.0942L5.0995 54.0736L5.09205 54.0531L5.08463 54.0327L5.07726 54.0125L5.06993 53.9923L5.06264 53.9723L5.0554 53.9524L5.0482 53.9326L5.04104 53.913L5.03393 53.8934L5.02686 53.874L5.01983 53.8547L5.01285 53.8355L5.00591 53.8165L4.99901 53.7975L4.99216 53.7787L4.98535 53.76L4.97859 53.7414L4.97186 53.7229L4.96518 53.7046L4.95855 53.6863L4.95196 53.6682L4.94541 53.6502L4.93891 53.6324L4.93245 53.6146L4.92603 53.597L4.91966 53.5795L4.91333 53.5621L4.90704 53.5448L4.9008 53.5277L4.8946 53.5106L4.88845 53.4937L4.88234 53.477L4.87627 53.4603L4.87025 53.4437L4.86427 53.4273L4.85834 53.411L4.85245 53.3948L4.8466 53.3788L4.8408 53.3628L4.83504 53.347L4.82933 53.3313L4.82366 53.3157L4.81803 53.3003L4.81245 53.2849L4.80691 53.2697L4.80142 53.2546L4.79597 53.2397L4.79057 53.2248L4.78521 53.2101L4.77989 53.1955L4.77462 53.181L4.76939 53.1666L4.76421 53.1524L4.75907 53.1383L4.75397 53.1243L4.74892 53.1104L4.74392 53.0966L4.73896 53.083L4.73404 53.0695L4.72917 53.0561L4.72434 53.0429L4.71956 53.0297L4.71482 53.0167L4.71012 53.0038L4.70548 52.991L4.70087 52.9784L4.69631 52.9658L4.6918 52.9534L4.68732 52.9412L4.6829 52.929L4.67852 52.917L4.67418 52.905L4.66989 52.8933L4.66564 52.8816L4.66144 52.87L4.65729 52.8586L4.65317 52.8473L4.64911 52.8362L4.64508 52.8251L4.64111 52.8142L4.64086 52.8135Z" fill="#C1F4A2" stroke="#2B5D17"/>
<line x1="99.3788" y1="17.7997" x2="120.242" y2="75.1209" stroke="#2B5D17" stroke-dasharray="2 2"/>
<line x1="105.062" y1="23.1804" x2="119.157" y2="18.0501" stroke="white" stroke-width="2"/>
<line x1="106.344" y1="26.704" x2="120.44" y2="21.5737" stroke="white" stroke-width="0.5"/>
<line x1="107.285" y1="29.2885" x2="121.38" y2="24.1582" stroke="white"/>
<line x1="108.345" y1="32.2013" x2="122.441" y2="27.071" stroke="white" stroke-width="0.8"/>
<line x1="109.337" y1="34.9266" x2="123.432" y2="29.7963" stroke="white"/>
<line x1="110.363" y1="37.7455" x2="124.459" y2="32.6152" stroke="white"/>
<line x1="111.389" y1="40.5648" x2="125.485" y2="35.4345" stroke="white"/>
<line x1="112.501" y1="43.6186" x2="126.596" y2="38.4883" stroke="white" stroke-width="0.5"/>
<line x1="113.441" y1="46.203" x2="127.537" y2="41.0727" stroke="white"/>
<line x1="114.467" y1="49.0219" x2="128.563" y2="43.8916" stroke="white"/>
<line x1="115.305" y1="51.3241" x2="129.401" y2="46.1938" stroke="white" stroke-width="0.1"/>
<line x1="116.349" y1="54.1902" x2="130.444" y2="49.0599" stroke="white" stroke-width="2"/>
<line x1="117.614" y1="57.6673" x2="131.709" y2="52.537" stroke="white" stroke-width="0.6"/>
<line x1="118.572" y1="60.2982" x2="132.667" y2="55.1679" stroke="white"/>
<line x1="119.615" y1="63.1645" x2="133.71" y2="58.0342" stroke="white" stroke-width="0.9"/>
<line x1="120.624" y1="65.9364" x2="134.719" y2="60.8061" stroke="white"/>
<path d="M37.117 53.7423L37.247 54.0994L35.3676 54.7835L37.6386 61.023L37.2158 61.1769L34.9447 54.9374L33.0654 55.6214L32.9354 55.2643L37.117 53.7423ZM38.4697 53.6544C38.3695 53.6909 38.2735 53.6903 38.1818 53.6528C38.0878 53.6089 38.0203 53.5307 37.9792 53.4179C37.9405 53.3114 37.943 53.2111 37.9868 53.1172C38.0307 53.0232 38.1027 52.9579 38.2029 52.9214C38.3032 52.885 38.4003 52.8886 38.4943 52.9325C38.5883 52.9763 38.6546 53.0515 38.6934 53.158C38.7344 53.2707 38.733 53.3741 38.6892 53.4681C38.6431 53.5558 38.5699 53.6179 38.4697 53.6544ZM39.0903 54.7162L40.9474 59.8187L40.5246 59.9726L38.6674 54.8701L39.0903 54.7162ZM41.3042 56.7943C41.1103 56.2618 41.045 55.7606 41.1081 55.2907C41.1774 54.8185 41.3593 54.4118 41.6536 54.0705C41.952 53.7207 42.3424 53.458 42.8247 53.2825C43.4637 53.0499 44.045 53.0192 44.5685 53.1905C45.0982 53.3595 45.5112 53.6952 45.8076 54.1975L45.3659 54.3582C45.1249 53.9493 44.7865 53.6823 44.3507 53.5571C43.9212 53.4297 43.4559 53.4571 42.9547 53.6395C42.5788 53.7764 42.2682 53.9852 42.0228 54.2661C41.7751 54.5407 41.62 54.8845 41.5575 55.2974C41.4989 55.7018 41.5586 56.1483 41.7364 56.637C41.9166 57.1319 42.159 57.5154 42.4638 57.7876C42.7749 58.0575 43.1147 58.2211 43.4832 58.2785C43.8517 58.336 44.2239 58.2963 44.5998 58.1595C45.101 57.9771 45.4751 57.699 45.7222 57.3253C45.9756 56.9493 46.0631 56.5272 45.985 56.059L46.4266 55.8983C46.5202 56.4673 46.4195 56.9899 46.1246 57.4661C45.8297 57.9424 45.3659 58.2957 44.7332 58.5259C44.2508 58.7015 43.7829 58.7512 43.3295 58.675C42.8824 58.5965 42.4805 58.3987 42.1239 58.0816C41.7712 57.7559 41.498 57.3268 41.3042 56.7943ZM50.9839 56.1658L47.9052 54.6365L48.7568 56.9763L48.3339 57.1303L45.803 50.1765L46.2259 50.0226L47.741 54.1855L49.0891 51.0769L49.6811 50.8614L48.1332 54.2981L51.5665 55.9537L50.9839 56.1658ZM55.9776 51.0705C56.0597 51.296 56.115 51.4675 56.1435 51.5848L51.7363 53.1889C51.9153 53.6416 52.1558 53.9904 52.4577 54.2352C52.7597 54.4801 53.0926 54.6249 53.4566 54.6698C53.8206 54.7147 54.1842 54.671 54.5476 54.5388C55.0487 54.3564 55.424 54.0814 55.6734 53.714C55.9205 53.3403 56.0103 52.9245 55.943 52.4666L56.3846 52.3058C56.4737 52.8622 56.3707 53.3786 56.0758 53.8548C55.7786 54.3248 55.3137 54.675 54.681 54.9053C54.2048 55.0786 53.7401 55.1271 53.2867 55.0509C52.8333 54.9747 52.4283 54.7781 52.0716 54.4609C51.7127 54.1375 51.4363 53.7095 51.2425 53.1771C51.0487 52.6446 50.9833 52.1434 51.0464 51.6734C51.1158 51.2012 51.3008 50.7934 51.6014 50.4498C51.8997 50.1 52.2901 49.8373 52.7725 49.6618C53.2611 49.4839 53.7227 49.4365 54.1574 49.5195C54.5959 49.594 54.9731 49.7725 55.2887 50.0549C55.602 50.331 55.8317 50.6696 55.9776 51.0705ZM55.6129 51.3842C55.4675 50.9263 55.247 50.5738 54.9513 50.3267C54.6619 50.0773 54.3363 49.9333 53.9746 49.8947C53.6107 49.8498 53.2501 49.8923 52.8931 50.0223C52.536 50.1522 52.2324 50.3514 51.9825 50.6197C51.7365 50.8795 51.5734 51.2014 51.4932 51.5853C51.4193 51.9669 51.4581 52.3856 51.6098 52.8412L55.6129 51.3842ZM57.2148 48.5344L58.4427 51.9079C58.5795 52.2838 58.743 52.5187 58.9333 52.6126C59.1213 52.7003 59.3907 52.6803 59.7415 52.5526L60.3147 52.3439L60.4515 52.7198L59.8125 52.9524C59.3677 53.1143 59.0012 53.1306 58.713 53.0014C58.4287 52.8637 58.1977 52.5505 58.0198 52.0618L56.792 48.6883L56.0214 48.9688L55.888 48.6023L56.6586 48.3219L56.1866 47.0251L56.6094 46.8712L57.0814 48.1679L58.5943 47.6173L58.7277 47.9838L57.2148 48.5344Z" fill="#102C07"/>
<line x1="31.6881" y1="75.9584" x2="102.165" y2="50.3069" stroke="#2B5D17"/>
<path d="M33.913 87.9189C33.913 87.9189 64.7553 87.8671 53.2631 84.0685C41.7708 80.27 64.5774 63.9878 68.0822 70.6935C71.5871 77.3992 88.2044 77.7359 88.5016 71.2428C88.7987 64.7497 103.45 62.6094 103.45 62.6094" stroke="#708E5E"/>
<path d="M11.323 57.1093C11.5674 57.0672 11.8001 57.1102 12.0212 57.2383C12.2461 57.365 12.4037 57.5524 12.494 57.8005C12.5679 58.0034 12.5854 58.2035 12.5465 58.4007C12.51 58.5928 12.413 58.7707 12.2555 58.9344C12.1004 59.0931 11.8875 59.2216 11.6169 59.3201L10.3596 59.7777L8.91899 55.8198L10.1537 55.3703C10.5484 55.2267 10.8789 55.2107 11.1451 55.3224C11.4138 55.4289 11.6008 55.6269 11.7061 55.9163C11.7978 56.1682 11.8047 56.3976 11.7268 56.6048C11.6476 56.8081 11.513 56.9763 11.323 57.1093ZM9.82734 57.526L10.8197 57.1648C11.1166 57.0567 11.3187 56.9044 11.4259 56.7079C11.5356 56.5062 11.5453 56.2814 11.455 56.0333C11.3674 55.7927 11.2194 55.6316 11.0109 55.55C10.8024 55.4684 10.5384 55.4857 10.2189 55.602L9.2548 55.9529L9.82734 57.526ZM11.5199 59.1064C11.8394 58.9901 12.062 58.8239 12.1877 58.6079C12.3158 58.3868 12.3313 58.1428 12.2342 57.8759C12.1384 57.6128 11.9685 57.4384 11.7245 57.3527C11.4828 57.2618 11.2004 57.2752 10.8771 57.3929L9.90737 57.7459L10.5333 59.4655L11.5199 59.1064ZM14.9886 58.144C14.7029 58.248 14.4222 58.2778 14.1464 58.2334C13.8706 58.1891 13.6238 58.0725 13.4061 57.8835C13.1907 57.6895 13.0249 57.4327 12.9086 57.1132C12.7937 56.7975 12.7589 56.4973 12.8043 56.2126C12.8483 55.9242 12.9623 55.6762 13.1465 55.4687C13.333 55.2561 13.5691 55.0978 13.8548 54.9938C14.1404 54.8898 14.4212 54.86 14.697 54.9044C14.9714 54.9449 15.2156 55.0604 15.4296 55.2507C15.6474 55.4396 15.8144 55.6938 15.9307 56.0133C16.0469 56.3328 16.0831 56.6368 16.0391 56.9252C15.9937 57.2099 15.8778 57.4585 15.6912 57.6712C15.5085 57.8824 15.2743 58.04 14.9886 58.144ZM14.9065 57.9185C15.1283 57.8378 15.3172 57.7136 15.4733 57.5461C15.6319 57.3735 15.7324 57.1645 15.7751 56.9191C15.8177 56.6737 15.785 56.4026 15.6769 56.1056C15.5702 55.8125 15.4217 55.5856 15.2313 55.425C15.0409 55.2645 14.832 55.1702 14.6048 55.1422C14.3761 55.1105 14.1509 55.135 13.9292 55.2157C13.7074 55.2965 13.5191 55.4224 13.3644 55.5937C13.212 55.7598 13.1145 55.9656 13.0719 56.211C13.0292 56.4564 13.0612 56.7257 13.168 57.0188C13.276 57.3158 13.4234 57.5452 13.61 57.7071C13.8004 57.8677 14.0081 57.9645 14.2329 57.9976C14.4602 58.0256 14.6847 57.9992 14.9065 57.9185ZM18.6226 56.8213C18.3369 56.9253 18.0562 56.9551 17.7804 56.9108C17.5046 56.8664 17.2578 56.7498 17.04 56.5609C16.8247 56.3668 16.6589 56.1101 16.5426 55.7906C16.4277 55.4748 16.3929 55.1746 16.4382 54.8899C16.4822 54.6015 16.5963 54.3535 16.7805 54.146C16.967 53.9334 17.2031 53.7751 17.4887 53.6711C17.7744 53.5672 18.0551 53.5374 18.3309 53.5817C18.6054 53.6223 18.8496 53.7377 19.0636 53.928C19.2813 54.1169 19.4483 54.3711 19.5646 54.6906C19.6809 55.0101 19.7171 55.3141 19.6731 55.6025C19.6277 55.8872 19.5117 56.1359 19.3252 56.3485C19.1424 56.5598 18.9082 56.7174 18.6226 56.8213ZM18.5405 56.5958C18.7622 56.5151 18.9512 56.391 19.1073 56.2235C19.2658 56.0509 19.3664 55.8419 19.4091 55.5965C19.4517 55.3511 19.419 55.0799 19.3109 54.783C19.2042 54.4898 19.0556 54.2629 18.8652 54.1024C18.6748 53.9418 18.466 53.8475 18.2387 53.8196C18.0101 53.7879 17.7849 53.8124 17.5631 53.8931C17.3414 53.9738 17.1531 54.0998 16.9983 54.2711C16.846 54.4372 16.7485 54.6429 16.7058 54.8883C16.6632 55.1337 16.6952 55.403 16.8019 55.6962C16.91 55.9931 17.0574 56.2226 17.244 56.3845C17.4344 56.5451 17.642 56.6419 17.8669 56.675C18.0942 56.7029 18.3187 56.6765 18.5405 56.5958ZM22.4825 55.3653L20.6353 54.4478L21.1463 55.8517L20.8926 55.944L19.374 51.7718L19.6277 51.6795L20.5368 54.1772L21.3457 52.312L21.7009 52.1827L20.7721 54.2448L22.8321 55.2381L22.4825 55.3653ZM22.1669 50.9979L23.6075 54.9559L23.3538 55.0482L21.9132 51.0903L22.1669 50.9979ZM24.782 50.9911C25.1466 50.8584 25.4846 50.863 25.796 51.0051C26.106 51.1434 26.341 51.4325 26.5011 51.8723L27.1537 53.6652L26.9056 53.7555L26.2592 51.9795C26.1265 51.6149 25.9331 51.3702 25.6792 51.2456C25.4239 51.1172 25.1383 51.1104 24.8226 51.2253C24.4918 51.3457 24.2651 51.5474 24.1425 51.8304C24.0237 52.112 24.0395 52.4596 24.19 52.8731L24.7913 54.525L24.5376 54.6174L23.4233 51.5559L23.677 51.4635L23.913 52.1119C23.916 51.8511 23.9952 51.6244 24.1506 51.4316C24.3085 51.2337 24.5189 51.0868 24.782 50.9911Z" fill="#102C07"/>
<rect x="122.747" y="22.0645" width="2" height="36" transform="rotate(-20 122.747 22.0645)" fill="#102C07"/>
</g>
<defs>
<filter id="filter0_d_39_30" x="6" y="0" width="144" height="69" filterUnits="userSpaceOnUse" color-interpolation-filters="sRGB">
<feFlood flood-opacity="0" result="BackgroundImageFix"/>
<feColorMatrix in="SourceAlpha" type="matrix" values="0 0 0 0 0 0 0 0 0 0 0 0 0 0 0 0 0 0 127 0" result="hardAlpha"/>
<feOffset dy="4"/>
<feGaussianBlur stdDeviation="2"/>
<feComposite in2="hardAlpha" operator="out"/>
<feColorMatrix type="matrix" values="0 0 0 0 0.440469 0 0 0 0 0.556863 0 0 0 0 0.36972 0 0 0 1 0"/>
<feBlend mode="normal" in2="BackgroundImageFix" result="effect1_dropShadow_39_30"/>
<feBlend mode="normal" in="SourceGraphic" in2="effect1_dropShadow_39_30" result="shape"/>
</filter>
<filter id="filter1_d_39_30" x="0" y="6" width="156.661" height="111.836" filterUnits="userSpaceOnUse" color-interpolation-filters="sRGB">
<feFlood flood-opacity="0" result="BackgroundImageFix"/>
<feColorMatrix in="SourceAlpha" type="matrix" values="0 0 0 0 0 0 0 0 0 0 0 0 0 0 0 0 0 0 127 0" result="hardAlpha"/>
<feOffset dy="4"/>
<feGaussianBlur stdDeviation="2"/>
<feComposite in2="hardAlpha" operator="out"/>
<feColorMatrix type="matrix" values="0 0 0 0 0.440469 0 0 0 0 0.556863 0 0 0 0 0.36972 0 0 0 1 0"/>
<feBlend mode="normal" in2="BackgroundImageFix" result="effect1_dropShadow_39_30"/>
<feBlend mode="normal" in="SourceGraphic" in2="effect1_dropShadow_39_30" result="shape"/>
</filter>
</defs>
</svg>
