<svg width="60" height="58" viewBox="0 0 60 58" fill="none" xmlns="http://www.w3.org/2000/svg">
<rect width="60" height="58" rx="10" fill="white" fill-opacity="0.1"/>
<g filter="url(#filter0_d_62_4)">
<path d="M20.8271 38.9092L17.27 39.0303C16.7251 39.0505 16.2407 39.0858 15.8169 39.1362C15.4032 39.1867 15.05 39.2422 14.7573 39.3027L14.6665 39.1514C14.8683 38.8587 14.9692 38.3239 14.9692 37.5469V21.5776C14.9692 20.8914 14.939 20.3213 14.8784 19.8672C14.8179 19.4131 14.7018 19.0549 14.5303 18.7925C14.3688 18.52 14.1418 18.3333 13.8491 18.2324C13.5666 18.1214 13.2588 18.0659 12.9258 18.0659C12.5928 18.0659 12.3859 18.071 12.3052 18.0811L12.2446 17.6421C13.4657 17.4806 14.6665 17.3394 15.8472 17.2183C17.0379 17.0972 17.8452 17.0316 18.269 17.0215C18.6929 17.0013 19.1016 16.9912 19.4951 16.9912C20.5951 16.9912 21.5688 17.0618 22.4165 17.2031C23.2743 17.3343 23.9907 17.5563 24.5659 17.8691C25.1512 18.182 25.5952 18.5907 25.8979 19.0952C26.2007 19.5897 26.3521 20.2002 26.3521 20.9268C26.3521 21.5524 26.231 22.1478 25.9888 22.7129C25.7466 23.278 25.4085 23.8027 24.9746 24.2871C24.5508 24.7715 24.0513 25.2104 23.4761 25.604C22.9009 25.9976 22.2803 26.3306 21.6143 26.603V26.7241C22.4014 26.825 23.1683 27.0016 23.915 27.2539C24.6719 27.5062 25.3429 27.8594 25.9282 28.3135C26.5135 28.7575 26.9827 29.3125 27.3359 29.9785C27.6891 30.6344 27.8657 31.4215 27.8657 32.3398C27.8657 33.4196 27.6589 34.3732 27.2451 35.2007C26.8415 36.0181 26.3066 36.7043 25.6406 37.2593C24.9746 37.8042 24.2178 38.2179 23.3701 38.5005C22.5326 38.7729 21.6849 38.9092 20.8271 38.9092ZM17.3003 19.1255V38.0464L19.9038 38.1675C21.5789 38.2482 22.9261 37.8446 23.9453 36.9565C24.9746 36.0584 25.4893 34.6911 25.4893 32.8545C25.4893 31.8958 25.3026 31.0482 24.9292 30.3115C24.5558 29.5648 24.0361 28.9694 23.3701 28.5254C22.7142 28.0814 21.9624 27.7484 21.1147 27.5264C20.2671 27.3044 19.3387 27.2035 18.3296 27.2236V26.5728C19.2882 26.5526 20.1914 26.3457 21.0391 25.9521C21.8867 25.5586 22.5931 24.9632 23.1582 24.166C23.7334 23.3587 24.021 22.4253 24.021 21.3657C24.021 20.4474 23.8293 19.741 23.4458 19.2466C23.0724 18.7521 22.5729 18.404 21.9473 18.2021C21.3216 18.0003 20.6001 17.9095 19.7827 17.9297C18.9653 17.9499 18.1177 18.0205 17.2397 18.1416C17.2297 18.1416 17.2196 18.1416 17.2095 18.1416C17.27 18.4746 17.3003 18.8026 17.3003 19.1255ZM36.4028 29.3276H29.2734V28.7979C30.1917 28.3841 31.0192 28.1772 31.7559 28.1772H38.8853V28.707C38.0073 29.1208 37.1799 29.3276 36.4028 29.3276ZM45.6514 18.7925V36.2754C45.6514 37.0928 45.8179 37.6882 46.1509 38.0615C46.4839 38.4349 47.1146 38.7074 48.043 38.8789L47.9219 39.2422C46.8018 39.0908 45.9491 39.0101 45.3638 39C44.7785 38.9899 44.0317 39.0706 43.1235 39.2422L43.0176 39.0908C43.2295 38.7982 43.3354 38.2633 43.3354 37.4863V21.5776C43.3354 20.1548 43.1639 19.1961 42.8208 18.7017C42.4777 18.2072 41.7612 18.0003 40.6714 18.0811L40.6108 17.7935C42.2759 17.299 43.8551 17.0518 45.3486 17.0518C45.5505 17.6068 45.6514 18.187 45.6514 18.7925Z" fill="#9AEA6C"/>
</g>
<defs>
<filter id="filter0_d_62_4" x="8.24463" y="16.9912" width="43.7983" height="30.3115" filterUnits="userSpaceOnUse" color-interpolation-filters="sRGB">
<feFlood flood-opacity="0" result="BackgroundImageFix"/>
<feColorMatrix in="SourceAlpha" type="matrix" values="0 0 0 0 0 0 0 0 0 0 0 0 0 0 0 0 0 0 127 0" result="hardAlpha"/>
<feOffset dy="4"/>
<feGaussianBlur stdDeviation="2"/>
<feComposite in2="hardAlpha" operator="out"/>
<feColorMatrix type="matrix" values="0 0 0 0 0 0 0 0 0 0 0 0 0 0 0 0 0 0 0.25 0"/>
<feBlend mode="normal" in2="BackgroundImageFix" result="effect1_dropShadow_62_4"/>
<feBlend mode="normal" in="SourceGraphic" in2="effect1_dropShadow_62_4" result="shape"/>
</filter>
</defs>
</svg>
